# File produced by Open Asset Import Library (http://www.assimp.sf.net)
# (assimp v3.2.202087883)

mtllib model_normalized.mtl

# 138 vertex positions
v 0.022276 0.021393 -0.063332
v 0.037941 -0.005446 -0.055494
v 0.022276 -0.005446 -0.063332
v 0.037941 0.021393 -0.055494
v 0.029665 -0.005446 0.060427
v 0.005117 0.021393 -0.066849
v 0.026787 0.021393 -0.004490
v 0.051042 -0.005446 -0.043869
v 0.044286 -0.005446 0.050781
v 0.013047 -0.005446 0.065961
v 0.005117 -0.005446 -0.066849
v 0.020960 0.021393 -0.017101
v 0.029665 0.021393 0.060427
v 0.024703 0.021393 -0.011179
v 0.051042 0.021393 -0.043869
v 0.044286 0.021393 0.050781
v -0.012368 0.021393 -0.065805
v 0.015811 0.021393 -0.021853
v 0.027068 0.021393 0.002511
v 0.026787 0.182427 -0.004490
v 0.060689 0.021393 -0.029248
v 0.055911 -0.005446 0.037679
v 0.013047 0.021393 0.065961
v -0.004438 -0.005446 0.067005
v -0.012368 -0.005446 -0.065805
v 0.002773 0.021393 -0.026651
v 0.021087 0.182427 -0.016901
v 0.009607 0.021393 -0.025110
v 0.015811 0.182427 -0.021853
v 0.027068 0.182427 0.002511
v 0.024703 0.182427 -0.011179
v 0.055911 0.021393 0.037679
v 0.060689 -0.005446 -0.029248
v -0.028987 0.021393 -0.060272
v -0.004228 0.021393 -0.026370
v 0.020960 0.182427 -0.017101
v 0.009607 0.182427 -0.025110
v 0.019963 0.182427 -0.018021
v 0.025527 0.182427 0.009346
v 0.025527 0.021393 0.009346
v 0.066222 0.021393 -0.012630
v 0.063749 0.021393 0.022015
v 0.063749 -0.005446 0.022015
v -0.004438 0.021393 0.067005
v -0.021597 -0.005446 0.063488
v -0.028987 -0.005446 -0.060272
v -0.016840 0.021393 -0.020543
v 0.002773 0.182427 -0.026651
v -0.010918 0.021393 -0.024286
v -0.004228 0.182427 -0.026370
v 0.018485 0.182427 0.019651
v 0.022270 0.182427 0.015549
v 0.003396 0.182427 -0.026510
v 0.011596 0.182427 0.024442
v 0.022270 0.021393 0.015549
v 0.066222 -0.005446 -0.012630
v 0.011596 0.021393 0.024442
v -0.043607 0.021393 -0.050625
v -0.021592 0.021393 -0.015394
v -0.000728 0.182427 -0.026510
v -0.010918 0.182427 -0.024286
v 0.004907 0.182427 0.026525
v 0.017519 0.182427 0.020698
v 0.017290 0.182427 0.020843
v 0.017519 0.021393 0.020698
v 0.067266 0.021393 0.004855
v 0.067266 -0.005446 0.004855
v 0.004907 0.021393 0.026525
v -0.021597 0.021393 0.063488
v -0.037262 -0.005446 0.055650
v -0.043607 -0.005446 -0.050625
v -0.037262 0.021393 0.055650
v -0.016840 0.182427 -0.020543
v -0.024849 0.021393 -0.009190
v 0.001407 0.182427 0.026666
v -0.016228 0.182427 -0.020929
v -0.002094 0.182427 0.026806
v -0.008929 0.182427 0.025266
v -0.002094 0.021393 0.026806
v -0.008929 0.021393 0.025266
v -0.055233 -0.005446 -0.037523
v -0.026389 0.021393 -0.002355
v -0.050364 0.021393 0.044024
v -0.021592 0.182427 -0.015394
v -0.019431 0.182427 -0.017735
v -0.015132 0.182427 0.022009
v -0.002717 0.182427 0.026666
v -0.015132 0.021393 0.022009
v -0.050364 -0.005446 0.044024
v -0.055233 0.021393 -0.037523
v -0.026108 0.021393 0.004645
v -0.017405 0.182427 0.019912
v -0.024849 0.182427 -0.009190
v -0.020281 0.021393 0.017257
v -0.024025 0.021393 0.011335
v -0.063071 -0.005446 -0.021859
v -0.060010 -0.005446 0.029404
v -0.026389 0.182427 -0.002355
v -0.060010 0.021393 0.029404
v -0.026249 0.182427 -0.002979
v -0.024025 0.182427 0.011335
v -0.020281 0.182427 0.017257
v -0.063071 0.021393 -0.021859
v -0.026108 0.182427 0.004645
v -0.026249 0.182427 0.001145
v -0.020648 0.182427 0.016677
v -0.066588 -0.005446 -0.004700
v -0.065544 -0.005446 0.012785
v -0.065544 0.021393 0.012785
v -0.066588 0.021393 -0.004700
v 0.107852 -0.770357 0.088500
v 0.093100 -0.770357 -0.107278
v 0.107852 -0.770357 -0.092527
v 0.088918 -0.770357 0.107434
v 0.093100 -0.139641 -0.107278
v 0.107852 -0.139641 -0.092527
v 0.107852 -0.139641 0.088500
v -0.090285 -0.770357 -0.107278
v -0.090285 -0.139641 -0.107278
v 0.088918 -0.139641 0.107434
v -0.088593 -0.770357 0.107434
v 0.054877 -0.005446 -0.067020
v 0.067594 -0.126221 -0.067020
v -0.054325 -0.005446 -0.067020
v 0.067594 -0.005446 -0.054303
v 0.055004 -0.005446 0.067175
v -0.106860 -0.770357 0.089167
v -0.106860 -0.139641 -0.090703
v -0.066601 -0.126221 -0.067020
v 0.067594 -0.005446 0.054586
v -0.054325 -0.005446 0.067175
v -0.088593 -0.139641 0.107434
v -0.106860 -0.770357 -0.090703
v -0.106860 -0.139641 0.089167
v -0.066601 -0.126221 0.067175
v 0.067594 -0.126221 0.067175
v -0.066601 -0.005446 -0.054743
v -0.066601 -0.005446 0.054899

# 0 UV coordinates

# 102 vertex normals
vn 0.00830428 0 -0.0240041
vn 0.014234 0 -0.0210369
vn -0.00830428 0 0.0240041
vn -0.014234 0 0.0210369
vn 0 -0.0254 0
vn 0 0.0254 0
vn 0.00180858 0 -0.0253355
vn -0.00180858 0 0.0253355
vn 0.0191938 0 -0.0166361
vn -0.0191938 0 0.0166361
vn 0.0166361 0 0.0191938
vn 0.0111015 0 0.0228455
vn -0.0166361 0 -0.0191938
vn -0.0111015 0 -0.0228455
vn 0.00481038 0 0.0249403
vn -0.00481038 0 -0.0249403
vn -0.0250295 0 0.00432262
vn -0.0230578 0 0.0106534
vn 0.0228455 0 -0.0111015
vn -0.0228455 0 0.0111015
vn 0.0210369 0 0.014234
vn -0.0210369 0 -0.014234
vn -0.02147 0 0.013572
vn -0.0195148 0 0.0162582
vn -0.014642 0 0.0207551
vn -0.0252954 0 -0.00230276
vn -0.00877123 0 0.0238375
vn -0.0172258 0 0.0186664
vn -0.0238375 0 -0.00877123
vn 0.0249403 0 -0.00481038
vn -0.0249403 0 0.00481038
vn 0.0240041 0 0.00830428
vn -0.0240041 0 -0.00830428
vn -0.00230276 0 0.0252954
vn 0.00432262 0 0.0250295
vn -0.00558477 0 0.0247784
vn 0.00101864 0 0.0253796
vn 0.0106534 0 0.0230578
vn -0.0207551 0 -0.014642
vn 0.0253355 0 0.00180858
vn -0.0253355 0 -0.00180858
vn 0.0162582 0 0.0195148
vn 0.0207551 0 0.014642
vn 0.013572 0 0.02147
vn -0.0186664 0 -0.0172258
vn -0.0162582 0 -0.0195148
vn -0.013572 0 -0.02147
vn -0.0106534 0 -0.0230578
vn -0.00432262 0 -0.0250295
vn 0.0238375 0 0.00877123
vn 0.0186664 0 0.0172258
vn -0.00101864 0 -0.0253796
vn 0.00230276 0 -0.0252954
vn 0.0252954 0 0.00230276
vn 0.00558477 -0 -0.0247784
vn 0.00877123 -0 -0.0238375
vn 0.014642 -0 -0.0207551
vn 0.0250295 0 -0.00432262
vn 0.0247784 0 0.00558477
vn 0.0172258 -0 -0.0186664
vn 0.0195148 -0 -0.0162582
vn 0.0230578 -0 -0.0106534
vn 0.0253796 0 -0.00101864
vn 0.02147 -0 -0.013572
vn -0.0247784 0 -0.00558477
vn -0.0253796 0 0.00101864
vn 0.0179605 -0 -0.0179605
vn -0.0179605 0 0.0179605
vn 0.0254 0 0
vn -0.0254 0 0
vn 0.0179605 0 0.0179605
vn -0.0179605 0 -0.0179605
vn 0 -0 -0.0254
vn 0 0 0.0254
vn 0.0165973 0.00970669 -0.0165973
vn -0.0165973 -0.00970669 0.0165973
vn 0 0.0240965 -0.00803219
vn 0 -0.0240965 0.00803219
vn 0 0.00729864 -0.0243288
vn 0 -0.00729864 0.0243288
vn 0.0243288 0.00729864 0
vn -0.0243288 -0.00729864 0
vn 0.0167283 0.00924608 0.0167283
vn -0.0167283 -0.00924608 -0.0167283
vn 0.0121167 0.0223224 0.000236042
vn -0.0121167 -0.0223224 -0.000236042
vn -0.0166666 0.00946605 -0.0166666
vn 0.0166666 -0.00946605 0.0166666
vn 0 0.00729864 0.0243288
vn 0 -0.00729864 -0.0243288
vn -0.0125218 0.022099 0
vn 0.0125218 -0.022099 -0
vn 0.0135285 0.0214974 0
vn -0.0135285 -0.0214974 0
vn 0 0.0240965 0.00803219
vn 0 -0.0240965 -0.00803219
vn -0.0243286 0.00729938 -5.08e-08
vn 0.0243286 -0.00729938 5.08e-08
vn -0.0130925 0.0217655 0.000103124
vn 0.0130925 -0.0217655 -0.000103124
vn -0.0167177 0.00928436 0.0167177
vn 0.0167177 -0.00928436 -0.0167177

# Mesh 'mesh1_mesh1-geometry' with 286 faces
g mesh1_mesh1-geometry
usemtl material_0_24
f  1//1 2//2 3//1
f  2//2 1//1 4//2
f  3//3 2//4 1//3
f  4//4 1//3 2//4
f  2//5 5//5 3//5
f  3//6 5//6 2//6
f  3//1 6//7 1//1
f  1//3 6//8 3//3
f  1//5 4//5 7//5
f  4//2 8//9 2//2
f  2//4 8//10 4//4
f  2//5 9//5 5//5
f  5//6 9//6 2//6
f  3//5 5//5 10//5
f  10//6 5//6 3//6
f  6//7 3//1 11//7
f  11//8 3//3 6//8
f  6//5 1//5 12//5
f  7//5 4//5 13//5
f  14//5 1//5 7//5
f  8//9 4//2 15//9
f  15//10 4//4 8//10
f  8//5 9//5 2//5
f  2//6 9//6 8//6
f  16//11 5//12 9//11
f  9//13 5//14 16//13
f  13//12 10//15 5//12
f  5//14 10//16 13//14
f  3//5 10//5 11//5
f  11//6 10//6 3//6
f  11//7 17//16 6//7
f  6//8 17//15 11//8
f  12//5 1//5 14//5
f  18//5 6//5 12//5
f  13//5 4//5 16//5
f  19//5 7//5 13//5
f  7//17 20//17 14//18
f  4//5 15//5 16//5
f  21//19 8//9 15//9
f  15//10 8//10 21//20
f  8//5 22//5 9//5
f  9//6 22//6 8//6
f  5//12 16//11 13//12
f  13//14 16//13 5//14
f  22//21 16//11 9//11
f  9//13 16//13 22//22
f  10//15 13//12 23//15
f  23//16 13//14 10//16
f  11//5 10//5 24//5
f  24//6 10//6 11//6
f  17//16 11//7 25//16
f  25//15 11//8 17//15
f  17//5 6//5 26//5
f  14//18 27//23 12//24
f  28//5 6//5 18//5
f  18//25 12//24 29//25
f  19//26 30//26 7//17
f  13//5 23//5 19//5
f  31//18 14//18 20//17
f  20//17 7//17 30//26
f  16//5 15//5 32//5
f  8//9 21//19 33//19
f  33//20 21//20 8//10
f  15//5 21//5 32//5
f  33//5 22//5 8//5
f  8//6 22//6 33//6
f  16//11 22//21 32//21
f  32//22 22//22 16//13
f  23//15 24//8 10//15
f  10//16 24//7 23//16
f  11//5 24//5 25//5
f  25//6 24//6 11//6
f  25//16 34//14 17//16
f  17//15 34//12 25//15
f  26//5 6//5 28//5
f  35//5 17//5 26//5
f  36//24 12//24 27//23
f  31//18 27//23 14//18
f  28//27 18//25 37//27
f  38//28 29//25 12//24
f  29//25 37//27 18//25
f  30//26 19//26 39//29
f  40//5 19//5 23//5
f  31//5 20//5 39//5
f  30//5 39//5 20//5
f  41//30 33//19 21//19
f  21//20 33//20 41//31
f  32//5 21//5 42//5
f  33//5 43//5 22//5
f  22//6 43//6 33//6
f  43//32 32//21 22//21
f  22//22 32//22 43//33
f  24//8 23//15 44//8
f  44//7 23//16 24//7
f  25//5 24//5 45//5
f  45//6 24//6 25//6
f  34//14 25//16 46//14
f  46//12 25//15 34//12
f  34//5 17//5 47//5
f  26//34 28//27 48//34
f  49//5 17//5 35//5
f  35//35 26//34 50//35
f  38//28 12//24 36//24
f  36//5 27//5 51//5
f  27//5 31//5 52//5
f  53//36 28//27 37//27
f  29//5 38//5 51//5
f  37//5 29//5 54//5
f  40//29 39//29 19//26
f  55//5 40//5 23//5
f  52//5 31//5 39//5
f  33//19 41//30 56//30
f  56//31 41//31 33//20
f  21//5 41//5 42//5
f  32//21 43//32 42//32
f  42//33 43//33 32//22
f  56//5 43//5 33//5
f  33//6 43//6 56//6
f  44//5 57//5 23//5
f  44//8 45//3 24//8
f  24//7 45//1 44//7
f  25//5 45//5 46//5
f  46//6 45//6 25//6
f  46//14 58//13 34//14
f  34//12 58//11 46//12
f  47//5 17//5 49//5
f  59//5 34//5 47//5
f  53//36 48//34 28//27
f  60//37 26//34 48//34
f  49//38 35//35 61//38
f  60//37 50//35 26//34
f  50//35 61//38 35//35
f  38//5 36//5 51//5
f  51//5 27//5 52//5
f  53//5 37//5 62//5
f  63//5 29//5 51//5
f  54//5 29//5 64//5
f  62//5 37//5 54//5
f  39//29 40//29 52//39
f  55//39 52//39 40//29
f  65//5 55//5 23//5
f  66//40 56//30 41//30
f  41//31 56//31 66//41
f  66//5 42//5 41//5
f  67//40 42//32 43//32
f  43//33 42//33 67//41
f  43//5 56//5 67//5
f  67//6 56//6 43//6
f  57//5 65//5 23//5
f  68//5 57//5 44//5
f  45//3 44//8 69//3
f  69//1 44//7 45//1
f  46//5 45//5 70//5
f  70//6 45//6 46//6
f  58//13 46//14 71//13
f  71//11 46//12 58//11
f  58//5 34//5 72//5
f  47//42 49//38 73//42
f  74//5 34//5 59//5
f  47//42 73//42 59//43
f  48//5 53//5 75//5
f  60//5 48//5 75//5
f  76//44 49//38 61//38
f  50//5 60//5 77//5
f  61//5 50//5 78//5
f  52//39 55//39 51//45
f  75//5 53//5 62//5
f  64//5 29//5 63//5
f  63//46 51//45 65//46
f  64//47 57//48 54//48
f  62//49 54//48 68//49
f  65//46 51//45 55//39
f  56//30 66//40 67//40
f  67//41 66//41 56//31
f  42//32 67//40 66//40
f  66//41 67//41 42//33
f  65//46 57//48 63//46
f  57//48 68//49 54//48
f  79//5 68//5 44//5
f  69//5 80//5 44//5
f  69//3 70//4 45//3
f  45//1 70//2 69//1
f  46//5 70//5 71//5
f  71//6 70//6 46//6
f  81//22 58//13 71//13
f  71//11 58//11 81//21
f  34//5 82//5 72//5
f  83//5 58//5 72//5
f  76//44 73//42 49//38
f  82//5 34//5 74//5
f  59//43 84//43 74//50
f  85//51 59//43 73//42
f  77//5 60//5 75//5
f  76//5 61//5 86//5
f  87//5 50//5 77//5
f  78//5 50//5 87//5
f  86//5 61//5 78//5
f  75//52 62//49 79//53
f  64//47 63//46 57//48
f  68//49 79//53 62//49
f  80//5 79//5 44//5
f  88//5 80//5 69//5
f  70//4 69//3 72//4
f  72//2 69//1 70//2
f  71//5 70//5 89//5
f  89//6 70//6 71//6
f  58//13 81//22 90//22
f  90//21 81//21 58//11
f  71//5 89//5 81//5
f  81//6 89//6 71//6
f  82//5 91//5 72//5
f  90//5 58//5 83//5
f  89//10 72//4 83//10
f  83//9 72//2 89//9
f  73//5 76//5 92//5
f  74//50 93//50 82//54
f  93//50 74//50 84//43
f  84//43 59//43 85//51
f  85//5 73//5 92//5
f  75//52 79//53 77//53
f  92//5 76//5 86//5
f  87//55 77//53 80//56
f  87//55 80//56 78//56
f  86//57 78//56 88//57
f  79//53 80//56 77//53
f  80//56 88//57 78//56
f  94//5 88//5 69//5
f  72//5 95//5 69//5
f  72//4 89//10 70//4
f  70//2 89//9 72//2
f  96//33 90//22 81//22
f  81//21 90//21 96//32
f  81//5 89//5 97//5
f  97//6 89//6 81//6
f  91//5 95//5 72//5
f  82//54 98//54 91//58
f  99//5 90//5 83//5
f  99//20 89//10 83//10
f  83//9 89//9 99//19
f  100//59 82//54 93//50
f  93//5 84//5 101//5
f  84//5 85//5 102//5
f  102//5 85//5 92//5
f  92//60 86//57 94//61
f  88//57 94//61 86//57
f  95//5 94//5 69//5
f  90//22 96//33 103//33
f  103//32 96//32 90//21
f  81//5 97//5 96//5
f  96//6 97//6 81//6
f  89//10 99//20 97//20
f  97//19 99//19 89//9
f  91//58 104//58 95//62
f  105//63 91//58 98//54
f  98//54 82//54 100//59
f  103//5 90//5 99//5
f  100//5 93//5 104//5
f  101//5 84//5 106//5
f  104//5 93//5 101//5
f  106//5 84//5 102//5
f  92//60 94//61 102//61
f  95//62 101//62 94//61
f  107//41 103//33 96//33
f  96//32 103//32 107//40
f  96//5 97//5 108//5
f  108//6 97//6 96//6
f  109//31 97//20 99//20
f  99//19 97//19 109//30
f  101//62 95//62 104//58
f  104//58 91//58 105//63
f  98//5 100//5 105//5
f  109//5 103//5 99//5
f  105//5 100//5 104//5
f  106//64 94//61 101//62
f  102//61 94//61 106//64
f  103//33 107//41 110//41
f  110//40 107//40 103//32
f  96//5 108//5 107//5
f  107//6 108//6 96//6
f  97//20 109//31 108//31
f  108//30 109//30 97//19
f  110//5 103//5 109//5
f  108//31 110//41 107//41
f  107//40 110//40 108//30
f  110//41 108//31 109//31
f  109//30 108//30 110//40

# Mesh 'mesh1_mesh1-geometry' with 146 faces
g mesh1_mesh1-geometry
usemtl material_1_24
f  7//6 4//6 1//6
f  12//6 1//6 6//6
f  13//6 4//6 7//6
f  7//6 1//6 14//6
f  14//6 1//6 12//6
f  12//6 6//6 18//6
f  16//6 4//6 13//6
f  13//6 7//6 19//6
f  14//62 20//58 7//58
f  16//6 15//6 4//6
f  26//6 6//6 17//6
f  12//61 27//64 14//62
f  18//6 6//6 28//6
f  29//57 12//61 18//57
f  7//58 30//54 19//54
f  19//6 23//6 13//6
f  20//58 14//62 31//62
f  30//54 7//58 20//58
f  32//6 15//6 16//6
f  32//6 21//6 15//6
f  28//6 6//6 26//6
f  26//6 17//6 35//6
f  27//64 12//61 36//61
f  14//62 27//64 31//62
f  37//56 18//57 28//56
f  12//61 29//57 38//60
f  18//57 37//56 29//57
f  39//50 19//54 30//54
f  23//6 19//6 40//6
f  39//6 20//6 31//6
f  20//6 39//6 30//6
f  42//6 21//6 32//6
f  47//6 17//6 34//6
f  48//53 28//56 26//53
f  35//6 17//6 49//6
f  50//49 26//53 35//49
f  36//61 12//61 38//60
f  51//6 27//6 36//6
f  52//6 31//6 27//6
f  37//56 28//56 53//55
f  51//6 38//6 29//6
f  54//6 29//6 37//6
f  19//54 39//50 40//50
f  23//6 40//6 55//6
f  39//6 31//6 52//6
f  42//6 41//6 21//6
f  23//6 57//6 44//6
f  49//6 17//6 47//6
f  47//6 34//6 59//6
f  28//56 48//53 53//55
f  48//53 26//53 60//52
f  61//48 35//49 49//48
f  26//53 50//49 60//52
f  35//49 61//48 50//49
f  51//6 36//6 38//6
f  52//6 27//6 51//6
f  62//6 37//6 53//6
f  51//6 29//6 63//6
f  64//6 29//6 54//6
f  54//6 37//6 62//6
f  52//43 40//50 39//50
f  40//50 52//43 55//43
f  23//6 55//6 65//6
f  41//6 42//6 66//6
f  23//6 65//6 57//6
f  44//6 57//6 68//6
f  72//6 34//6 58//6
f  73//46 49//48 47//46
f  59//6 34//6 74//6
f  59//39 73//46 47//46
f  75//6 53//6 48//6
f  75//6 48//6 60//6
f  61//48 49//48 76//47
f  77//6 60//6 50//6
f  78//6 50//6 61//6
f  51//51 55//43 52//43
f  62//6 53//6 75//6
f  63//6 29//6 64//6
f  65//42 51//51 63//42
f  54//38 57//38 64//44
f  68//35 54//38 62//35
f  55//43 51//51 65//42
f  63//42 57//38 65//42
f  54//38 68//35 57//38
f  44//6 68//6 79//6
f  44//6 80//6 69//6
f  72//6 82//6 34//6
f  72//6 58//6 83//6
f  49//48 73//46 76//47
f  74//6 34//6 82//6
f  74//29 84//39 59//39
f  73//46 59//39 85//45
f  75//6 60//6 77//6
f  86//6 61//6 76//6
f  77//6 50//6 87//6
f  87//6 50//6 78//6
f  78//6 61//6 86//6
f  79//34 62//35 75//37
f  57//38 63//42 64//44
f  62//35 79//34 68//35
f  44//6 79//6 80//6
f  69//6 80//6 88//6
f  72//6 91//6 82//6
f  83//6 58//6 90//6
f  92//6 76//6 73//6
f  82//26 93//29 74//29
f  84//39 74//29 93//29
f  85//45 59//39 84//39
f  92//6 73//6 85//6
f  77//34 79//34 75//37
f  86//6 76//6 92//6
f  80//27 77//34 87//36
f  78//27 80//27 87//36
f  88//25 78//27 86//25
f  77//34 80//27 79//34
f  78//27 88//25 80//27
f  69//6 88//6 94//6
f  69//6 95//6 72//6
f  72//6 95//6 91//6
f  91//17 98//26 82//26
f  83//6 90//6 99//6
f  93//29 82//26 100//65
f  101//6 84//6 93//6
f  102//6 85//6 84//6
f  92//6 85//6 102//6
f  94//24 86//25 92//28
f  86//25 94//24 88//25
f  69//6 94//6 95//6
f  95//18 104//17 91//17
f  98//26 91//17 105//66
f  100//65 82//26 98//26
f  99//6 90//6 103//6
f  104//6 93//6 100//6
f  106//6 84//6 101//6
f  101//6 93//6 104//6
f  102//6 84//6 106//6
f  102//24 94//24 92//28
f  94//24 101//18 95//18
f  104//17 95//18 101//18
f  105//66 91//17 104//17
f  105//6 100//6 98//6
f  99//6 103//6 109//6
f  104//6 100//6 105//6
f  101//18 94//24 106//23
f  106//23 94//24 102//24
f  109//6 103//6 110//6

# Mesh 'mesh2_mesh2-geometry' with 116 faces
g mesh2_mesh2-geometry
usemtl material_0_24
f  111//5 112//5 113//5
f  112//5 111//5 114//5
f  113//6 112//6 111//6
f  114//6 111//6 112//6
f  115//67 113//67 112//67
f  112//68 113//68 115//68
f  116//69 111//69 113//69
f  113//70 111//70 116//70
f  117//71 114//71 111//71
f  111//72 114//72 117//72
f  112//5 114//5 118//5
f  118//6 114//6 112//6
f  113//67 115//67 116//67
f  116//68 115//68 113//68
f  112//73 119//73 115//73
f  115//74 119//74 112//74
f  111//69 116//69 117//69
f  117//70 116//70 111//70
f  114//71 117//71 120//71
f  120//72 117//72 114//72
f  118//5 114//5 121//5
f  121//6 114//6 118//6
f  119//73 112//73 118//73
f  118//74 112//74 119//74
f  115//6 117//6 116//6
f  116//5 117//5 115//5
f  122//75 116//75 115//75
f  115//76 116//76 122//76
f  119//77 123//77 115//77
f  115//78 123//78 119//78
f  124//79 115//79 119//79
f  119//80 115//80 124//80
f  125//81 117//81 116//81
f  116//82 117//82 125//82
f  117//83 126//83 120//83
f  120//84 126//84 117//84
f  117//6 115//6 120//6
f  120//5 115//5 117//5
f  120//74 121//74 114//74
f  114//73 121//73 120//73
f  118//5 121//5 127//5
f  127//6 121//6 118//6
f  118//72 128//72 119//72
f  119//71 128//71 118//71
f  116//75 122//75 125//75
f  125//76 122//76 116//76
f  115//79 124//79 122//79
f  122//80 124//80 115//80
f  123//77 119//77 129//77
f  129//78 119//78 123//78
f  123//85 120//85 115//85
f  115//86 120//86 123//86
f  128//87 124//87 119//87
f  119//88 124//88 128//88
f  117//81 125//81 130//81
f  130//82 125//82 117//82
f  126//83 117//83 130//83
f  130//84 117//84 126//84
f  131//89 120//89 126//89
f  126//90 120//90 131//90
f  121//74 120//74 132//74
f  132//73 120//73 121//73
f  132//68 127//68 121//68
f  121//67 127//67 132//67
f  118//5 127//5 133//5
f  133//6 127//6 118//6
f  128//72 118//72 133//72
f  133//71 118//71 128//71
f  134//6 119//6 128//6
f  128//5 119//5 134//5
f  122//6 130//6 125//6
f  125//5 130//5 122//5
f  131//6 122//6 124//6
f  124//5 122//5 131//5
f  119//91 135//91 129//91
f  129//92 135//92 119//92
f  136//93 120//93 123//93
f  123//94 120//94 136//94
f  124//87 128//87 137//87
f  137//88 128//88 124//88
f  130//6 122//6 126//6
f  126//5 122//5 130//5
f  120//89 131//89 132//89
f  132//90 131//90 120//90
f  126//6 122//6 131//6
f  131//5 122//5 126//5
f  136//95 132//95 120//95
f  120//96 132//96 136//96
f  127//68 132//68 134//68
f  134//67 132//67 127//67
f  134//70 133//70 127//70
f  127//69 133//69 134//69
f  133//70 134//70 128//70
f  128//69 134//69 133//69
f  119//6 134//6 132//6
f  132//5 134//5 119//5
f  134//97 137//97 128//97
f  128//98 137//98 134//98
f  131//6 124//6 137//6
f  137//5 124//5 131//5
f  119//99 132//99 135//99
f  135//100 132//100 119//100
f  131//101 134//101 132//101
f  132//102 134//102 131//102
f  132//95 136//95 135//95
f  135//96 136//96 132//96
f  137//97 134//97 107//97
f  107//98 134//98 137//98
f  131//6 137//6 107//6
f  107//5 137//5 131//5
f  134//101 131//101 138//101
f  138//102 131//102 134//102
f  107//97 134//97 138//97
f  138//98 134//98 107//98
f  138//6 131//6 107//6
f  107//5 131//5 138//5

# Mesh 'mesh3_mesh3-geometry' with 1 faces
g mesh3_mesh3-geometry
usemtl material_0_0
l  4 1

# Mesh 'mesh4_mesh4-geometry' with 1 faces
g mesh4_mesh4-geometry
usemtl material_0_0
l  21 15

# Mesh 'mesh5_mesh5-geometry' with 1 faces
g mesh5_mesh5-geometry
usemtl material_0_0
l  6 17

# Mesh 'mesh6_mesh6-geometry' with 73 faces
g mesh6_mesh6-geometry
usemtl material_0_0
l  2 3
l  8 2
l  3 11
l  33 8
l  11 25
l  56 33
l  25 46
l  67 56
l  46 71
l  43 67
l  71 81
l  22 43
l  81 96
l  9 22
l  96 107
l  5 9
l  137 107
l  107 138
l  107 108
l  10 5
l  137 128
l  124 137
l  131 138
l  134 138
l  108 97
l  24 10
l  128 134
l  119 128
l  128 133
l  122 124
l  124 119
l  132 131
l  131 126
l  134 132
l  134 127
l  97 89
l  45 24
l  115 119
l  119 129
l  119 135
l  119 132
l  119 118
l  133 127
l  118 133
l  122 115
l  125 122
l  121 132
l  132 120
l  132 135
l  130 126
l  126 120
l  127 121
l  89 70
l  70 45
l  112 115
l  115 123
l  115 120
l  116 115
l  112 118
l  130 125
l  125 116
l  121 114
l  123 120
l  120 117
l  120 136
l  120 114
l  130 117
l  113 112
l  113 116
l  117 116
l  114 111
l  111 117
l  111 113

# Mesh 'mesh7_mesh7-geometry' with 1 faces
g mesh7_mesh7-geometry
usemtl material_0_0
l  44 23

# Mesh 'mesh8_mesh8-geometry' with 1 faces
g mesh8_mesh8-geometry
usemtl material_0_0
l  109 99

