# File produced by Open Asset Import Library (http://www.assimp.sf.net)
# (assimp v3.2.202087883)

mtllib model_normalized.mtl

# 144 vertex positions
v 0.078684 -0.008444 0.181862
v 0.181862 -0.543132 0.078684
v 0.181862 -0.008444 0.078684
v 0.078684 -0.543132 0.181862
v 0.181862 -0.543132 -0.078684
v 0.117178 0.066481 0.051891
v -0.078684 -0.543132 0.181862
v 0.156401 -0.543132 0.068138
v 0.181862 -0.008444 -0.078684
v 0.051891 0.066481 0.117178
v 0.117178 0.066481 -0.051891
v -0.078684 -0.008444 0.181862
v 0.068138 -0.543132 0.156402
v 0.078684 -0.543132 -0.181862
v 0.156401 -0.543132 -0.068138
v -0.181862 -0.008444 0.078684
v -0.068138 -0.543132 0.156402
v 0.156401 -0.041819 0.068138
v 0.078684 -0.008444 -0.181862
v 0.156401 -0.041819 -0.068138
v 0.062222 0.066481 0.029128
v -0.051891 0.066481 0.117178
v -0.181862 -0.543132 0.078684
v -0.117178 0.066481 0.051891
v -0.156402 -0.543132 0.068138
v -0.068138 -0.041819 0.156402
v 0.068138 -0.041819 0.156402
v -0.078684 -0.008444 -0.181862
v 0.068138 -0.543132 -0.156401
v 0.051891 0.066481 -0.117178
v 0.068138 -0.041819 -0.156401
v 0.062222 0.066481 -0.029128
v 0.029128 0.066481 0.062222
v -0.181862 -0.008444 -0.078684
v -0.117178 0.066481 -0.051891
v -0.156402 -0.041819 0.068138
v 0.062222 0.045382 0.029128
v -0.078684 -0.543132 -0.181862
v -0.051891 0.066481 -0.117178
v 0.062222 0.045382 -0.029128
v 0.062222 0.141405 0.029128
v 0.029128 0.045382 0.062222
v -0.029128 0.066481 0.062222
v -0.062222 0.066481 0.029128
v -0.181862 -0.543132 -0.078684
v -0.156402 -0.543132 -0.068138
v -0.062222 0.045382 0.029128
v -0.068138 -0.041819 -0.156401
v -0.068138 -0.543132 -0.156401
v 0.029128 0.066481 -0.062222
v 0.029128 0.045382 -0.062222
v 0.062222 0.141405 -0.029128
v 0.029128 0.141405 0.062222
v -0.029128 0.141405 0.062222
v -0.062222 0.066481 -0.029128
v -0.156402 -0.041819 -0.068138
v -0.029128 0.045382 0.062222
v -0.062222 0.045382 -0.029128
v 0.048639 0.045382 0.023501
v -0.029128 0.066481 -0.062222
v 0.048639 0.045382 -0.023502
v 0.085784 0.141405 -0.038887
v 0.038887 0.141405 0.085784
v -0.062222 0.141405 0.029128
v -0.062222 0.141405 -0.029128
v 0.023502 0.045382 0.048639
v -0.048639 0.045382 0.023501
v 0.029128 0.141405 -0.062222
v -0.029128 0.045382 -0.062222
v 0.023502 0.045382 -0.048639
v 0.038887 0.141405 -0.085784
v 0.085784 0.141405 0.038887
v -0.038887 0.141405 0.085784
v -0.029128 0.141405 -0.062222
v -0.023501 0.045382 0.048639
v -0.048639 0.045382 -0.023502
v 0.048639 0.163898 0.023501
v 0.023502 0.163898 -0.048639
v 0.085784 0.263328 -0.038887
v 0.085784 0.263328 0.038887
v 0.038887 0.263328 0.085784
v -0.085784 0.141405 0.038887
v -0.038887 0.141405 -0.085784
v -0.023501 0.163898 0.048639
v -0.048639 0.163898 0.023501
v 0.023502 0.163898 0.048639
v 0.048639 0.163898 -0.023502
v -0.023501 0.045382 -0.048639
v 0.038887 0.263328 -0.085784
v -0.038887 0.263328 0.085784
v -0.085784 0.263328 0.038887
v -0.085784 0.141405 -0.038887
v -0.048639 0.163898 -0.023502
v 0.029128 0.163898 0.062222
v 0.062222 0.163898 -0.029128
v -0.038887 0.263328 -0.085784
v 0.029128 0.163898 -0.062222
v -0.023501 0.163898 -0.048639
v 0.062222 0.263328 -0.029128
v 0.062222 0.263328 0.029128
v 0.029128 0.263328 0.062222
v -0.085784 0.263328 -0.038887
v -0.029128 0.163898 0.062222
v -0.062222 0.163898 -0.029128
v 0.062222 0.163898 0.029128
v -0.029128 0.163898 -0.062222
v 0.029128 0.263328 -0.062222
v -0.029128 0.263328 0.062222
v -0.062222 0.263328 0.029128
v -0.062222 0.163898 0.029128
v -0.062222 0.263328 -0.029128
v -0.029128 0.263328 -0.062222
v 0.067668 -0.159655 0.156402
v -0.067668 -0.543132 0.156402
v 0.067668 -0.543132 0.156402
v -0.067668 -0.159655 0.156402
v 0.067668 -0.543132 -0.156401
v 0.156401 -0.543132 0.067668
v 0.067668 -0.159655 -0.156401
v -0.156402 -0.159655 0.067668
v 0.156401 -0.543132 -0.067668
v -0.067668 -0.543132 -0.156401
v 0.156401 -0.159655 0.067668
v 0.156401 -0.159655 -0.067668
v -0.067668 -0.159655 -0.156401
v -0.156402 -0.543132 0.067668
v -0.156402 -0.159655 -0.067668
v -0.156402 -0.543132 -0.067668
v 0.029180 0.163898 0.062335
v 0.062335 0.163898 -0.029180
v 0.062335 0.163898 0.029180
v 0.029180 0.163898 -0.062335
v 0.062222 0.314428 -0.029128
v 0.029128 0.314428 0.062222
v -0.029180 0.163898 0.062335
v 0.029128 0.314428 -0.062222
v 0.062222 0.314428 0.029128
v -0.029180 0.163898 -0.062335
v -0.029128 0.314428 -0.062222
v -0.029128 0.314428 0.062222
v -0.062335 0.163898 0.029180
v -0.062335 0.163898 -0.029180
v -0.062222 0.314428 -0.029128
v -0.062222 0.314428 0.029128

# 0 UV coordinates

# 58 vertex normals
vn 0.0179605 0 0.0179605
vn -0.0179605 0 -0.0179605
vn 0.0254 0 0
vn -0.0254 0 0
vn 0.013595 0.0165985 0.013595
vn -0.013595 -0.0165985 -0.013595
vn 0 0 0.0254
vn 0 -0 -0.0254
vn 0 -0.0254 0
vn 0 0.0254 0
vn 0.0192263 0.0165985 0
vn -0.0192263 -0.0165985 0
vn 0.0179605 0 -0.0179605
vn -0.0179605 0 0.0179605
vn 0 0.0165985 0.0192263
vn 0 -0.0165985 -0.0192263
vn 0.013595 0.0165985 -0.013595
vn -0.013595 -0.0165985 0.013595
vn -0.013595 0.0165985 0.013595
vn 0.013595 -0.0165985 -0.013595
vn -0.0192263 0.0165985 0
vn 0.0192263 -0.0165985 -0
vn -0.0122024 -0.0186377 -0.0122024
vn 0.0122024 0.0186377 0.0122024
vn -0.0172568 -0.0186377 0
vn 0.0172568 0.0186377 0
vn 0 0.0165985 -0.0192263
vn 0 -0.0165985 0.0192263
vn -0.0122024 -0.0186377 0.0122024
vn 0.0122024 0.0186377 -0.0122024
vn 0 -0.0186377 -0.0172568
vn 0 0.0186377 0.0172568
vn 0.0122024 -0.0186377 -0.0122024
vn -0.0122024 0.0186377 0.0122024
vn -0.013595 0.0165985 -0.013595
vn 0.013595 -0.0165985 0.013595
vn 0.0172568 -0.0186377 -0
vn -0.0172568 0.0186377 0
vn 0 -0.0186377 0.0172568
vn 0 0.0186377 -0.0172568
vn 0.0122024 -0.0186377 0.0122024
vn -0.0122024 0.0186377 -0.0122024
vn 0.0254 1.91008e-05 0
vn 0.0179605 1.98374e-05 0.0179605
vn 0.0179605 1.98374e-05 -0.0179605
vn 0 1.91008e-05 0.0254
vn 0 1.91008e-05 -0.0254
vn -0.0179605 1.98374e-05 0.0179605
vn -0.0179605 1.98374e-05 -0.0179605
vn -0.0254 1.91008e-05 0
vn -0.0254 -1.91008e-05 0
vn -0.0179605 -1.98374e-05 -0.0179605
vn -0.0179605 -1.98374e-05 0.0179605
vn -0 -1.91008e-05 -0.0254
vn 0 -1.91008e-05 0.0254
vn 0.0179605 -1.98374e-05 -0.0179605
vn 0.0179605 -1.98374e-05 0.0179605
vn 0.0254 -1.91008e-05 0

# Mesh 'mesh1_mesh1-geometry' with 492 faces
g mesh1_mesh1-geometry
usemtl material_0_24
f  1//1 2//1 3//1
f  2//1 1//1 4//1
f  3//2 2//2 1//2
f  4//2 1//2 2//2
f  5//3 3//3 2//3
f  2//4 3//4 5//4
f  6//5 1//5 3//5
f  3//6 1//6 6//6
f  1//7 7//7 4//7
f  4//8 7//8 1//8
f  8//9 2//9 4//9
f  4//10 2//10 8//10
f  3//3 5//3 9//3
f  9//4 5//4 3//4
f  2//9 8//9 5//9
f  5//10 8//10 2//10
f  1//5 6//5 10//5
f  10//6 6//6 1//6
f  3//11 11//11 6//11
f  6//12 11//12 3//12
f  7//7 1//7 12//7
f  12//8 1//8 7//8
f  13//9 4//9 7//9
f  7//10 4//10 13//10
f  8//9 4//9 13//9
f  13//10 4//10 8//10
f  14//13 9//13 5//13
f  5//14 9//14 14//14
f  11//11 3//11 9//11
f  9//12 3//12 11//12
f  15//9 5//9 8//9
f  8//10 5//10 15//10
f  11//10 10//10 6//10
f  6//9 10//9 11//9
f  10//15 12//15 1//15
f  1//16 12//16 10//16
f  16//14 7//14 12//14
f  12//13 7//13 16//13
f  13//9 7//9 17//9
f  17//10 7//10 13//10
f  13//2 18//2 8//2
f  8//1 18//1 13//1
f  9//13 14//13 19//13
f  19//14 14//14 9//14
f  5//9 15//9 14//9
f  14//10 15//10 5//10
f  19//17 11//17 9//17
f  9//18 11//18 19//18
f  8//4 20//4 15//4
f  15//3 20//3 8//3
f  10//10 11//10 21//10
f  21//9 11//9 10//9
f  12//15 10//15 22//15
f  22//16 10//16 12//16
f  7//14 16//14 23//14
f  23//13 16//13 7//13
f  12//19 24//19 16//19
f  16//20 24//20 12//20
f  17//9 7//9 25//9
f  25//10 7//10 17//10
f  26//8 13//8 17//8
f  17//7 13//7 26//7
f  18//2 13//2 27//2
f  27//1 13//1 18//1
f  20//4 8//4 18//4
f  18//3 8//3 20//3
f  14//8 28//8 19//8
f  19//7 28//7 14//7
f  14//9 15//9 29//9
f  29//10 15//10 14//10
f  11//17 19//17 30//17
f  30//18 19//18 11//18
f  31//14 15//14 20//14
f  20//13 15//13 31//13
f  11//10 32//10 21//10
f  21//9 32//9 11//9
f  10//10 21//10 33//10
f  33//9 21//9 10//9
f  10//10 33//10 22//10
f  22//9 33//9 10//9
f  24//19 12//19 22//19
f  22//20 12//20 24//20
f  34//4 23//4 16//4
f  16//3 23//3 34//3
f  25//9 7//9 23//9
f  23//10 7//10 25//10
f  35//21 16//21 24//21
f  24//22 16//22 35//22
f  36//13 17//13 25//13
f  25//14 17//14 36//14
f  13//8 26//8 27//8
f  27//7 26//7 13//7
f  17//13 36//13 26//13
f  26//14 36//14 17//14
f  27//23 37//23 18//23
f  18//24 37//24 27//24
f  27//9 20//9 18//9
f  18//10 20//10 27//10
f  37//25 20//25 18//25
f  18//26 20//26 37//26
f  28//8 14//8 38//8
f  38//7 14//7 28//7
f  39//27 19//27 28//27
f  28//28 19//28 39//28
f  15//14 31//14 29//14
f  29//13 31//13 15//13
f  14//9 29//9 38//9
f  38//10 29//10 14//10
f  19//27 39//27 30//27
f  30//28 39//28 19//28
f  32//10 11//10 30//10
f  30//9 11//9 32//9
f  20//9 27//9 31//9
f  31//10 27//10 20//10
f  40//29 31//29 20//29
f  20//30 31//30 40//30
f  41//4 32//4 21//4
f  21//3 32//3 41//3
f  32//4 37//4 21//4
f  21//3 37//3 32//3
f  33//2 41//2 21//2
f  21//1 41//1 33//1
f  21//2 42//2 33//2
f  33//1 42//1 21//1
f  22//10 33//10 43//10
f  43//9 33//9 22//9
f  22//10 44//10 24//10
f  24//9 44//9 22//9
f  23//4 34//4 45//4
f  45//3 34//3 23//3
f  16//21 35//21 34//21
f  34//22 35//22 16//22
f  25//9 23//9 46//9
f  46//10 23//10 25//10
f  44//10 35//10 24//10
f  24//9 35//9 44//9
f  46//3 36//3 25//3
f  25//4 36//4 46//4
f  26//31 42//31 27//31
f  27//32 42//32 26//32
f  31//9 27//9 26//9
f  26//10 27//10 31//10
f  47//33 26//33 36//33
f  36//34 26//34 47//34
f  48//9 26//9 36//9
f  36//10 26//10 48//10
f  37//23 27//23 42//23
f  42//24 27//24 37//24
f  20//25 37//25 40//25
f  40//26 37//26 20//26
f  45//2 28//2 38//2
f  38//1 28//1 45//1
f  28//35 35//35 39//35
f  39//36 35//36 28//36
f  31//7 49//7 29//7
f  29//8 49//8 31//8
f  38//9 29//9 49//9
f  49//10 29//10 38//10
f  50//10 30//10 39//10
f  39//9 30//9 50//9
f  32//10 30//10 50//10
f  50//9 30//9 32//9
f  31//29 40//29 51//29
f  51//30 40//30 31//30
f  32//4 41//4 52//4
f  52//3 41//3 32//3
f  37//4 32//4 40//4
f  40//3 32//3 37//3
f  42//2 21//2 37//2
f  37//1 21//1 42//1
f  41//2 33//2 53//2
f  53//1 33//1 41//1
f  42//8 43//8 33//8
f  33//7 43//7 42//7
f  54//8 33//8 43//8
f  43//7 33//7 54//7
f  22//10 43//10 44//10
f  44//9 43//9 22//9
f  28//2 45//2 34//2
f  34//1 45//1 28//1
f  45//9 46//9 23//9
f  23//10 46//10 45//10
f  35//35 28//35 34//35
f  34//36 28//36 35//36
f  55//10 35//10 44//10
f  44//9 35//9 55//9
f  36//3 46//3 56//3
f  56//4 46//4 36//4
f  42//31 26//31 57//31
f  57//32 26//32 42//32
f  31//9 26//9 48//9
f  48//10 26//10 31//10
f  26//33 47//33 57//33
f  57//34 47//34 26//34
f  36//37 58//37 47//37
f  47//38 58//38 36//38
f  48//9 36//9 56//9
f  56//10 36//10 48//10
f  37//10 59//10 42//10
f  42//9 59//9 37//9
f  59//10 37//10 40//10
f  40//9 37//9 59//9
f  38//9 46//9 45//9
f  45//10 46//10 38//10
f  55//10 39//10 35//10
f  35//9 39//9 55//9
f  49//7 31//7 48//7
f  48//8 31//8 49//8
f  38//9 49//9 46//9
f  46//10 49//10 38//10
f  50//10 39//10 60//10
f  60//9 39//9 50//9
f  52//14 50//14 32//14
f  32//13 50//13 52//13
f  50//14 40//14 32//14
f  32//13 40//13 50//13
f  40//14 50//14 51//14
f  51//13 50//13 40//13
f  61//10 40//10 51//10
f  51//9 40//9 61//9
f  51//39 48//39 31//39
f  31//40 48//40 51//40
f  52//9 62//9 41//9
f  41//10 62//10 52//10
f  33//8 54//8 53//8
f  53//7 54//7 33//7
f  41//9 63//9 53//9
f  53//10 63//10 41//10
f  43//8 42//8 57//8
f  57//7 42//7 43//7
f  43//13 64//13 54//13
f  54//14 64//14 43//14
f  64//13 43//13 44//13
f  44//14 43//14 64//14
f  43//13 47//13 44//13
f  44//14 47//14 43//14
f  65//3 44//3 55//3
f  55//4 44//4 65//4
f  44//3 58//3 55//3
f  55//4 58//4 44//4
f  49//1 56//1 46//1
f  46//2 56//2 49//2
f  58//37 36//37 56//37
f  56//38 36//38 58//38
f  42//10 66//10 57//10
f  57//9 66//9 42//9
f  57//10 67//10 47//10
f  47//9 67//9 57//9
f  47//13 43//13 57//13
f  57//14 43//14 47//14
f  47//10 67//10 58//10
f  58//9 67//9 47//9
f  58//3 44//3 47//3
f  47//4 44//4 58//4
f  48//41 58//41 56//41
f  56//42 58//42 48//42
f  56//1 49//1 48//1
f  48//2 49//2 56//2
f  42//10 59//10 66//10
f  66//9 59//9 42//9
f  40//10 61//10 59//10
f  59//9 61//9 40//9
f  60//10 39//10 55//10
f  55//9 39//9 60//9
f  68//7 60//7 50//7
f  50//8 60//8 68//8
f  69//7 50//7 60//7
f  60//8 50//8 69//8
f  50//14 52//14 68//14
f  68//13 52//13 50//13
f  50//7 69//7 51//7
f  51//8 69//8 50//8
f  61//10 51//10 70//10
f  70//9 51//9 61//9
f  48//39 51//39 69//39
f  69//40 51//40 48//40
f  62//9 52//9 71//9
f  71//10 52//10 62//10
f  72//9 41//9 62//9
f  62//10 41//10 72//10
f  53//9 73//9 54//9
f  54//10 73//10 53//10
f  41//9 72//9 63//9
f  63//10 72//10 41//10
f  53//9 63//9 73//9
f  73//10 63//10 53//10
f  54//9 73//9 64//9
f  64//10 73//10 54//10
f  44//3 65//3 64//3
f  64//4 65//4 44//4
f  55//1 74//1 65//1
f  65//2 74//2 55//2
f  58//1 60//1 55//1
f  55//2 60//2 58//2
f  57//10 66//10 75//10
f  75//9 66//9 57//9
f  57//10 75//10 67//10
f  67//9 75//9 57//9
f  76//10 58//10 67//10
f  67//9 58//9 76//9
f  58//41 48//41 69//41
f  69//42 48//42 58//42
f  66//2 77//2 59//2
f  59//1 77//1 66//1
f  61//3 77//3 59//3
f  59//4 77//4 61//4
f  74//1 55//1 60//1
f  60//2 55//2 74//2
f  60//7 68//7 74//7
f  74//8 68//8 60//8
f  60//1 58//1 69//1
f  69//2 58//2 60//2
f  71//9 52//9 68//9
f  68//10 52//10 71//10
f  70//10 51//10 69//10
f  69//9 51//9 70//9
f  61//14 78//14 70//14
f  70//13 78//13 61//13
f  71//13 79//13 62//13
f  62//14 79//14 71//14
f  62//3 80//3 72//3
f  72//4 80//4 62//4
f  72//1 81//1 63//1
f  63//2 81//2 72//2
f  81//7 73//7 63//7
f  63//8 73//8 81//8
f  64//9 73//9 82//9
f  82//10 73//10 64//10
f  64//9 82//9 65//9
f  65//10 82//10 64//10
f  83//9 74//9 65//9
f  65//10 74//10 83//10
f  84//8 66//8 75//8
f  75//7 66//7 84//7
f  67//13 84//13 75//13
f  75//14 84//14 67//14
f  76//10 69//10 58//10
f  58//9 69//9 76//9
f  76//3 85//3 67//3
f  67//4 85//4 76//4
f  77//2 66//2 86//2
f  86//1 66//1 77//1
f  77//3 61//3 87//3
f  87//4 61//4 77//4
f  83//9 68//9 74//9
f  74//10 68//10 83//10
f  71//9 68//9 83//9
f  83//10 68//10 71//10
f  70//10 69//10 88//10
f  88//9 69//9 70//9
f  78//14 61//14 87//14
f  87//13 61//13 78//13
f  78//7 88//7 70//7
f  70//8 88//8 78//8
f  79//13 71//13 89//13
f  89//14 71//14 79//14
f  80//3 62//3 79//3
f  79//4 62//4 80//4
f  81//1 72//1 80//1
f  80//2 72//2 81//2
f  73//7 81//7 90//7
f  90//8 81//8 73//8
f  73//14 91//14 82//14
f  82//13 91//13 73//13
f  92//9 65//9 82//9
f  82//10 65//10 92//10
f  83//9 65//9 92//9
f  92//10 65//10 83//10
f  66//8 84//8 86//8
f  86//7 84//7 66//7
f  84//13 67//13 85//13
f  85//14 67//14 84//14
f  88//10 69//10 76//10
f  76//9 69//9 88//9
f  85//3 76//3 93//3
f  93//4 76//4 85//4
f  94//10 77//10 86//10
f  86//9 77//9 94//9
f  95//10 87//10 77//10
f  77//9 87//9 95//9
f  96//8 71//8 83//8
f  83//7 71//7 96//7
f  87//10 97//10 78//10
f  78//9 97//9 87//9
f  88//7 78//7 98//7
f  98//8 78//8 88//8
f  71//8 96//8 89//8
f  89//7 96//7 71//7
f  99//10 79//10 89//10
f  89//9 79//9 99//9
f  100//10 80//10 79//10
f  79//9 80//9 100//9
f  80//10 100//10 81//10
f  81//9 100//9 80//9
f  81//10 101//10 90//10
f  90//9 101//9 81//9
f  91//14 73//14 90//14
f  90//13 73//13 91//13
f  102//4 82//4 91//4
f  91//3 82//3 102//3
f  82//4 102//4 92//4
f  92//3 102//3 82//3
f  102//2 83//2 92//2
f  92//1 83//1 102//1
f  103//10 86//10 84//10
f  84//9 86//9 103//9
f  103//10 84//10 85//10
f  85//9 84//9 103//9
f  98//1 76//1 88//1
f  88//2 76//2 98//2
f  76//1 98//1 93//1
f  93//2 98//2 76//2
f  93//10 104//10 85//10
f  85//9 104//9 93//9
f  105//10 77//10 94//10
f  94//9 77//9 105//9
f  94//10 86//10 103//10
f  103//9 86//9 94//9
f  87//10 95//10 97//10
f  97//9 95//9 87//9
f  77//10 105//10 95//10
f  95//9 105//9 77//9
f  83//2 102//2 96//2
f  96//1 102//1 83//1
f  78//10 97//10 106//10
f  106//9 97//9 78//9
f  78//10 106//10 98//10
f  98//9 106//9 78//9
f  107//10 89//10 96//10
f  96//9 89//9 107//9
f  79//10 99//10 100//10
f  100//9 99//9 79//9
f  99//10 89//10 107//10
f  107//9 89//9 99//9
f  81//10 100//10 101//10
f  101//9 100//9 81//9
f  90//10 101//10 108//10
f  108//9 101//9 90//9
f  90//10 109//10 91//10
f  91//9 109//9 90//9
f  91//10 109//10 102//10
f  102//9 109//9 91//9
f  103//10 85//10 110//10
f  110//9 85//9 103//9
f  98//10 106//10 93//10
f  93//9 106//9 98//9
f  93//10 106//10 104//10
f  104//9 106//9 93//9
f  110//10 85//10 104//10
f  104//9 85//9 110//9
f  94//2 100//2 105//2
f  105//1 100//1 94//1
f  108//8 94//8 103//8
f  103//7 94//7 108//7
f  99//14 97//14 95//14
f  95//13 97//13 99//13
f  100//4 95//4 105//4
f  105//3 95//3 100//3
f  111//10 96//10 102//10
f  102//9 96//9 111//9
f  107//7 106//7 97//7
f  97//8 106//8 107//8
f  107//10 96//10 112//10
f  112//9 96//9 107//9
f  95//4 100//4 99//4
f  99//3 100//3 95//3
f  97//14 99//14 107//14
f  107//13 99//13 97//13
f  100//2 94//2 101//2
f  101//1 94//1 100//1
f  94//8 108//8 101//8
f  101//7 108//7 94//7
f  90//10 108//10 109//10
f  109//9 108//9 90//9
f  111//10 102//10 109//10
f  109//9 102//9 111//9
f  109//13 103//13 110//13
f  110//14 103//14 109//14
f  112//1 104//1 106//1
f  106//2 104//2 112//2
f  111//3 110//3 104//3
f  104//4 110//4 111//4
f  103//13 109//13 108//13
f  108//14 109//14 103//14
f  112//10 96//10 111//10
f  111//9 96//9 112//9
f  106//7 107//7 112//7
f  112//8 107//8 106//8
f  110//3 111//3 109//3
f  109//4 111//4 110//4
f  104//1 112//1 111//1
f  111//2 112//2 104//2

# Mesh 'mesh2_mesh2-geometry' with 28 faces
g mesh2_mesh2-geometry
usemtl material_1_24
f  113//7 114//7 115//7
f  114//7 113//7 116//7
f  117//9 115//9 114//9
f  118//1 113//1 115//1
f  113//10 119//10 116//10
f  120//14 114//14 116//14
f  121//9 115//9 117//9
f  117//9 114//9 122//9
f  113//1 118//1 123//1
f  115//9 121//9 118//9
f  113//10 124//10 119//10
f  116//10 119//10 125//10
f  114//14 120//14 126//14
f  116//10 127//10 120//10
f  119//13 121//13 117//13
f  122//9 114//9 126//9
f  125//8 117//8 122//8
f  121//3 123//3 118//3
f  124//10 113//10 123//10
f  121//13 119//13 124//13
f  117//8 125//8 119//8
f  116//10 125//10 127//10
f  127//4 126//4 120//4
f  122//9 126//9 128//9
f  128//2 125//2 122//2
f  123//3 121//3 124//3
f  125//2 128//2 127//2
f  126//4 127//4 128//4

# Mesh 'mesh2_mesh2-geometry' with 28 faces
g mesh2_mesh2-geometry
usemtl material_0_24
f  115//8 114//8 113//8
f  116//8 113//8 114//8
f  114//10 115//10 117//10
f  115//2 113//2 118//2
f  116//9 119//9 113//9
f  116//13 114//13 120//13
f  117//10 115//10 121//10
f  122//10 114//10 117//10
f  123//2 118//2 113//2
f  118//10 121//10 115//10
f  119//9 124//9 113//9
f  125//9 119//9 116//9
f  126//13 120//13 114//13
f  120//9 127//9 116//9
f  117//14 121//14 119//14
f  126//10 114//10 122//10
f  122//7 117//7 125//7
f  118//4 123//4 121//4
f  123//9 113//9 124//9
f  124//14 119//14 121//14
f  119//7 125//7 117//7
f  127//9 125//9 116//9
f  120//3 126//3 127//3
f  128//10 126//10 122//10
f  122//1 125//1 128//1
f  124//4 121//4 123//4
f  127//1 128//1 125//1
f  128//3 127//3 126//3

# Mesh 'mesh3_mesh3-geometry' with 28 faces
g mesh3_mesh3-geometry
usemtl material_2_24
f  129//9 130//9 131//9
f  130//9 129//9 132//9
f  133//43 131//43 130//43
f  131//44 134//44 129//44
f  132//9 129//9 135//9
f  136//45 130//45 132//45
f  131//43 133//43 137//43
f  130//45 136//45 133//45
f  134//44 131//44 137//44
f  134//46 135//46 129//46
f  132//9 135//9 138//9
f  132//47 139//47 136//47
f  133//10 134//10 137//10
f  134//10 133//10 136//10
f  135//46 134//46 140//46
f  138//9 135//9 141//9
f  139//47 132//47 138//47
f  140//10 136//10 139//10
f  134//10 136//10 140//10
f  140//48 141//48 135//48
f  138//9 141//9 142//9
f  138//49 143//49 139//49
f  140//10 139//10 143//10
f  141//48 140//48 144//48
f  141//50 143//50 142//50
f  143//49 138//49 142//49
f  140//10 143//10 144//10
f  143//50 141//50 144//50

# Mesh 'mesh3_mesh3-geometry' with 28 faces
g mesh3_mesh3-geometry
usemtl material_3_24
f  131//10 130//10 129//10
f  132//10 129//10 130//10
f  130//51 131//51 133//51
f  129//52 134//52 131//52
f  135//10 129//10 132//10
f  132//53 130//53 136//53
f  137//51 133//51 131//51
f  133//53 136//53 130//53
f  137//52 131//52 134//52
f  129//54 135//54 134//54
f  138//10 135//10 132//10
f  136//55 139//55 132//55
f  137//9 134//9 133//9
f  136//9 133//9 134//9
f  140//54 134//54 135//54
f  141//10 135//10 138//10
f  138//55 132//55 139//55
f  139//9 136//9 140//9
f  140//9 136//9 134//9
f  135//56 141//56 140//56
f  142//10 141//10 138//10
f  139//57 143//57 138//57
f  143//9 139//9 140//9
f  144//56 140//56 141//56
f  142//58 143//58 141//58
f  142//57 138//57 143//57
f  144//9 143//9 140//9
f  144//58 141//58 143//58

