# File produced by Open Asset Import Library (http://www.assimp.sf.net)
# (assimp v3.2.202087883)

mtllib model_normalized.mtl

# 80 vertex positions
v -0.142937 0.284195 0.057683
v -0.038092 0.059200 -0.029268
v -0.119353 0.284195 -0.094609
v -0.045719 0.059200 0.019980
v 0.024327 0.284195 -0.150331
v -0.022840 0.284195 0.154253
v -0.006882 0.059200 0.051208
v 0.008370 0.059200 -0.047286
v -0.059477 0.059200 -0.080329
v -0.038092 0.003938 -0.029268
v 0.047207 0.059200 -0.016058
v -0.010264 0.059200 -0.099414
v -0.036127 0.059200 -0.093111
v -0.063155 0.059200 0.081428
v -0.038092 -0.003956 -0.029268
v 0.144425 0.284195 -0.053761
v 0.120841 0.284195 0.098531
v 0.039580 0.059200 0.033189
v 0.037614 0.059200 0.097033
v 0.047207 0.003938 -0.016058
v 0.041898 0.059200 -0.091336
v 0.008370 0.003938 -0.047286
v 0.016349 0.059200 -0.098809
v -0.036127 -0.003956 -0.093111
v -0.040410 0.059200 0.095258
v -0.078723 0.059200 -0.061938
v -0.045719 -0.003956 0.019980
v 0.060965 0.059200 0.084251
v 0.011751 0.059200 0.103336
v -0.045719 0.003938 0.019980
v 0.016349 -0.003956 -0.098809
v -0.010264 -0.003956 -0.099414
v -0.059477 -0.003956 -0.080329
v -0.014861 0.059200 0.102730
v -0.063155 -0.003956 0.081428
v -0.081546 0.059200 0.062182
v 0.008370 -0.003956 -0.047286
v 0.037614 -0.003956 0.097033
v 0.011751 -0.003956 0.103336
v 0.047207 -0.003956 -0.016058
v 0.064643 0.059200 -0.077506
v 0.041898 -0.003956 -0.091336
v -0.040410 -0.003956 0.095258
v -0.078723 -0.003956 -0.061938
v -0.092553 0.059200 -0.039194
v 0.060965 -0.003956 0.084251
v -0.014861 -0.003956 0.102730
v 0.080211 0.059200 0.065860
v 0.064643 -0.003956 -0.077506
v -0.081546 -0.003956 0.062182
v -0.092553 -0.003956 -0.039194
v -0.094328 0.059200 0.038831
v 0.083033 0.059200 -0.058260
v -0.100026 -0.003956 -0.013644
v -0.100026 0.059200 -0.013644
v 0.080211 -0.003956 0.065860
v 0.094041 0.059200 0.043115
v 0.083033 -0.003956 -0.058260
v -0.094328 -0.003956 0.038831
v -0.100631 0.059200 0.012969
v 0.094041 -0.003956 0.043115
v 0.095816 0.059200 -0.034910
v -0.100631 -0.003956 0.012969
v 0.101514 0.059200 0.017566
v 0.101514 -0.003956 0.017566
v 0.095816 -0.003956 -0.034910
v 0.102119 0.059200 -0.009047
v 0.102119 -0.003956 -0.009047
v 0.075239 0.003938 0.180363
v 0.192318 -0.568298 0.027027
v 0.192318 0.003938 0.027027
v 0.075239 -0.568298 0.180363
v 0.118065 -0.568298 -0.151034
v 0.118065 0.003938 -0.151034
v -0.116093 -0.568298 0.155637
v -0.073267 0.003938 -0.175760
v -0.116093 0.003938 0.155637
v -0.073267 -0.568298 -0.175760
v -0.190346 0.003938 -0.022425
v -0.190346 -0.568298 -0.022425

# 78 UV coordinates
vt 0 0 0
vt 2.60198 0.913127 0
vt 2.80262 0.434023 0
vt 2.67353 1.37521 0
vt 2.16602 0.744055 0
vt 2.34086 0.254944 0
vt 2.58353 0.314088 0
vt 2.83714 1.95177 0
vt 1.89162 2.09819 0
vt 1.80162 1.03707 0
vt 1.85143 0.330737 0
vt 2.09116 0.260623 0
vt 2.5 -0 0
vt 2.75 0.592593 0
vt 2.5 0.592593 0
vt 2.62373 2.08154 0
vt 2.98321 0.606577 0
vt 1.67253 1.97826 0
vt 2.13429 2.15734 0
vt 2 0 0
vt 2.25 0.592593 0
vt 2 0.592593 0
vt 2.25 0 0
vt 2.75 -0 0
vt 2.384 2.15166 0
vt 4.5 -0 0
vt 4.75 0.592593 0
vt 4.5 0.592593 0
vt 3 0.592593 0
vt 3.0097 1.77119 0
vt 5.5 0 0
vt 5.75 0.592593 0
vt 5.5 0.592593 0
vt 5.25 0 0
vt 5.25 0.592593 0
vt 1.63802 0.460509 0
vt 1.75 0 0
vt 1.75 0.592593 0
vt 4.75 0 0
vt 5 0.592593 0
vt 4.25 0.592593 0
vt 3 0 0
vt 3.11298 0.81999 0
vt 5.75 0 0
vt 5 -0 0
vt 1.49195 1.8057 0
vt 1.5 0 0
vt 1.5 0.592593 0
vt 4.25 0 0
vt 3.25 0 0
vt 3.25 0.592593 0
vt 3.12963 1.55209 0
vt 6 0.592593 0
vt 1.46546 0.641094 0
vt 1.25 0.592593 0
vt 4 0.592593 0
vt 3.5 -0 0
vt 3.18309 1.05972 0
vt 6 -0 0
vt 1.36218 1.59229 0
vt 1.25 0 0
vt 4 0 0
vt 3.5 0.592593 0
vt 3.18877 1.30942 0
vt 0.25 0 0
vt 0 0.592593 0
vt 1.34553 0.860186 0
vt 0.25 0.592593 0
vt 1 0.592593 0
vt 3.75 0.592593 0
vt 3.75 0 0
vt 1.29206 1.35256 0
vt 0.5 0 0
vt 1 0 0
vt 1.28638 1.10285 0
vt 0.5 0.592593 0
vt 0.75 0.592593 0
vt 0.75 -0 0

# 44 vertex normals
vn 0.0232946 0.00946089 0.00360736
vn 0.00852322 0.00946089 0.0219774
vn -0 -0.0254 0
vn 0.0147714 0.00946089 -0.01837
vn 0 0.0254 0
vn 0.0251008 0 0.00388706
vn -0.0251008 0 -0.00388706
vn 0.00918411 0 0.0236815
vn -0.00918411 0 -0.0236815
vn -0.0147714 0.00946089 0.01837
vn -0.00852322 0.00946089 -0.0219774
vn -0.0159167 0 0.0197944
vn 0.0159167 -0 -0.0197944
vn 0.0150004 0 0.0204975
vn -0.0232946 0.00946089 -0.00360736
vn -0.00388706 0 0.0251008
vn 0.00274196 0 0.0252516
vn 0.0102512 -0 -0.0232395
vn 0.0197944 0 0.0159167
vn -0.0150004 0 -0.0204975
vn -0.00274196 0 -0.0252516
vn -0.0102512 0 0.0232395
vn 0.00388706 -0 -0.0251008
vn 0.0204975 -0 -0.0150004
vn 0.0232395 0 0.0102512
vn -0.0197944 0 -0.0159167
vn -0.0204975 0 0.0150004
vn 0.0236815 -0 -0.00918411
vn -0.0232395 0 -0.0102512
vn -0.0236815 0 0.00918411
vn 0.0252516 -0 -0.00274196
vn -0.0252516 0 0.00274196
vn -0.0232946 -0.00946089 -0.00360736
vn -0.00852322 -0.00946089 -0.0219774
vn -0.0147714 -0.00946089 0.01837
vn 0.0147714 -0.00946089 -0.01837
vn 0.00852322 -0.00946089 0.0219774
vn 0.0232946 -0.00946089 0.00360736
vn 0.0201879 0 0.0154145
vn 0.0234433 0 -0.00977603
vn -0.00325537 0 0.0251905
vn 0.00325537 0 -0.0251905
vn -0.0234433 0 0.00977603
vn -0.0201879 0 -0.0154145

# Mesh 'mesh1_mesh1-geometry' with 184 faces
g mesh1_mesh1-geometry
usemtl material_0_24
f  1/1/1 2/1/1 3/1/1
f  2/1/1 1/1/1 4/1/1
f  2/1/2 5/1/2 3/1/2
f  3/1/3 6/1/3 1/1/3
f  1/1/4 7/1/4 4/1/4
f  4/1/5 8/1/5 2/1/5
f  2/1/3 8/1/3 4/1/3
f  4/1/3 9/1/3 2/1/3
f  4/1/6 10/1/6 2/1/6
f  2/1/7 10/1/7 4/1/7
f  5/1/2 2/1/2 8/1/2
f  5/1/3 6/1/3 3/1/3
f  7/1/4 1/1/4 6/1/4
f  8/1/5 4/1/5 11/1/5
f  11/1/3 4/1/3 8/1/3
f  2/1/3 12/1/3 8/1/3
f  10/1/8 8/1/8 2/1/8
f  2/1/9 8/1/9 10/1/9
f  9/1/3 13/1/3 2/1/3
f  9/1/3 4/1/3 14/1/3
f  10/1/6 4/1/6 15/1/6
f  15/1/7 4/1/7 10/1/7
f  8/1/10 16/1/10 5/1/10
f  5/1/3 17/1/3 6/1/3
f  6/1/11 18/1/11 7/1/11
f  4/1/3 11/1/3 19/1/3
f  20/1/9 4/1/9 11/1/9
f  11/1/8 4/1/8 20/1/8
f  16/1/10 8/1/10 11/1/10
f  8/1/3 21/1/3 11/1/3
f  22/1/12 11/1/12 8/1/12
f  8/1/13 11/1/13 22/1/13
f  12/1/3 23/1/3 8/1/3
f  13/1/3 12/1/3 2/1/3
f  10/1/8 22/1/8 8/1/8
f  8/1/9 22/1/9 10/1/9
f  13/1/8 9/1/14 24/1/8
f  14/1/3 4/1/3 25/1/3
f  26/1/3 9/1/3 14/1/3
f  15/1/6 4/1/6 27/1/6
f  27/1/7 4/1/7 15/1/7
f  15/1/8 22/1/8 10/1/8
f  10/1/9 22/1/9 15/1/9
f  17/1/3 5/1/3 16/1/3
f  18/1/11 6/1/11 17/1/11
f  28/1/3 19/1/3 11/1/3
f  29/1/3 4/1/3 19/1/3
f  20/1/9 30/1/9 4/1/9
f  4/1/8 30/1/8 20/1/8
f  22/1/12 20/1/12 11/1/12
f  11/1/13 20/1/13 22/1/13
f  11/1/15 17/1/15 16/1/15
f  11/1/3 21/1/3 28/1/3
f  23/1/3 21/1/3 8/1/3
f  23/1/16 12/1/17 31/1/16
f  12/1/17 13/1/8 32/1/17
f  33/1/14 24/1/8 9/1/14
f  24/1/8 32/1/17 13/1/8
f  25/1/3 4/1/3 34/1/3
f  14/1/13 25/1/18 35/1/13
f  9/1/14 26/1/19 33/1/14
f  36/1/3 26/1/3 14/1/3
f  27/1/6 4/1/6 30/1/6
f  30/1/7 4/1/7 27/1/7
f  33/1/3 15/1/3 27/1/3
f  27/1/5 15/1/5 33/1/5
f  22/1/8 15/1/8 37/1/8
f  37/1/9 15/1/9 22/1/9
f  17/1/15 11/1/15 18/1/15
f  19/1/9 28/1/20 38/1/9
f  34/1/3 4/1/3 29/1/3
f  29/1/21 19/1/9 39/1/21
f  40/1/9 30/1/9 20/1/9
f  20/1/8 30/1/8 40/1/8
f  37/1/12 20/1/12 22/1/12
f  22/1/13 20/1/13 37/1/13
f  21/1/3 41/1/3 28/1/3
f  21/1/22 23/1/16 42/1/22
f  32/1/17 31/1/16 12/1/17
f  31/1/16 42/1/22 23/1/16
f  24/1/3 15/1/3 33/1/3
f  33/1/5 15/1/5 24/1/5
f  32/1/3 15/1/3 24/1/3
f  24/1/5 15/1/5 32/1/5
f  25/1/18 34/1/23 43/1/18
f  43/1/18 35/1/13 25/1/18
f  14/1/13 35/1/13 36/1/24
f  44/1/19 33/1/14 26/1/19
f  45/1/3 26/1/3 36/1/3
f  30/1/9 40/1/9 27/1/9
f  27/1/8 40/1/8 30/1/8
f  27/1/3 35/1/3 33/1/3
f  33/1/5 35/1/5 27/1/5
f  32/1/3 37/1/3 15/1/3
f  15/1/5 37/1/5 32/1/5
f  46/1/20 38/1/9 28/1/20
f  38/1/9 39/1/21 19/1/9
f  34/1/23 29/1/21 47/1/23
f  39/1/21 47/1/23 29/1/21
f  20/1/12 37/1/12 40/1/12
f  40/1/13 37/1/13 20/1/13
f  28/1/3 41/1/3 48/1/3
f  41/1/12 21/1/22 49/1/12
f  42/1/22 49/1/12 21/1/22
f  31/1/3 37/1/3 32/1/3
f  32/1/5 37/1/5 31/1/5
f  42/1/3 37/1/3 31/1/3
f  31/1/5 37/1/5 42/1/5
f  47/1/23 43/1/18 34/1/23
f  27/1/3 43/1/3 35/1/3
f  35/1/5 43/1/5 27/1/5
f  50/1/24 36/1/24 35/1/13
f  33/1/3 35/1/3 44/1/3
f  44/1/5 35/1/5 33/1/5
f  44/1/19 26/1/19 51/1/25
f  45/1/25 51/1/25 26/1/19
f  52/1/3 45/1/3 36/1/3
f  40/1/3 38/1/3 27/1/3
f  27/1/5 38/1/5 40/1/5
f  38/1/3 40/1/3 46/1/3
f  46/1/5 40/1/5 38/1/5
f  28/1/20 48/1/26 46/1/20
f  27/1/3 38/1/3 39/1/3
f  39/1/5 38/1/5 27/1/5
f  27/1/3 39/1/3 47/1/3
f  47/1/5 39/1/5 27/1/5
f  42/1/3 40/1/3 37/1/3
f  37/1/5 40/1/5 42/1/5
f  41/1/3 53/1/3 48/1/3
f  41/1/12 49/1/12 53/1/27
f  49/1/3 46/1/3 42/1/3
f  42/1/5 46/1/5 49/1/5
f  27/1/3 47/1/3 43/1/3
f  43/1/5 47/1/5 27/1/5
f  36/1/24 50/1/24 52/1/28
f  44/1/3 35/1/3 50/1/3
f  50/1/5 35/1/5 44/1/5
f  44/1/3 50/1/3 51/1/3
f  51/1/5 50/1/5 44/1/5
f  51/1/25 45/1/25 54/1/6
f  55/1/3 45/1/3 52/1/3
f  42/1/3 46/1/3 40/1/3
f  40/1/5 46/1/5 42/1/5
f  56/1/26 46/1/20 48/1/26
f  48/1/3 53/1/3 57/1/3
f  58/1/27 53/1/27 49/1/12
f  49/1/3 56/1/3 46/1/3
f  46/1/5 56/1/5 49/1/5
f  59/1/28 52/1/28 50/1/24
f  51/1/3 50/1/3 59/1/3
f  59/1/5 50/1/5 51/1/5
f  55/1/6 54/1/6 45/1/25
f  51/1/3 59/1/3 54/1/3
f  54/1/5 59/1/5 51/1/5
f  60/1/3 55/1/3 52/1/3
f  56/1/26 48/1/26 61/1/29
f  53/1/3 62/1/3 57/1/3
f  57/1/29 61/1/29 48/1/26
f  53/1/27 58/1/27 62/1/30
f  58/1/3 56/1/3 49/1/3
f  49/1/5 56/1/5 58/1/5
f  52/1/28 59/1/28 60/1/31
f  54/1/6 55/1/6 63/1/31
f  54/1/3 59/1/3 63/1/3
f  63/1/5 59/1/5 54/1/5
f  60/1/31 63/1/31 55/1/6
f  58/1/3 61/1/3 56/1/3
f  56/1/5 61/1/5 58/1/5
f  57/1/3 62/1/3 64/1/3
f  61/1/29 57/1/29 65/1/7
f  66/1/30 62/1/30 58/1/27
f  63/1/31 60/1/31 59/1/28
f  66/1/3 61/1/3 58/1/3
f  58/1/5 61/1/5 66/1/5
f  67/1/3 64/1/3 62/1/3
f  64/1/7 65/1/7 57/1/29
f  66/1/3 65/1/3 61/1/3
f  61/1/5 65/1/5 66/1/5
f  62/1/30 66/1/30 67/1/32
f  67/1/32 68/1/32 64/1/7
f  65/1/7 64/1/7 68/1/32
f  65/1/3 66/1/3 68/1/3
f  68/1/5 66/1/5 65/1/5
f  68/1/32 67/1/32 66/1/30

# Mesh 'mesh1_mesh1-geometry' with 16 faces
g mesh1_mesh1-geometry
usemtl material_1_24
f  3/1/33 2/1/33 1/1/33
f  4/1/33 1/1/33 2/1/33
f  3/1/34 5/1/34 2/1/34
f  1/1/5 6/1/5 3/1/5
f  4/1/35 7/1/35 1/1/35
f  8/1/34 2/1/34 5/1/34
f  3/1/5 6/1/5 5/1/5
f  6/1/35 1/1/35 7/1/35
f  5/1/36 16/1/36 8/1/36
f  6/1/5 17/1/5 5/1/5
f  7/1/37 18/1/37 6/1/37
f  11/1/36 8/1/36 16/1/36
f  16/1/5 5/1/5 17/1/5
f  17/1/37 6/1/37 18/1/37
f  16/1/38 17/1/38 11/1/38
f  18/1/38 11/1/38 17/1/38

# Mesh 'mesh1_mesh1-geometry' with 76 faces
g mesh1_mesh1-geometry
usemtl material_2_1_8
f  2/2/5 9/3/5 4/4/5
f  8/5/5 12/6/5 2/2/5
f  2/2/5 13/7/5 9/3/5
f  14/8/5 4/4/5 9/3/5
f  19/9/5 11/10/5 4/4/5
f  11/10/5 21/11/5 8/5/5
f  8/5/5 23/12/5 12/6/5
f  2/2/5 12/6/5 13/7/5
f  24/13/9 9/14/20 13/15/9
f  25/16/5 4/4/5 14/8/5
f  14/8/5 9/3/5 26/17/5
f  11/10/5 19/9/5 28/18/5
f  19/9/5 4/4/5 29/19/5
f  28/18/5 21/11/5 11/10/5
f  8/5/5 21/11/5 23/12/5
f  31/20/23 12/21/21 23/22/23
f  32/23/21 13/15/9 12/21/21
f  9/14/20 24/13/9 33/24/20
f  13/15/9 32/23/21 24/13/9
f  34/25/5 4/4/5 25/16/5
f  35/26/12 25/27/22 14/28/12
f  33/24/20 26/29/26 9/14/20
f  14/8/5 26/17/5 36/30/5
f  38/31/8 28/32/14 19/33/8
f  29/19/5 4/4/5 34/25/5
f  39/34/17 19/33/8 29/35/17
f  28/18/5 41/36/5 21/11/5
f  42/37/18 23/22/23 21/38/18
f  12/21/21 31/20/23 32/23/21
f  23/22/23 42/37/18 31/20/23
f  43/39/22 34/40/16 25/27/22
f  25/27/22 35/26/12 43/39/22
f  36/41/27 35/26/12 14/28/12
f  26/29/26 33/24/20 44/42/26
f  36/30/5 26/17/5 45/43/5
f  28/32/14 38/31/8 46/44/14
f  19/33/8 39/34/17 38/31/8
f  47/45/16 29/35/17 34/40/16
f  29/35/17 47/45/16 39/34/17
f  48/46/5 41/36/5 28/18/5
f  49/47/13 21/38/18 41/48/13
f  21/38/18 49/47/13 42/37/18
f  34/40/16 43/39/22 47/45/16
f  35/26/12 36/41/27 50/49/27
f  51/50/29 26/29/26 44/42/26
f  26/29/26 51/50/29 45/51/29
f  36/30/5 45/43/5 52/52/5
f  46/44/14 48/53/19 28/32/14
f  48/46/5 53/54/5 41/36/5
f  53/55/24 49/47/13 41/48/13
f  52/56/30 50/49/27 36/41/27
f  54/57/7 45/51/29 51/50/29
f  52/52/5 45/43/5 55/58/5
f  48/53/19 46/44/14 56/59/19
f  57/60/5 53/54/5 48/46/5
f  49/47/13 53/55/24 58/61/24
f  50/49/27 52/56/30 59/62/30
f  45/51/29 54/57/7 55/63/7
f  52/52/5 55/58/5 60/64/5
f  61/65/25 48/66/19 56/1/19
f  57/60/5 62/67/5 53/54/5
f  48/66/19 61/65/25 57/68/25
f  62/69/28 58/61/24 53/55/24
f  60/70/32 59/62/30 52/56/30
f  63/71/32 55/63/7 54/57/7
f  55/63/7 63/71/32 60/70/32
f  64/72/5 62/67/5 57/60/5
f  65/73/6 57/68/25 61/65/25
f  58/61/24 62/69/28 66/74/28
f  59/62/30 60/70/32 63/71/32
f  62/67/5 64/72/5 67/75/5
f  57/68/25 65/73/6 64/76/6
f  67/77/31 66/74/28 62/69/28
f  64/76/6 68/78/31 67/77/31
f  68/78/31 64/76/6 65/73/6
f  66/74/28 67/77/31 68/78/31

# Mesh 'mesh2_mesh2-geometry' with 20 faces
g mesh2_mesh2-geometry
usemtl material_1_24
f  69//39 70//39 71//39
f  70//39 69//39 72//39
f  73//40 71//40 70//40
f  74//5 69//5 71//5
f  69//41 75//41 72//41
f  72//3 73//3 70//3
f  71//40 73//40 74//40
f  69//5 74//5 76//5
f  75//41 69//41 77//41
f  78//3 72//3 75//3
f  73//3 72//3 78//3
f  73//42 76//42 74//42
f  69//5 76//5 77//5
f  79//43 75//43 77//43
f  78//3 75//3 80//3
f  76//42 73//42 78//42
f  77//5 76//5 79//5
f  75//43 79//43 80//43
f  80//44 76//44 78//44
f  76//44 80//44 79//44

# Mesh 'mesh2_mesh2-geometry' with 20 faces
g mesh2_mesh2-geometry
usemtl material_0_24
f  71//44 70//44 69//44
f  72//44 69//44 70//44
f  70//43 71//43 73//43
f  71//3 69//3 74//3
f  72//42 75//42 69//42
f  70//5 73//5 72//5
f  74//43 73//43 71//43
f  76//3 74//3 69//3
f  77//42 69//42 75//42
f  75//5 72//5 78//5
f  78//5 72//5 73//5
f  74//41 76//41 73//41
f  77//3 76//3 69//3
f  77//40 75//40 79//40
f  80//5 75//5 78//5
f  78//41 73//41 76//41
f  79//3 76//3 77//3
f  80//40 79//40 75//40
f  78//39 76//39 80//39
f  79//39 80//39 76//39

# Mesh 'mesh3_mesh3-geometry' with 14 faces
g mesh3_mesh3-geometry
usemtl material_0_0
l  7 8
l  8 22
l  22 37
l  15 37
l  37 40
l  27 15
l  10 15
l  27 40
l  20 40
l  30 27
l  2 10
l  11 20
l  4 30
l  18 2

# Mesh 'mesh4_mesh4-geometry' with 24 faces
g mesh4_mesh4-geometry
usemtl material_0_0
l  56 61
l  46 56
l  61 65
l  38 46
l  65 68
l  39 38
l  68 66
l  47 39
l  66 58
l  43 47
l  58 49
l  35 43
l  49 42
l  50 35
l  42 31
l  59 50
l  31 32
l  63 59
l  32 24
l  54 63
l  24 33
l  51 54
l  33 44
l  44 51

