# File produced by Open Asset Import Library (http://www.assimp.sf.net)
# (assimp v3.2.202087883)

mtllib model_normalized.mtl

# 96 vertex positions
v 0.073651 0.228748 0.019735
v 0.198102 -0.076249 0.114374
v 0.220954 -0.076249 0.059204
v 0.066034 0.228748 0.038125
v 0.198102 -0.457496 0.114374
v 0.076249 0.228748 0.000000
v 0.161749 -0.076249 0.161749
v 0.220954 -0.457496 0.059204
v 0.161749 -0.457496 0.161749
v 0.228748 -0.076249 0.000000
v 0.053916 0.228748 0.053916
v 0.073651 0.228748 -0.019735
v 0.114374 -0.076249 0.198102
v 0.228748 -0.457496 0.000000
v 0.220954 -0.076249 -0.059204
v 0.038125 0.228748 0.066034
v 0.114374 -0.457496 0.198102
v -0.220954 -0.076249 0.059204
v -0.228748 -0.457496 0.000000
v -0.220954 -0.457496 0.059204
v -0.198102 -0.076249 0.114374
v -0.198102 -0.457496 0.114374
v -0.161749 -0.076249 0.161749
v -0.161749 -0.457496 0.161749
v 0.066034 0.228748 -0.038125
v 0.059204 -0.076249 0.220954
v -0.228748 -0.076249 0.000000
v 0.220954 -0.457496 -0.059204
v -0.114374 -0.457496 0.198102
v 0.198102 -0.076249 -0.114374
v 0.019735 0.228748 0.073651
v 0.059204 -0.457496 0.220954
v -0.220954 -0.457496 -0.059204
v -0.073651 0.228748 0.019735
v -0.066034 0.228748 0.038125
v -0.053916 0.228748 0.053916
v -0.114374 -0.076249 0.198102
v 0.053916 0.228748 -0.053916
v -0.076249 0.228748 0.000000
v -0.220954 -0.076249 -0.059204
v -0.073651 0.228748 -0.019735
v -0.000000 0.228748 0.076249
v -0.000000 -0.076249 0.228748
v 0.198102 -0.457496 -0.114374
v -0.059204 -0.457496 0.220954
v 0.161749 -0.076249 -0.161749
v -0.198102 -0.076249 -0.114374
v -0.066034 0.228748 -0.038125
v -0.038125 0.228748 0.066034
v -0.000000 -0.457496 0.228748
v -0.198102 -0.457496 -0.114374
v -0.059204 -0.076249 0.220954
v 0.114374 -0.076249 -0.198102
v -0.161749 -0.076249 -0.161749
v -0.019735 0.228748 0.073651
v 0.161749 -0.457496 -0.161749
v 0.038125 0.228748 -0.066034
v 0.114374 -0.457496 -0.198102
v -0.053916 0.228748 -0.053916
v -0.161749 -0.457496 -0.161749
v 0.059204 -0.076249 -0.220954
v 0.059204 -0.457496 -0.220954
v -0.114374 -0.076249 -0.198102
v 0.019735 0.228748 -0.073651
v -0.038125 0.228748 -0.066034
v -0.114374 -0.457496 -0.198102
v -0.000000 0.228748 -0.076249
v -0.000000 -0.457496 -0.228748
v -0.059204 -0.076249 -0.220954
v -0.059204 -0.457496 -0.220954
v -0.000000 -0.076249 -0.228748
v -0.019735 0.228748 -0.073651
v 0.073651 0.304997 0.019735
v 0.076249 0.304997 0.000000
v 0.066034 0.304997 0.038125
v 0.073651 0.304997 -0.019735
v -0.066034 0.304997 0.038125
v -0.073651 0.304997 0.019735
v -0.076249 0.304997 0.000000
v -0.053916 0.304997 0.053916
v 0.053916 0.304997 0.053916
v 0.066034 0.304997 -0.038125
v -0.073651 0.304997 -0.019735
v 0.038125 0.304997 0.066034
v -0.038125 0.304997 0.066034
v 0.019735 0.304997 0.073651
v 0.053916 0.304997 -0.053916
v -0.066034 0.304997 -0.038125
v -0.019735 0.304997 0.073651
v -0.000000 0.304997 0.076249
v -0.053916 0.304997 -0.053916
v 0.038125 0.304997 -0.066034
v -0.038125 0.304997 -0.066034
v 0.019735 0.304997 -0.073651
v -0.019735 0.304997 -0.073651
v -0.000000 0.304997 -0.076249

# 0 UV coordinates

# 74 vertex normals
vn 0.021025 0.0112813 0.00870882
vn 0.021997 0 0.0127
vn 0.0245345 0 0.006574
vn 0.0225626 0.0112813 0.00297043
vn 0.0180545 0.0112813 0.0138537
vn 0.0179605 0 0.0179605
vn 0.0254 0 0
vn 0.0225626 0.0112813 -0.00297043
vn 0.0138537 0.0112813 0.0180545
vn 0.0127 0 0.021997
vn -0.0245345 0 0.006574
vn -0.0254 0 0
vn -0.021997 0 0.0127
vn 0.0245345 0 -0.006574
vn -0.0179605 0 0.0179605
vn 0.021025 0.0112813 -0.00870882
vn 0.00870882 0.0112813 0.021025
vn 0.006574 0 0.0245345
vn -0.0127 0 0.021997
vn -0.0245345 0 -0.006574
vn -0.0225626 0.0112813 0.00297043
vn -0.021025 0.0112813 0.00870882
vn -0.0180545 0.0112813 0.0138537
vn 0.021997 0 -0.0127
vn 0.0180545 0.0112813 -0.0138537
vn -0.0225626 0.0112813 -0.00297043
vn 0.00297043 0.0112813 0.0225626
vn 0 0 0.0254
vn -0.0138537 0.0112813 0.0180545
vn -0.006574 0 0.0245345
vn -0.021025 0.0112813 -0.00870882
vn -0.021997 0 -0.0127
vn 0.0179605 0 -0.0179605
vn 0.0138537 0.0112813 -0.0180545
vn -0.0180545 0.0112813 -0.0138537
vn -0.00870882 0.0112813 0.021025
vn -0.00297043 0.0112813 0.0225626
vn 0.0127 0 -0.021997
vn -0.0179605 0 -0.0179605
vn 0.00870882 0.0112813 -0.021025
vn 0.006574 0 -0.0245345
vn -0.0138537 0.0112813 -0.0180545
vn -0.0127 0 -0.021997
vn 0.00297043 0.0112813 -0.0225626
vn 0 0 -0.0254
vn -0.00870882 0.0112813 -0.021025
vn -0.006574 0 -0.0245345
vn -0.00297043 0.0112813 -0.0225626
vn -0.021025 -0.0112813 -0.00870882
vn -0.0225626 -0.0112813 -0.00297043
vn -0.0180545 -0.0112813 -0.0138537
vn 0 -0.0254 0
vn 0 0.0254 0
vn -0.0225626 -0.0112813 0.00297043
vn -0.0138537 -0.0112813 -0.0180545
vn -0.021025 -0.0112813 0.00870882
vn -0.00870882 -0.0112813 -0.021025
vn 0.0225626 -0.0112813 -0.00297043
vn 0.021025 -0.0112813 -0.00870882
vn 0.0180545 -0.0112813 -0.0138537
vn -0.0180545 -0.0112813 0.0138537
vn 0.0225626 -0.0112813 0.00297043
vn -0.00297043 -0.0112813 -0.0225626
vn 0.0138537 -0.0112813 -0.0180545
vn 0.021025 -0.0112813 0.00870882
vn -0.0138537 -0.0112813 0.0180545
vn 0.0180545 -0.0112813 0.0138537
vn 0.00870882 -0.0112813 -0.021025
vn 0.00297043 -0.0112813 -0.0225626
vn -0.00870882 -0.0112813 0.021025
vn 0.0138537 -0.0112813 0.0180545
vn -0.00297043 -0.0112813 0.0225626
vn 0.00870882 -0.0112813 0.021025
vn 0.00297043 -0.0112813 0.0225626

# Mesh 'mesh1_mesh1-geometry' with 96 faces
g mesh1_mesh1-geometry
usemtl material_0_24
f  1//1 2//1 3//1
f  2//1 1//1 4//1
f  5//2 3//3 2//2
f  3//4 6//4 1//4
f  4//5 7//5 2//5
f  3//3 5//2 8//3
f  2//2 9//6 5//2
f  6//4 3//4 10//4
f  7//5 4//5 11//5
f  9//6 2//2 7//6
f  8//3 10//7 3//3
f  10//8 12//8 6//8
f  11//9 13//9 7//9
f  13//10 9//6 7//6
f  10//7 8//3 14//7
f  12//8 10//8 15//8
f  13//9 11//9 16//9
f  9//6 13//10 17//10
f  18//11 19//12 20//11
f  21//13 20//11 22//13
f  14//7 15//14 10//7
f  23//15 22//13 24//15
f  15//16 25//16 12//16
f  16//17 26//17 13//17
f  26//18 17//10 13//10
f  19//12 18//11 27//12
f  20//11 21//13 18//11
f  22//13 23//15 21//13
f  15//14 14//7 28//14
f  29//19 23//15 24//15
f  25//16 15//16 30//16
f  26//17 16//17 31//17
f  17//10 26//18 32//18
f  27//12 33//20 19//12
f  34//21 27//21 18//21
f  35//22 18//22 21//22
f  36//23 21//23 23//23
f  28//14 30//24 15//14
f  23//15 29//19 37//19
f  30//25 38//25 25//25
f  18//22 35//22 34//22
f  27//21 34//21 39//21
f  21//23 36//23 35//23
f  40//26 39//26 41//26
f  42//27 26//27 31//27
f  43//28 32//18 26//18
f  33//20 27//12 40//20
f  37//29 36//29 23//29
f  30//24 28//14 44//24
f  45//30 37//19 29//19
f  38//25 30//25 46//25
f  47//31 41//31 48//31
f  39//26 40//26 27//26
f  36//29 37//29 49//29
f  41//31 47//31 40//31
f  26//27 42//27 43//27
f  32//18 43//28 50//28
f  40//20 51//32 33//20
f  44//24 46//33 30//24
f  37//19 45//30 52//30
f  53//34 38//34 46//34
f  48//35 54//35 47//35
f  52//36 49//36 37//36
f  49//36 52//36 55//36
f  51//32 40//20 47//32
f  55//37 43//37 42//37
f  52//30 50//28 43//28
f  46//33 44//24 56//33
f  50//28 52//30 45//30
f  38//34 53//34 57//34
f  46//33 58//38 53//38
f  54//35 48//35 59//35
f  60//39 47//32 54//39
f  43//37 55//37 52//37
f  47//32 60//39 51//32
f  58//38 46//33 56//33
f  61//40 57//40 53//40
f  62//41 53//38 58//38
f  59//42 63//42 54//42
f  63//43 60//39 54//39
f  57//40 61//40 64//40
f  53//38 62//41 61//41
f  63//42 59//42 65//42
f  60//39 63//43 66//43
f  61//44 67//44 64//44
f  68//45 61//41 62//41
f  65//46 69//46 63//46
f  69//47 66//43 63//43
f  66//43 69//47 70//47
f  67//44 61//44 71//44
f  61//41 68//45 71//45
f  70//47 71//45 68//45
f  69//46 65//46 72//46
f  71//45 70//47 69//47
f  71//48 72//48 67//48
f  72//48 71//48 69//48

# Mesh 'mesh1_mesh1-geometry' with 210 faces
g mesh1_mesh1-geometry
usemtl material_1_24
f  3//49 2//49 1//49
f  4//49 1//49 2//49
f  2//32 3//20 5//32
f  1//50 6//50 3//50
f  1//20 4//32 73//20
f  2//51 7//51 4//51
f  8//20 5//32 3//20
f  5//32 9//39 2//32
f  10//50 3//50 6//50
f  6//12 1//20 74//12
f  75//32 73//20 4//32
f  73//20 74//12 1//20
f  11//51 4//51 7//51
f  7//39 2//32 9//39
f  20//52 8//52 5//52
f  5//53 8//53 20//53
f  3//20 10//12 8//20
f  22//52 5//52 9//52
f  9//53 5//53 22//53
f  6//54 12//54 10//54
f  74//12 76//11 6//12
f  75//52 77//52 73//52
f  4//32 11//39 75//32
f  73//52 78//52 74//52
f  7//55 13//55 11//55
f  7//39 9//39 13//43
f  19//52 8//52 20//52
f  20//53 8//53 19//53
f  20//52 5//52 22//52
f  22//53 5//53 20//53
f  14//12 8//20 10//12
f  22//52 9//52 24//52
f  24//53 9//53 22//53
f  15//54 10//54 12//54
f  12//11 6//12 76//11
f  74//52 79//52 76//52
f  77//52 78//52 73//52
f  80//52 77//52 75//52
f  81//39 75//32 11//39
f  78//52 79//52 74//52
f  16//55 11//55 13//55
f  17//43 13//43 9//39
f  19//52 14//52 8//52
f  8//53 14//53 19//53
f  20//14 19//7 18//14
f  22//24 20//14 21//24
f  10//12 15//11 14//12
f  24//52 9//52 17//52
f  17//53 9//53 24//53
f  24//33 22//24 23//33
f  12//56 25//56 15//56
f  76//11 82//13 12//11
f  79//52 83//52 76//52
f  78//14 77//24 34//14
f  77//24 80//33 35//24
f  81//52 80//52 75//52
f  81//39 11//39 84//43
f  79//7 78//14 39//7
f  16//43 84//43 11//39
f  13//57 26//57 16//57
f  13//43 17//43 26//47
f  33//52 14//52 19//52
f  19//53 14//53 33//53
f  27//7 18//14 19//7
f  18//14 21//24 20//14
f  21//24 23//33 22//24
f  28//11 14//12 15//11
f  24//52 17//52 29//52
f  29//53 17//53 24//53
f  24//33 23//33 29//38
f  30//56 15//56 25//56
f  25//13 12//11 82//13
f  76//52 83//52 82//52
f  83//3 79//7 41//3
f  35//24 34//14 77//24
f  34//14 39//7 78//14
f  36//33 35//24 80//33
f  85//52 80//52 81//52
f  84//52 85//52 81//52
f  39//7 41//3 79//7
f  84//43 16//43 86//47
f  31//57 16//57 26//57
f  32//47 26//47 17//43
f  33//52 28//52 14//52
f  14//53 28//53 33//53
f  19//7 33//3 27//7
f  18//58 27//58 34//58
f  21//59 18//59 35//59
f  23//60 21//60 36//60
f  15//11 30//13 28//11
f  29//52 17//52 32//52
f  32//53 17//53 29//53
f  37//38 29//38 23//33
f  25//61 38//61 30//61
f  82//13 87//15 25//13
f  83//52 88//52 82//52
f  41//3 48//2 83//3
f  34//59 35//59 18//59
f  39//58 34//58 27//58
f  35//60 36//60 21//60
f  36//33 80//33 49//38
f  85//38 49//38 80//33
f  89//52 85//52 84//52
f  41//62 39//62 40//62
f  31//47 86//47 16//43
f  86//52 89//52 84//52
f  31//63 26//63 42//63
f  26//47 32//47 43//45
f  51//52 28//52 33//52
f  33//53 28//53 51//53
f  40//3 27//7 33//3
f  23//64 36//64 37//64
f  44//13 28//11 30//13
f  29//52 32//52 45//52
f  45//53 32//53 29//53
f  29//38 37//38 45//41
f  46//61 30//61 38//61
f  38//15 25//13 87//15
f  82//52 88//52 87//52
f  88//2 83//3 48//2
f  48//65 41//65 47//65
f  27//62 40//62 39//62
f  49//64 37//64 36//64
f  49//38 85//38 55//41
f  89//41 55//41 85//38
f  40//65 47//65 41//65
f  86//47 31//47 90//45
f  90//52 89//52 86//52
f  43//63 42//63 26//63
f  42//45 90//45 31//47
f  50//45 43//45 32//47
f  51//52 44//52 28//52
f  28//53 44//53 51//53
f  33//3 51//2 40//3
f  30//13 46//15 44//13
f  45//52 32//52 50//52
f  50//53 32//53 45//53
f  52//41 45//41 37//38
f  46//66 38//66 53//66
f  38//15 87//15 57//19
f  88//52 91//52 87//52
f  48//2 59//6 88//2
f  47//67 54//67 48//67
f  37//68 49//68 52//68
f  55//68 52//68 49//68
f  55//41 89//41 42//45
f  47//2 40//3 51//2
f  90//45 42//45 89//41
f  42//69 43//69 55//69
f  43//45 50//45 52//41
f  60//52 44//52 51//52
f  51//53 44//53 60//53
f  56//15 44//13 46//15
f  45//41 52//41 50//45
f  57//66 53//66 38//66
f  53//19 58//19 46//15
f  92//19 57//19 87//15
f  87//52 91//52 92//52
f  91//6 88//2 59//6
f  59//67 48//67 54//67
f  54//6 47//2 60//6
f  52//69 55//69 43//69
f  51//2 60//6 47//2
f  60//52 56//52 44//52
f  44//53 56//53 60//53
f  56//15 46//15 58//19
f  53//70 57//70 61//70
f  58//19 53//19 62//30
f  57//19 92//19 64//30
f  91//52 93//52 92//52
f  91//6 59//6 93//10
f  54//71 63//71 59//71
f  54//6 60//6 63//10
f  66//52 56//52 60//52
f  60//53 56//53 66//53
f  66//52 58//52 56//52
f  56//53 58//53 66//53
f  64//70 61//70 57//70
f  61//30 62//30 53//19
f  70//52 62//52 58//52
f  58//53 62//53 70//53
f  94//30 64//30 92//19
f  92//52 93//52 94//52
f  65//10 93//10 59//6
f  65//71 59//71 63//71
f  66//10 63//10 60//6
f  70//52 58//52 66//52
f  66//53 58//53 70//53
f  64//72 67//72 61//72
f  62//30 61//30 68//28
f  62//52 70//52 68//52
f  68//53 70//53 62//53
f  64//30 94//30 67//28
f  93//52 95//52 94//52
f  93//10 65//10 95//18
f  63//73 69//73 65//73
f  63//10 66//10 69//18
f  70//18 69//18 66//10
f  71//72 61//72 67//72
f  71//28 68//28 61//30
f  68//28 71//28 70//18
f  96//28 67//28 94//30
f  96//52 94//52 95//52
f  72//18 95//18 65//10
f  72//73 65//73 69//73
f  69//18 70//18 71//28
f  67//74 72//74 71//74
f  67//28 96//28 72//18
f  95//18 72//18 96//28
f  69//74 71//74 72//74

# Mesh 'mesh1_mesh1-geometry' with 70 faces
g mesh1_mesh1-geometry
usemtl material_2_24
f  73//3 4//2 1//3
f  74//7 1//3 6//7
f  4//2 73//3 75//2
f  1//3 74//7 73//3
f  6//7 76//14 74//7
f  73//53 77//53 75//53
f  75//2 11//6 4//2
f  74//53 78//53 73//53
f  76//14 6//7 12//14
f  76//53 79//53 74//53
f  73//53 78//53 77//53
f  75//53 77//53 80//53
f  11//6 75//2 81//6
f  74//53 79//53 78//53
f  12//14 82//24 76//14
f  76//53 83//53 79//53
f  34//11 77//13 78//11
f  35//13 80//15 77//13
f  75//53 80//53 81//53
f  84//10 11//6 81//6
f  39//12 78//11 79//12
f  11//6 84//10 16//10
f  82//24 12//14 25//24
f  82//53 83//53 76//53
f  41//20 79//12 83//20
f  77//13 34//11 35//13
f  78//11 39//12 34//11
f  80//15 35//13 36//15
f  81//53 80//53 85//53
f  81//53 85//53 84//53
f  79//12 41//20 39//12
f  86//18 16//10 84//10
f  25//24 87//33 82//24
f  82//53 88//53 83//53
f  83//20 48//32 41//20
f  49//19 80//15 36//15
f  80//15 49//19 85//19
f  84//53 85//53 89//53
f  16//10 86//18 31//18
f  84//53 89//53 86//53
f  87//33 25//24 38//33
f  87//53 88//53 82//53
f  48//32 83//20 88//32
f  55//30 85//19 49//19
f  85//19 55//30 89//30
f  90//28 31//18 86//18
f  86//53 89//53 90//53
f  31//18 90//28 42//28
f  57//38 87//33 38//33
f  87//53 91//53 88//53
f  88//32 59//39 48//32
f  42//28 89//30 55//30
f  89//30 42//28 90//28
f  87//33 57//38 92//38
f  92//53 91//53 87//53
f  59//39 88//32 91//39
f  64//41 92//38 57//38
f  92//53 93//53 91//53
f  93//43 59//39 91//39
f  92//38 64//41 94//41
f  94//53 93//53 92//53
f  59//39 93//43 65//43
f  67//45 94//41 64//41
f  94//53 95//53 93//53
f  95//47 65//43 93//43
f  94//41 67//45 96//45
f  95//53 94//53 96//53
f  65//43 95//47 72//47
f  72//47 96//45 67//45
f  96//45 72//47 95//47

# Mesh 'mesh2_mesh2-geometry' with 16 faces
g mesh2_mesh2-geometry
usemtl material_1_0
l  14 8
l  28 14
l  8 5
l  44 28
l  5 9
l  56 44
l  9 17
l  58 56
l  17 32
l  62 58
l  32 50
l  68 62
l  50 45
l  70 68
l  45 29
l  66 70

