# File produced by Open Asset Import Library (http://www.assimp.sf.net)
# (assimp v3.2.202087883)

mtllib model_normalized.mtl

# 112 vertex positions
v -0.240019 -0.612555 -0.031094
v -0.229112 -0.612555 -0.029682
v -0.140254 -0.612555 0.183578
v -0.093083 -0.612555 -0.223417
v -0.140254 -0.137332 0.183578
v 0.088863 -0.612555 0.213255
v -0.146931 -0.612555 0.192317
v -0.240019 -0.137332 -0.031094
v -0.088853 -0.612555 -0.213265
v -0.229112 -0.137332 -0.029682
v 0.093093 -0.612555 0.223406
v -0.093083 -0.137332 -0.223417
v 0.140265 -0.612555 -0.183589
v -0.088853 -0.137332 -0.213265
v 0.088863 -0.137332 0.213255
v 0.229123 -0.612555 0.029671
v 0.240030 -0.612555 0.031084
v 0.093093 -0.137332 0.223406
v -0.146931 -0.137332 0.192317
v -0.103781 0.011641 -0.013448
v 0.146942 -0.612555 -0.192328
v 0.140265 -0.137332 -0.183589
v 0.240030 -0.137332 0.031084
v -0.063530 0.011641 0.083155
v -0.040246 0.011641 -0.096608
v 0.146942 -0.137332 -0.192328
v 0.229123 -0.137332 0.029671
v 0.040257 0.011641 0.096598
v 0.103792 0.011641 0.013438
v -0.103781 0.103383 -0.013448
v 0.040257 0.103383 0.096598
v -0.040246 0.103383 -0.096608
v 0.063540 0.011641 -0.083166
v -0.063530 0.103383 0.083155
v 0.103792 0.103383 0.013438
v -0.067263 0.103383 -0.027704
v -0.072101 0.103383 0.009641
v -0.027694 0.103383 0.067263
v 0.044412 0.103383 0.057617
v -0.072140 0.103383 -0.009350
v -0.057802 0.103383 -0.044171
v 0.063540 0.103383 -0.083166
v -0.067147 0.103383 0.027975
v -0.044160 0.103383 0.057802
v -0.009339 0.103383 0.072140
v 0.027985 0.103383 0.067147
v 0.051113 0.103383 0.050889
v -0.051401 0.103383 -0.050599
v -0.009641 0.103383 -0.072111
v -0.057617 0.103383 0.044402
v 0.067158 0.103383 -0.027985
v 0.009652 0.103383 0.072101
v 0.057813 0.103383 0.044160
v -0.044402 0.103383 -0.057628
v -0.027975 0.103383 -0.067158
v 0.009350 0.103383 -0.072151
v 0.057628 0.103383 -0.044412
v 0.072111 0.103383 -0.009652
v 0.067274 0.103383 0.027694
v 0.027704 0.103383 -0.067274
v 0.044171 0.103383 -0.057813
v 0.072151 0.103383 0.009339
v -0.067263 0.142364 -0.027704
v -0.067263 0.084762 -0.027704
v -0.072140 0.142364 -0.009350
v -0.072140 0.084762 -0.009350
v -0.072101 0.142364 0.009641
v -0.072101 0.084762 0.009641
v -0.044160 0.142364 0.057802
v -0.044160 0.084762 0.057802
v -0.009339 0.142364 0.072140
v -0.009339 0.084762 0.072140
v 0.044412 0.142364 0.057617
v 0.044412 0.084762 0.057617
v 0.057813 0.142364 0.044160
v 0.051113 0.084762 0.050889
v -0.057802 0.142364 -0.044171
v -0.057802 0.084762 -0.044171
v -0.067147 0.142364 0.027975
v -0.067147 0.084762 0.027975
v -0.057617 0.142364 0.044402
v -0.057617 0.084762 0.044402
v -0.027694 0.142364 0.067263
v -0.027694 0.084762 0.067263
v 0.009652 0.142364 0.072101
v 0.009652 0.084762 0.072101
v 0.027985 0.142364 0.067147
v 0.027985 0.084762 0.067147
v 0.057813 0.084762 0.044160
v -0.051401 0.084762 -0.050599
v -0.027975 0.142364 -0.067158
v -0.027975 0.084762 -0.067158
v -0.009641 0.142364 -0.072111
v -0.009641 0.084762 -0.072111
v 0.067158 0.142364 -0.027985
v 0.067158 0.084762 -0.027985
v 0.072111 0.142364 -0.009652
v 0.072111 0.084762 -0.009652
v -0.044402 0.142364 -0.057628
v 0.067274 0.142364 0.027694
v 0.067274 0.084762 0.027694
v 0.009350 0.084762 -0.072151
v -0.044402 0.084762 -0.057628
v 0.009350 0.142364 -0.072151
v 0.057628 0.142364 -0.044412
v 0.057628 0.084762 -0.044412
v 0.072151 0.142364 0.009339
v 0.072151 0.084762 0.009339
v 0.027704 0.142364 -0.067274
v 0.027704 0.084762 -0.067274
v 0.044171 0.142364 -0.057813
v 0.044171 0.084762 -0.057813

# 86 UV coordinates
vt 0 0 0
vt 0.398377 36.4423 0
vt -0.398377 38.4265 0
vt -0.398377 36.4423 0
vt 17.8303 0.947867 0
vt 17.8303 0 0
vt 17.0386 0.947867 0
vt 0.398377 38.4265 0
vt 18.6219 0.947867 0
vt 17.0386 0 0
vt 16.2469 0.947867 0
vt 16.2469 0 0
vt 15.4553 0.947867 0
vt 13.8719 0.947867 0
vt 13.8719 0 0
vt 13.0803 0.947867 0
vt 12.2886 0.947867 0
vt 12.2886 -0 0
vt 9.9136 0.947867 0
vt 10.7053 0.947867 0
vt 9.9136 -0 0
vt 0 36.4423 0
vt 9.51777 0.947867 0
vt 9.51777 -0 0
vt 18.6219 -0 0
vt 0.017777 36.4423 0
vt 19 0.947867 0
vt 15.4553 0 0
vt 14.6636 0.947867 0
vt 14.6636 0 0
vt 13.0803 0 0
vt 11.4969 0.947867 0
vt 11.4969 -0 0
vt 10.7053 0 0
vt 9.12193 0.947867 0
vt 9.12193 0 0
vt -2.64318 1.8515 0
vt -2.64318 -1.8515 0
vt -2.15815 2.61842 0
vt -2.15815 -2.61842 0
vt -1.52604 3.20689 0
vt 19 -0 0
vt 0 0.947867 0
vt 0.413598 0.947867 0
vt 1.20527 0.947867 0
vt 1.99693 0.947867 0
vt 1.20527 0 0
vt 2.7886 0.947867 0
vt 1.99693 0 0
vt -2.94809 0.958407 0
vt -2.94809 -0.958407 0
vt -3.05208 -0 0
vt 5.95527 0.947867 0
vt 5.95527 -0 0
vt 5.1636 0.947867 0
vt 6.74693 0.947867 0
vt 6.74693 0 0
vt -1.52604 -3.20689 0
vt -0.789937 3.57683 0
vt -0.789937 -3.57683 0
vt -1.17441 3.38361 0
vt 0 3.703 0
vt 0 -3.703 0
vt 0.789937 -3.57683 0
vt 0.789937 3.57683 0
vt 1.52604 -3.20689 0
vt 1.15799 -3.39186 0
vt 8.33027 0.947867 0
vt 8.33027 -0 0
vt 1.52604 3.20689 0
vt 0.413598 -0 0
vt 2.7886 0 0
vt 3.58027 0.947867 0
vt 5.1636 0 0
vt 4.37193 0.947867 0
vt 7.5386 0.947867 0
vt 7.5386 0 0
vt 2.15815 -2.61842 0
vt 3.58027 0 0
vt 4.37193 -0 0
vt 2.94809 0.958407 0
vt 2.94809 -0.958407 0
vt 3.05208 -0 0
vt 2.64318 1.8515 0
vt 2.64318 -1.8515 0
vt 2.15815 2.61842 0

# 40 vertex normals
vn 0 -0.0254 -0
vn 0 0.0254 0
vn 0.0234462 0 -0.00976923
vn -0.0234462 0 0.00976923
vn -0.0201835 0 -0.0154203
vn 0.0201835 0 0.0154203
vn 0.00326268 0 -0.0251896
vn -0.00326268 -0 0.0251896
vn -0.0157713 0.0158504 -0.0120494
vn 0.0157713 -0.0158504 0.0120494
vn -0.0183208 0.0158504 0.00763366
vn 0.0183208 -0.0158504 -0.00763366
vn -0.00254944 0.0158504 0.0196831
vn 0.00254944 -0.0158504 -0.0196831
vn 0.0157713 0.0158504 0.0120494
vn -0.0157713 -0.0158504 -0.0120494
vn 0.00254944 0.0158504 -0.0196831
vn -0.00254944 -0.0158504 0.0196831
vn 0.0183208 0.0158504 -0.00763366
vn -0.0183208 -0.0158504 0.00763366
vn -0.0251896 0 -0.00326268
vn -0.0234868 0 -0.00967105
vn -0.0251757 0 0.00336804
vn -0.00967105 0 0.0234868
vn -0.0154203 0 0.0201835
vn 0.0155047 0 0.0201188
vn 0.00976923 0 0.0234462
vn 0.017998 0 0.0179229
vn -0.017998 0 -0.0179229
vn -0.0201188 0 0.0155047
vn 0.00336804 0 0.0251757
vn -0.0155047 0 -0.0201188
vn -0.00976923 0 -0.0234462
vn -0.00336804 0 -0.0251757
vn 0.0201188 0 -0.0155047
vn 0.0251757 0 -0.00336804
vn 0.0234868 0 0.00967105
vn 0.00967105 0 -0.0234868
vn 0.0154203 0 -0.0201835
vn 0.0251896 0 0.00326268

# Mesh 'mesh1_mesh1-geometry' with 216 faces
g mesh1_mesh1-geometry
usemtl material_0_24
f  1/1/1 2/1/1 3/1/1
f  2/1/1 1/1/1 4/1/1
f  3/1/2 2/1/2 1/1/2
f  4/1/2 1/1/2 2/1/2
f  2/1/3 5/1/3 3/1/3
f  3/1/4 5/1/4 2/1/4
f  2/1/1 6/1/1 3/1/1
f  3/1/2 6/1/2 2/1/2
f  3/1/1 7/1/1 1/1/1
f  1/1/2 7/1/2 3/1/2
f  8/1/5 4/1/5 1/1/5
f  1/1/6 4/1/6 8/1/6
f  2/1/1 4/1/1 9/1/1
f  9/1/2 4/1/2 2/1/2
f  5/1/3 2/1/3 10/1/3
f  10/1/4 2/1/4 5/1/4
f  5/1/7 6/1/7 3/1/7
f  3/1/8 6/1/8 5/1/8
f  6/1/1 2/1/1 9/1/1
f  9/1/2 2/1/2 6/1/2
f  11/1/1 3/1/1 6/1/1
f  6/1/2 3/1/2 11/1/2
f  7/1/1 3/1/1 11/1/1
f  11/1/2 3/1/2 7/1/2
f  7/1/4 8/1/4 1/1/4
f  1/1/3 8/1/3 7/1/3
f  4/1/5 8/1/5 12/1/5
f  12/1/6 8/1/6 4/1/6
f  9/1/1 4/1/1 13/1/1
f  13/1/2 4/1/2 9/1/2
f  14/1/6 2/1/6 9/1/6
f  9/1/5 2/1/5 14/1/5
f  2/1/6 14/1/6 10/1/6
f  10/1/5 14/1/5 2/1/5
f  10/1/2 8/1/2 5/1/2
f  5/1/1 8/1/1 10/1/1
f  6/1/7 5/1/7 15/1/7
f  15/1/8 5/1/8 6/1/8
f  6/1/1 9/1/1 16/1/1
f  16/1/2 9/1/2 6/1/2
f  11/1/1 6/1/1 17/1/1
f  17/1/2 6/1/2 11/1/2
f  18/1/8 7/1/8 11/1/8
f  11/1/7 7/1/7 18/1/7
f  8/1/4 7/1/4 19/1/4
f  19/1/3 7/1/3 8/1/3
f  8/1/2 10/1/2 12/1/2
f  12/1/1 10/1/1 8/1/1
f  20/1/9 12/1/9 8/1/9
f  8/1/10 12/1/10 20/1/10
f  12/1/7 21/1/7 4/1/7
f  4/1/8 21/1/8 12/1/8
f  13/1/1 4/1/1 21/1/1
f  21/1/2 4/1/2 13/1/2
f  16/1/1 9/1/1 13/1/1
f  13/1/2 9/1/2 16/1/2
f  22/1/8 9/1/8 13/1/8
f  13/1/7 9/1/7 22/1/7
f  9/1/8 22/1/8 14/1/8
f  14/1/7 22/1/7 9/1/7
f  12/1/2 10/1/2 14/1/2
f  14/1/1 10/1/1 12/1/1
f  19/1/2 5/1/2 8/1/2
f  8/1/1 5/1/1 19/1/1
f  5/1/2 18/1/2 15/1/2
f  15/1/1 18/1/1 5/1/1
f  15/1/5 16/1/5 6/1/5
f  6/1/6 16/1/6 15/1/6
f  17/1/1 6/1/1 16/1/1
f  16/1/2 6/1/2 17/1/2
f  23/1/6 11/1/6 17/1/6
f  17/1/5 11/1/5 23/1/5
f  7/1/8 18/1/8 19/1/8
f  19/1/7 18/1/7 7/1/7
f  11/1/6 23/1/6 18/1/6
f  18/1/5 23/1/5 11/1/5
f  24/1/11 8/1/11 19/1/11
f  19/1/12 8/1/12 24/1/12
f  12/1/9 20/1/9 25/1/9
f  25/1/10 20/1/10 12/1/10
f  8/1/11 24/1/11 20/1/11
f  20/1/12 24/1/12 8/1/12
f  21/1/7 12/1/7 26/1/7
f  26/1/8 12/1/8 21/1/8
f  13/1/1 21/1/1 17/1/1
f  17/1/2 21/1/2 13/1/2
f  17/1/1 16/1/1 13/1/1
f  13/1/2 16/1/2 17/1/2
f  16/1/4 22/1/4 13/1/4
f  13/1/3 22/1/3 16/1/3
f  12/1/2 14/1/2 22/1/2
f  22/1/1 14/1/1 12/1/1
f  5/1/2 19/1/2 18/1/2
f  18/1/1 19/1/1 5/1/1
f  15/1/2 18/1/2 23/1/2
f  23/1/1 18/1/1 15/1/1
f  16/1/5 15/1/5 27/1/5
f  27/1/6 15/1/6 16/1/6
f  21/1/3 23/1/3 17/1/3
f  17/1/4 23/1/4 21/1/4
f  28/1/13 19/1/13 18/1/13
f  18/1/14 19/1/14 28/1/14
f  29/1/15 18/1/15 23/1/15
f  23/1/16 18/1/16 29/1/16
f  19/1/13 28/1/13 24/1/13
f  24/1/14 28/1/14 19/1/14
f  30/1/5 25/1/5 20/1/5
f  20/1/6 25/1/6 30/1/6
f  25/1/17 26/1/17 12/1/17
f  12/1/18 26/1/18 25/1/18
f  24/1/4 30/1/4 20/1/4
f  20/1/3 30/1/3 24/1/3
f  12/1/2 22/1/2 26/1/2
f  26/1/1 22/1/1 12/1/1
f  23/1/3 21/1/3 26/1/3
f  26/1/4 21/1/4 23/1/4
f  22/1/4 16/1/4 27/1/4
f  27/1/3 16/1/3 22/1/3
f  15/1/2 23/1/2 27/1/2
f  27/1/1 23/1/1 15/1/1
f  18/1/15 29/1/15 28/1/15
f  28/1/16 29/1/16 18/1/16
f  26/1/19 29/1/19 23/1/19
f  23/1/20 29/1/20 26/1/20
f  31/1/8 24/1/8 28/1/8
f  28/1/7 24/1/7 31/1/7
f  25/1/5 30/1/5 32/1/5
f  32/1/6 30/1/6 25/1/6
f  26/1/17 25/1/17 33/1/17
f  33/1/18 25/1/18 26/1/18
f  30/1/4 24/1/4 34/1/4
f  34/1/3 24/1/3 30/1/3
f  26/1/2 22/1/2 23/1/2
f  23/1/1 22/1/1 26/1/1
f  27/1/2 23/1/2 22/1/2
f  22/1/1 23/1/1 27/1/1
f  35/1/6 28/1/6 29/1/6
f  29/1/5 28/1/5 35/1/5
f  29/1/19 26/1/19 33/1/19
f  33/1/20 26/1/20 29/1/20
f  24/1/8 31/1/8 34/1/8
f  34/1/7 31/1/7 24/1/7
f  28/1/6 35/1/6 31/1/6
f  31/1/5 35/1/5 28/1/5
f  30/1/2 36/1/2 32/1/2
f  32/1/1 36/1/1 30/1/1
f  32/1/7 33/1/7 25/1/7
f  25/1/8 33/1/8 32/1/8
f  37/1/2 30/1/2 34/1/2
f  34/1/1 30/1/1 37/1/1
f  33/1/3 35/1/3 29/1/3
f  29/1/4 35/1/4 33/1/4
f  38/1/2 34/1/2 31/1/2
f  31/1/1 34/1/1 38/1/1
f  39/1/2 31/1/2 35/1/2
f  35/1/1 31/1/1 39/1/1
f  36/1/2 30/1/2 40/1/2
f  40/1/1 30/1/1 36/1/1
f  32/1/2 36/1/2 41/1/2
f  41/1/1 36/1/1 32/1/1
f  33/1/7 32/1/7 42/1/7
f  42/1/8 32/1/8 33/1/8
f  40/1/2 30/1/2 37/1/2
f  37/1/1 30/1/1 40/1/1
f  37/1/2 34/1/2 43/1/2
f  43/1/1 34/1/1 37/1/1
f  35/1/3 33/1/3 42/1/3
f  42/1/4 33/1/4 35/1/4
f  44/1/2 34/1/2 38/1/2
f  38/1/1 34/1/1 44/1/1
f  38/1/2 31/1/2 45/1/2
f  45/1/1 31/1/1 38/1/1
f  46/1/2 31/1/2 39/1/2
f  39/1/1 31/1/1 46/1/1
f  39/1/2 35/1/2 47/1/2
f  47/1/1 35/1/1 39/1/1
f  32/1/2 41/1/2 48/1/2
f  48/1/1 41/1/1 32/1/1
f  32/1/2 49/1/2 42/1/2
f  42/1/1 49/1/1 32/1/1
f  34/1/2 50/1/2 43/1/2
f  43/1/1 50/1/1 34/1/1
f  42/1/2 51/1/2 35/1/2
f  35/1/1 51/1/1 42/1/1
f  50/1/2 34/1/2 44/1/2
f  44/1/1 34/1/1 50/1/1
f  45/1/2 31/1/2 52/1/2
f  52/1/1 31/1/1 45/1/1
f  52/1/2 31/1/2 46/1/2
f  46/1/1 31/1/1 52/1/1
f  47/1/2 35/1/2 53/1/2
f  53/1/1 35/1/1 47/1/1
f  32/1/2 48/1/2 54/1/2
f  54/1/1 48/1/1 32/1/1
f  32/1/2 55/1/2 49/1/2
f  49/1/1 55/1/1 32/1/1
f  42/1/2 49/1/2 56/1/2
f  56/1/1 49/1/1 42/1/1
f  42/1/2 57/1/2 51/1/2
f  51/1/1 57/1/1 42/1/1
f  58/1/2 35/1/2 51/1/2
f  51/1/1 35/1/1 58/1/1
f  53/1/2 35/1/2 59/1/2
f  59/1/1 35/1/1 53/1/1
f  32/1/2 54/1/2 55/1/2
f  55/1/1 54/1/1 32/1/1
f  42/1/2 56/1/2 60/1/2
f  60/1/1 56/1/1 42/1/1
f  42/1/2 61/1/2 57/1/2
f  57/1/1 61/1/1 42/1/1
f  62/1/2 35/1/2 58/1/2
f  58/1/1 35/1/1 62/1/1
f  59/1/2 35/1/2 62/1/2
f  62/1/1 35/1/1 59/1/1
f  42/1/2 60/1/2 61/1/2
f  61/1/1 60/1/1 42/1/1

# Mesh 'mesh1_mesh1-geometry' with 148 faces
g mesh1_mesh1-geometry
usemtl material_1_1_8
f  40/2/21 63/3/22 36/4/22
f  36/5/22 64/6/22 40/7/21
f  63/8/22 41/4/5 36/2/22
f  36/5/22 41/9/5 64/6/22
f  37/2/23 65/3/21 40/4/21
f  40/7/21 66/10/21 37/11/23
f  43/2/4 67/3/23 37/4/23
f  37/11/23 68/12/23 43/13/4
f  38/2/24 69/3/25 44/4/25
f  44/14/25 70/15/25 38/16/24
f  71/8/8 38/4/24 45/2/8
f  45/17/8 38/16/24 72/18/8
f  73/8/26 46/4/27 39/2/26
f  39/19/26 46/20/27 74/21/26
f  47/22/28 75/8/6 39/4/26
f  47/23/28 39/19/26 76/24/28
f  63/3/22 40/2/21 65/8/21
f  66/10/21 40/7/21 64/6/22
f  41/4/5 63/8/22 77/3/5
f  78/25/5 64/6/22 41/9/5
f  77/8/5 48/26/29 41/2/5
f  41/9/5 48/27/29 78/25/5
f  65/3/21 37/2/23 67/8/23
f  68/12/23 37/11/23 66/10/21
f  50/2/30 79/3/4 43/4/4
f  43/13/4 80/28/4 50/29/30
f  67/3/23 43/2/4 79/8/4
f  80/28/4 43/13/4 68/12/23
f  44/2/25 81/3/30 50/4/30
f  50/29/30 82/30/30 44/14/25
f  69/3/25 38/2/24 83/8/24
f  81/3/30 44/2/25 69/8/25
f  84/31/24 38/16/24 70/15/25
f  70/15/25 44/14/25 82/30/30
f  85/8/31 45/4/8 52/2/31
f  52/32/31 45/17/8 86/33/31
f  38/4/24 71/8/8 83/3/24
f  45/4/8 85/8/31 71/3/8
f  84/31/24 72/18/8 38/16/24
f  72/18/8 86/33/31 45/17/8
f  87/8/27 52/4/31 46/2/27
f  46/20/27 52/32/31 88/34/27
f  46/4/27 73/8/26 87/3/27
f  39/4/26 75/8/6 73/3/26
f  88/34/27 74/21/26 46/20/27
f  74/21/26 76/24/28 39/19/26
f  75/8/6 47/22/28 53/2/6
f  53/35/6 47/23/28 89/36/6
f  76/24/28 89/36/6 47/23/28
f  65/37/2 69/38/2 63/39/2
f  64/39/1 70/38/1 66/37/1
f  63/39/2 83/40/2 77/41/2
f  78/41/1 84/40/1 64/39/1
f  48/26/29 77/8/5 54/4/32
f  90/42/29 78/25/5 48/27/29
f  48/43/29 54/44/32 90/1/29
f  91/8/33 49/4/34 55/2/33
f  55/45/33 49/46/34 92/47/33
f  93/8/34 56/4/7 49/2/34
f  49/46/34 56/48/7 94/49/34
f  67/50/2 81/51/2 65/37/2
f  66/37/1 82/51/1 68/50/1
f  79/3/4 50/2/30 81/8/30
f  82/30/30 50/29/30 80/28/4
f  81/51/2 67/50/2 79/52/2
f  80/52/1 68/50/1 82/51/1
f  57/2/35 95/3/3 51/4/3
f  51/53/3 96/54/3 57/55/35
f  51/2/3 97/3/36 58/4/36
f  58/56/36 98/57/36 51/53/3
f  63/39/2 69/38/2 83/40/2
f  65/37/2 81/51/2 69/38/2
f  84/40/1 70/38/1 64/39/1
f  70/38/1 82/51/1 66/37/1
f  52/4/31 87/8/27 85/3/31
f  86/33/31 88/34/27 52/32/31
f  77/41/2 83/40/2 71/58/2
f  99/59/2 71/58/2 85/60/2
f  72/58/1 84/40/1 78/41/1
f  86/60/1 72/58/1 90/61/1
f  91/62/2 87/63/2 73/64/2
f  93/65/2 73/64/2 75/66/2
f  74/64/1 88/63/1 92/62/1
f  76/67/1 74/64/1 94/65/1
f  100/8/37 53/4/6 59/2/37
f  59/68/37 53/35/6 101/69/37
f  53/4/6 100/8/37 75/3/6
f  89/36/6 101/69/37 53/35/6
f  89/66/1 76/67/1 102/70/1
f  54/4/32 77/8/5 99/3/32
f  90/61/1 72/58/1 78/41/1
f  103/71/32 90/1/29 54/44/32
f  99/8/32 55/4/33 54/2/32
f  54/44/32 55/45/33 103/71/32
f  49/4/34 91/8/33 93/3/34
f  55/4/33 99/8/32 91/3/33
f  94/49/34 92/47/33 49/46/34
f  92/47/33 103/71/32 55/45/33
f  56/4/7 93/8/34 104/3/7
f  102/72/7 94/49/34 56/48/7
f  104/8/7 60/4/38 56/2/7
f  56/48/7 60/73/38 102/72/7
f  61/2/39 105/3/35 57/4/35
f  57/55/35 106/74/35 61/75/39
f  95/3/3 57/2/35 105/8/35
f  97/3/36 51/2/3 95/8/3
f  106/74/35 57/55/35 96/54/3
f  96/54/3 51/53/3 98/57/36
f  58/2/36 107/3/40 62/4/40
f  62/76/40 108/77/40 58/56/36
f  107/3/40 58/2/36 97/8/36
f  98/57/36 58/56/36 108/77/40
f  91/62/2 85/60/2 87/63/2
f  88/63/1 86/60/1 92/62/1
f  77/41/2 71/58/2 99/59/2
f  99/59/2 85/60/2 91/62/2
f  103/59/1 86/60/1 90/61/1
f  91/62/2 73/64/2 93/65/2
f  93/65/2 75/66/2 104/70/2
f  94/65/1 74/64/1 92/62/1
f  102/70/1 76/67/1 94/65/1
f  62/2/40 100/3/37 59/4/37
f  59/68/37 101/69/37 62/76/40
f  104/70/2 75/66/2 100/78/2
f  101/78/1 89/66/1 102/70/1
f  92/62/1 86/60/1 103/59/1
f  60/4/38 104/8/7 109/3/38
f  110/79/38 102/72/7 60/73/38
f  60/2/38 111/3/39 61/4/39
f  61/75/39 112/80/39 60/73/38
f  105/3/35 61/2/39 111/8/39
f  112/80/39 61/75/39 106/74/35
f  105/81/2 97/82/2 95/83/2
f  96/83/1 98/82/1 106/81/1
f  100/3/37 62/2/40 107/8/40
f  108/77/40 62/76/40 101/69/37
f  111/84/2 107/85/2 97/82/2
f  98/82/1 108/85/1 112/84/1
f  104/70/2 100/78/2 109/86/2
f  110/86/1 101/78/1 102/70/1
f  111/3/39 60/2/38 109/8/38
f  110/79/38 60/73/38 112/80/39
f  111/84/2 97/82/2 105/81/2
f  106/81/1 98/82/1 112/84/1
f  109/86/2 100/78/2 107/85/2
f  108/85/1 101/78/1 110/86/1
f  109/86/2 107/85/2 111/84/2
f  112/84/1 108/85/1 110/86/1

# Mesh 'mesh1_mesh1-geometry' with 148 faces
g mesh1_mesh1-geometry
usemtl material_2_24
f  36//37 63//37 40//40
f  40//40 64//37 36//37
f  36//37 41//6 63//37
f  64//37 41//6 36//37
f  40//40 65//40 37//36
f  37//36 66//40 40//40
f  37//36 67//36 43//3
f  43//3 68//36 37//36
f  44//39 69//39 38//38
f  38//38 70//39 44//39
f  45//7 38//38 71//7
f  72//7 38//38 45//7
f  39//32 46//33 73//32
f  74//32 46//33 39//32
f  39//32 75//5 47//29
f  76//29 39//32 47//29
f  65//40 40//40 63//37
f  64//37 40//40 66//40
f  77//6 63//37 41//6
f  41//6 64//37 78//6
f  41//6 48//28 77//6
f  78//6 48//28 41//6
f  67//36 37//36 65//40
f  66//40 37//36 68//36
f  43//3 79//3 50//35
f  50//35 80//3 43//3
f  79//3 43//3 67//36
f  68//36 43//3 80//3
f  50//35 81//35 44//39
f  44//39 82//35 50//35
f  83//38 38//38 69//39
f  69//39 44//39 81//35
f  70//39 38//38 84//38
f  82//35 44//39 70//39
f  52//34 45//7 85//34
f  86//34 45//7 52//34
f  83//38 71//7 38//38
f  71//7 85//34 45//7
f  38//38 72//7 84//38
f  45//7 86//34 72//7
f  46//33 52//34 87//33
f  88//33 52//34 46//33
f  87//33 73//32 46//33
f  73//32 75//5 39//32
f  46//33 74//32 88//33
f  39//32 76//29 74//32
f  53//5 47//29 75//5
f  89//5 47//29 53//5
f  47//29 89//5 76//29
f  63//1 69//1 65//1
f  66//2 70//2 64//2
f  77//1 83//1 63//1
f  64//2 84//2 78//2
f  54//26 77//6 48//28
f  48//28 78//6 90//28
f  90//28 54//26 48//28
f  55//27 49//31 91//27
f  92//27 49//31 55//27
f  49//31 56//8 93//31
f  94//31 56//8 49//31
f  65//1 81//1 67//1
f  68//2 82//2 66//2
f  81//35 50//35 79//3
f  80//3 50//35 82//35
f  79//1 67//1 81//1
f  82//2 68//2 80//2
f  51//4 95//4 57//30
f  57//30 96//4 51//4
f  58//23 97//23 51//4
f  51//4 98//23 58//23
f  83//1 69//1 63//1
f  69//1 81//1 65//1
f  64//2 70//2 84//2
f  66//2 82//2 70//2
f  85//34 87//33 52//34
f  52//34 88//33 86//34
f  71//1 83//1 77//1
f  85//1 71//1 99//1
f  78//2 84//2 72//2
f  90//2 72//2 86//2
f  73//1 87//1 91//1
f  75//1 73//1 93//1
f  92//2 88//2 74//2
f  94//2 74//2 76//2
f  59//22 53//5 100//22
f  101//22 53//5 59//22
f  75//5 100//22 53//5
f  53//5 101//22 89//5
f  102//2 76//2 89//2
f  99//26 77//6 54//26
f  78//2 72//2 90//2
f  54//26 90//28 103//26
f  54//26 55//27 99//26
f  103//26 55//27 54//26
f  93//31 91//27 49//31
f  91//27 99//26 55//27
f  49//31 92//27 94//31
f  55//27 103//26 92//27
f  104//8 93//31 56//8
f  56//8 94//31 102//8
f  56//8 60//24 104//8
f  102//8 60//24 56//8
f  57//30 105//30 61//25
f  61//25 106//30 57//30
f  105//30 57//30 95//4
f  95//4 51//4 97//23
f  96//4 57//30 106//30
f  98//23 51//4 96//4
f  62//21 107//21 58//23
f  58//23 108//21 62//21
f  97//23 58//23 107//21
f  108//21 58//23 98//23
f  87//1 85//1 91//1
f  92//2 86//2 88//2
f  99//1 71//1 77//1
f  91//1 85//1 99//1
f  90//2 86//2 103//2
f  93//1 73//1 91//1
f  104//1 75//1 93//1
f  92//2 74//2 94//2
f  94//2 76//2 102//2
f  59//22 100//22 62//21
f  62//21 101//22 59//22
f  100//1 75//1 104//1
f  102//2 89//2 101//2
f  103//2 86//2 92//2
f  109//24 104//8 60//24
f  60//24 102//8 110//24
f  61//25 111//25 60//24
f  60//24 112//25 61//25
f  111//25 61//25 105//30
f  106//30 61//25 112//25
f  95//1 97//1 105//1
f  106//2 98//2 96//2
f  107//21 62//21 100//22
f  101//22 62//21 108//21
f  97//1 107//1 111//1
f  112//2 108//2 98//2
f  109//1 100//1 104//1
f  102//2 101//2 110//2
f  109//24 60//24 111//25
f  112//25 60//24 110//24
f  105//1 97//1 111//1
f  112//2 98//2 106//2
f  107//1 100//1 109//1
f  110//2 101//2 108//2
f  111//1 107//1 109//1
f  110//2 108//2 112//2

