# File produced by Open Asset Import Library (http://www.assimp.sf.net)
# (assimp v3.2.202087883)

mtllib model_normalized.mtl

# 84 vertex positions
v 0.033073 -0.590239 0.123430
v 0.123430 -0.590239 0.033073
v 0.090357 -0.590239 0.090357
v 0.123430 -0.590239 -0.033073
v 0.090357 0.006085 0.090357
v 0.033073 0.006085 0.123430
v -0.033073 -0.590239 0.123430
v 0.123430 0.006085 0.033073
v 0.090357 -0.590239 -0.090357
v 0.123430 0.006085 -0.033073
v 0.111334 0.027382 0.029832
v 0.029832 0.027382 0.111334
v -0.033073 0.006085 0.123430
v -0.090357 -0.590239 0.090357
v 0.090357 0.006085 -0.090357
v 0.111334 0.027382 -0.029832
v 0.081502 0.027382 0.081502
v 0.033073 -0.590239 -0.123430
v 0.033073 0.006085 -0.123430
v 0.081502 0.027382 -0.081502
v 0.060238 0.048680 0.060238
v 0.082286 0.048680 0.022049
v -0.029832 0.027382 0.111334
v -0.090357 0.006085 0.090357
v -0.123430 -0.590239 0.033073
v 0.029832 0.027382 -0.111334
v 0.082286 0.048680 -0.022049
v 0.022049 0.048680 0.082286
v -0.033073 -0.590239 -0.123430
v -0.033073 0.006085 -0.123430
v -0.029832 0.027382 -0.111334
v 0.060238 0.048680 -0.060238
v 0.038974 0.069977 0.038974
v 0.053239 0.069977 0.014265
v -0.022049 0.048680 0.082286
v -0.081502 0.027382 0.081502
v -0.123430 0.006085 0.033073
v -0.123430 -0.590239 -0.033073
v -0.022049 0.048680 -0.082286
v 0.022049 0.048680 -0.082286
v 0.053239 0.069977 -0.014265
v 0.014265 0.069977 0.053239
v -0.090357 -0.590239 -0.090357
v -0.090357 0.006085 -0.090357
v -0.060238 0.048680 -0.060238
v 0.038974 0.069977 -0.038974
v 0.041143 0.091274 0.011024
v 0.041143 0.091274 -0.011024
v 0.011024 0.091274 0.041143
v -0.014265 0.069977 0.053239
v -0.060238 0.048680 0.060238
v -0.111334 0.027382 0.029832
v -0.123430 0.006085 -0.033073
v -0.081502 0.027382 -0.081502
v -0.014265 0.069977 -0.053239
v -0.038974 0.069977 -0.038974
v 0.014265 0.069977 -0.053239
v 0.030119 0.091274 -0.030119
v 0.030119 0.091274 0.030119
v -0.082286 0.048680 0.022049
v -0.111334 0.027382 -0.029832
v -0.082286 0.048680 -0.022049
v 0.011024 0.091274 -0.041143
v 0.030119 0.346842 0.030119
v 0.041143 0.346842 0.011024
v 0.030119 0.346842 -0.030119
v 0.011024 0.346842 0.041143
v -0.011024 0.091274 0.041143
v -0.038974 0.069977 0.038974
v -0.053239 0.069977 0.014265
v -0.011024 0.091274 -0.041143
v -0.053239 0.069977 -0.014265
v 0.011024 0.346842 -0.041143
v 0.041143 0.346842 -0.011024
v -0.030119 0.091274 -0.030119
v -0.011024 0.346842 -0.041143
v -0.011024 0.346842 0.041143
v -0.030119 0.346842 0.030119
v -0.030119 0.091274 0.030119
v -0.041143 0.091274 0.011024
v -0.041143 0.091274 -0.011024
v -0.041143 0.346842 0.011024
v -0.030119 0.346842 -0.030119
v -0.041143 0.346842 -0.011024

# 0 UV coordinates

# 110 vertex normals
vn 0.00583821 -0.0116764 0.0217885
vn 0.0217885 -0.0116764 0.00583821
vn 0.0159503 -0.0116764 0.0159503
vn 0.0217885 -0.0116764 -0.00583821
vn -0.0159503 0.0116764 -0.0159503
vn -0.0217885 0.0116764 -0.00583821
vn -0.00583821 0.0116764 -0.0217885
vn -0.0217885 0.0116764 0.00583821
vn 0.0173243 0.00670044 0.0173243
vn -0.0173243 -0.00670044 -0.0173243
vn 0.00634114 0.00670044 0.0236655
vn -0.00634114 -0.00670044 -0.0236655
vn -0.00583821 -0.0116764 0.0217885
vn 0.00583821 0.0116764 -0.0217885
vn 0.0236655 0.00670044 0.00634114
vn -0.0236655 -0.00670044 -0.00634114
vn 0.0159503 -0.0116764 -0.0159503
vn -0.0159503 0.0116764 0.0159503
vn 0.0236655 0.00670044 -0.00634114
vn -0.0236655 -0.00670044 0.00634114
vn 0.018042 0.0172127 0.00483432
vn -0.018042 -0.0172127 -0.00483432
vn 0.00483432 0.0172127 0.018042
vn -0.00483432 -0.0172127 -0.018042
vn -0.00634114 0.00670044 0.0236655
vn 0.00634114 -0.00670044 -0.0236655
vn -0.0159503 -0.0116764 0.0159503
vn 0.0159503 0.0116764 -0.0159503
vn 0.0173243 0.00670044 -0.0173243
vn -0.0173243 -0.00670044 0.0173243
vn 0.018042 0.0172127 -0.00483432
vn -0.018042 -0.0172127 0.00483432
vn 0.0132077 0.0172127 0.0132077
vn -0.0132077 -0.0172127 -0.0132077
vn 0.00583821 -0.0116764 -0.0217885
vn -0.00583821 0.0116764 0.0217885
vn 0.00634114 0.00670044 -0.0236655
vn -0.00634114 -0.00670044 0.0236655
vn 0.0132077 0.0172127 -0.0132077
vn -0.0132077 -0.0172127 0.0132077
vn 0.0103803 0.0207282 0.0103803
vn -0.0103803 -0.0207282 -0.0103803
vn 0.0141798 0.0207282 0.00379946
vn -0.0141798 -0.0207282 -0.00379946
vn -0.00483432 0.0172127 0.018042
vn 0.00483432 -0.0172127 -0.018042
vn -0.0173243 0.00670044 0.0173243
vn 0.0173243 -0.00670044 -0.0173243
vn -0.0217885 -0.0116764 0.00583821
vn 0.0217885 0.0116764 -0.00583821
vn 0.00483432 0.0172127 -0.018042
vn -0.00483432 -0.0172127 0.018042
vn 0.0141798 0.0207282 -0.00379946
vn -0.0141798 -0.0207282 0.00379946
vn 0.00379946 0.0207282 0.0141798
vn -0.00379946 -0.0207282 -0.0141798
vn -0.00583821 -0.0116764 -0.0217885
vn 0.00583821 0.0116764 0.0217885
vn -0.00634114 0.00670044 -0.0236655
vn 0.00634114 -0.00670044 0.0236655
vn -0.00483432 0.0172127 -0.018042
vn 0.00483432 -0.0172127 0.018042
vn 0.0103803 0.0207282 -0.0103803
vn -0.0103803 -0.0207282 0.0103803
vn -0.00379946 0.0207282 0.0141798
vn 0.00379946 -0.0207282 -0.0141798
vn -0.0132077 0.0172127 0.0132077
vn 0.0132077 -0.0172127 -0.0132077
vn -0.0236655 0.00670044 0.00634114
vn 0.0236655 -0.00670044 -0.00634114
vn -0.0217885 -0.0116764 -0.00583821
vn 0.0217885 0.0116764 0.00583821
vn -0.00379946 0.0207282 -0.0141798
vn 0.00379946 -0.0207282 0.0141798
vn 0.00379946 0.0207282 -0.0141798
vn -0.00379946 -0.0207282 0.0141798
vn -0.0159503 -0.0116764 -0.0159503
vn 0.0159503 0.0116764 0.0159503
vn -0.0173243 0.00670044 -0.0173243
vn 0.0173243 -0.00670044 0.0173243
vn -0.0103803 0.0207282 -0.0103803
vn 0.0103803 -0.0207282 0.0103803
vn -0.0103803 0.0207282 0.0103803
vn 0.0103803 -0.0207282 -0.0103803
vn -0.018042 0.0172127 0.00483432
vn 0.018042 -0.0172127 -0.00483432
vn -0.0236655 0.00670044 -0.00634114
vn 0.0236655 -0.00670044 0.00634114
vn -0.0132077 0.0172127 -0.0132077
vn 0.0132077 -0.0172127 0.0132077
vn -0.0141798 0.0207282 0.00379946
vn 0.0141798 -0.0207282 -0.00379946
vn -0.018042 0.0172127 -0.00483432
vn 0.018042 -0.0172127 0.00483432
vn -0.0141798 0.0207282 -0.00379946
vn 0.0141798 -0.0207282 0.00379946
vn 0.0179605 0 0.0179605
vn -0.0179605 0 -0.0179605
vn 0.0245345 0 0.006574
vn -0.0245345 0 -0.006574
vn 0.0179605 0 -0.0179605
vn -0.0179605 0 0.0179605
vn 0.006574 0 0.0245345
vn -0.006574 0 -0.0245345
vn 0.006574 0 -0.0245345
vn -0.006574 0 0.0245345
vn 0.0245345 0 -0.006574
vn -0.0245345 0 0.006574
vn 0 0.0254 0
vn 0 -0.0254 0

# Mesh 'mesh1_mesh1-geometry' with 328 faces
g mesh1_mesh1-geometry
usemtl material_0_24
f  1//1 2//2 3//3
f  2//2 1//1 4//4
f  3//5 2//6 1//7
f  4//8 1//7 2//6
f  2//2 5//9 3//3
f  3//5 5//10 2//6
f  3//3 6//11 1//1
f  1//7 6//12 3//5
f  4//4 1//1 7//13
f  7//14 1//7 4//8
f  4//4 8//15 2//2
f  2//6 8//16 4//8
f  5//9 2//2 8//15
f  8//16 2//6 5//10
f  6//11 3//3 5//9
f  5//10 3//5 6//12
f  6//11 7//13 1//1
f  1//7 7//14 6//12
f  4//4 7//13 9//17
f  9//18 7//14 4//8
f  8//15 4//4 10//19
f  10//20 4//8 8//16
f  11//21 5//9 8//15
f  8//16 5//10 11//22
f  5//9 12//23 6//11
f  6//12 12//24 5//10
f  7//13 6//11 13//25
f  13//26 6//12 7//14
f  9//17 7//13 14//27
f  14//28 7//14 9//18
f  15//29 4//4 9//17
f  9//18 4//8 15//30
f  4//4 15//29 10//19
f  10//20 15//30 4//8
f  16//31 8//15 10//19
f  10//20 8//16 16//32
f  5//9 11//21 17//33
f  17//34 11//22 5//10
f  8//15 16//31 11//21
f  11//22 16//32 8//16
f  12//23 5//9 17//33
f  17//34 5//10 12//24
f  12//23 13//25 6//11
f  6//12 13//26 12//24
f  13//25 14//27 7//13
f  7//14 14//28 13//26
f  9//17 14//27 18//35
f  18//36 14//28 9//18
f  9//17 19//37 15//29
f  15//30 19//38 9//18
f  20//39 10//19 15//29
f  15//30 10//20 20//40
f  10//19 20//39 16//31
f  16//32 20//40 10//20
f  11//21 21//41 17//33
f  17//34 21//42 11//22
f  16//31 22//43 11//21
f  11//22 22//44 16//32
f  21//41 12//23 17//33
f  17//34 12//24 21//42
f  13//25 12//23 23//45
f  23//46 12//24 13//26
f  14//27 13//25 24//47
f  24//48 13//26 14//28
f  18//35 14//27 25//49
f  25//50 14//28 18//36
f  19//37 9//17 18//35
f  18//36 9//18 19//38
f  26//51 15//29 19//37
f  19//38 15//30 26//52
f  15//29 26//51 20//39
f  20//40 26//52 15//30
f  20//39 27//53 16//31
f  16//32 27//54 20//40
f  21//41 11//21 22//43
f  22//44 11//22 21//42
f  22//43 16//31 27//53
f  27//54 16//32 22//44
f  12//23 21//41 28//55
f  28//56 21//42 12//24
f  28//55 23//45 12//23
f  12//24 23//46 28//56
f  23//45 24//47 13//25
f  13//26 24//48 23//46
f  24//47 25//49 14//27
f  14//28 25//50 24//48
f  18//35 25//49 29//57
f  29//58 25//50 18//36
f  18//35 30//59 19//37
f  19//38 30//60 18//36
f  19//37 31//61 26//51
f  26//52 31//62 19//38
f  26//51 32//63 20//39
f  20//40 32//64 26//52
f  27//53 20//39 32//63
f  32//64 20//40 27//54
f  22//43 33//33 21//41
f  21//42 33//34 22//44
f  27//53 34//21 22//43
f  22//44 34//22 27//54
f  33//33 28//55 21//41
f  21//42 28//56 33//34
f  23//45 28//55 35//65
f  35//66 28//56 23//46
f  24//47 23//45 36//67
f  36//68 23//46 24//48
f  25//49 24//47 37//69
f  37//70 24//48 25//50
f  29//57 25//49 38//71
f  38//72 25//50 29//58
f  30//59 18//35 29//57
f  29//58 18//36 30//60
f  31//61 19//37 30//59
f  30//60 19//38 31//62
f  39//73 26//51 31//61
f  31//62 26//52 39//74
f  32//63 26//51 40//75
f  40//76 26//52 32//64
f  32//63 41//31 27//53
f  27//54 41//32 32//64
f  33//33 22//43 34//21
f  34//22 22//44 33//34
f  34//21 27//53 41//31
f  41//32 27//54 34//22
f  28//55 33//33 42//23
f  42//24 33//34 28//56
f  42//23 35//65 28//55
f  28//56 35//66 42//24
f  35//65 36//67 23//45
f  23//46 36//68 35//66
f  36//67 37//69 24//47
f  24//48 37//70 36//68
f  37//69 38//71 25//49
f  25//50 38//72 37//70
f  29//57 38//71 43//77
f  43//78 38//72 29//58
f  43//77 30//59 29//57
f  29//58 30//60 43//78
f  44//79 31//61 30//59
f  30//60 31//62 44//80
f  26//51 39//73 40//75
f  40//76 39//74 26//52
f  31//61 45//81 39//73
f  39//74 45//82 31//62
f  40//75 46//39 32//63
f  32//64 46//40 40//76
f  41//31 32//63 46//39
f  46//40 32//64 41//32
f  47//15 33//33 34//21
f  34//22 33//34 47//16
f  48//19 34//21 41//31
f  41//32 34//22 48//20
f  33//33 49//11 42//23
f  42//24 49//12 33//34
f  35//65 42//23 50//45
f  50//46 42//24 35//66
f  36//67 35//65 51//83
f  51//84 35//66 36//68
f  37//69 36//67 52//85
f  52//86 36//68 37//70
f  38//71 37//69 53//87
f  53//88 37//70 38//72
f  38//71 44//79 43//77
f  43//78 44//80 38//72
f  30//59 43//77 44//79
f  44//80 43//78 30//60
f  31//61 44//79 54//89
f  54//90 44//80 31//62
f  55//61 40//75 39//73
f  39//74 40//76 55//62
f  45//81 31//61 54//89
f  54//90 31//62 45//82
f  56//89 39//73 45//81
f  45//82 39//74 56//90
f  46//39 40//75 57//51
f  57//52 40//76 46//40
f  58//29 41//31 46//39
f  46//40 41//32 58//30
f  33//33 47//15 59//9
f  59//10 47//16 33//34
f  34//21 48//19 47//15
f  47//16 48//20 34//22
f  41//31 58//29 48//19
f  48//20 58//30 41//32
f  49//11 33//33 59//9
f  59//10 33//34 49//12
f  49//11 50//45 42//23
f  42//24 50//46 49//12
f  50//45 51//83 35//65
f  35//66 51//84 50//46
f  60//91 36//67 51//83
f  51//84 36//68 60//92
f  36//67 60//91 52//85
f  52//86 60//92 36//68
f  52//85 53//87 37//69
f  37//70 53//88 52//86
f  44//79 38//71 53//87
f  53//88 38//72 44//80
f  53//87 54//89 44//79
f  44//80 54//90 53//88
f  40//75 55//61 57//51
f  57//52 55//62 40//76
f  39//73 56//89 55//61
f  55//62 56//90 39//74
f  61//93 45//81 54//89
f  54//90 45//82 61//94
f  62//95 56//89 45//81
f  45//82 56//90 62//96
f  63//37 46//39 57//51
f  57//52 46//40 63//38
f  46//39 63//37 58//29
f  58//30 63//38 46//40
f  47//15 64//97 59//9
f  59//10 64//98 47//16
f  48//19 65//99 47//15
f  47//16 65//100 48//20
f  66//101 48//19 58//29
f  58//30 48//20 66//102
f  59//9 67//103 49//11
f  49//12 67//104 59//10
f  50//45 49//11 68//25
f  68//26 49//12 50//46
f  51//83 50//45 69//67
f  69//68 50//46 51//84
f  51//83 70//85 60//91
f  60//92 70//86 51//84
f  62//95 52//85 60//91
f  60//92 52//86 62//96
f  53//87 52//85 61//93
f  61//94 52//86 53//88
f  54//89 53//87 61//93
f  61//94 53//88 54//90
f  71//59 57//51 55//61
f  55//62 57//52 71//60
f  56//89 71//59 55//61
f  55//62 71//60 56//90
f  45//81 61//93 62//95
f  62//96 61//94 45//82
f  56//89 62//95 72//93
f  72//94 62//96 56//90
f  57//51 71//59 63//37
f  63//38 71//60 57//52
f  73//105 58//29 63//37
f  63//38 58//30 73//106
f  64//97 47//15 65//99
f  65//100 47//16 64//98
f  67//103 59//9 64//97
f  64//98 59//10 67//104
f  65//99 48//19 74//107
f  74//108 48//20 65//100
f  48//19 66//101 74//107
f  74//108 66//102 48//20
f  58//29 73//105 66//101
f  66//102 73//106 58//30
f  67//103 68//25 49//11
f  49//12 68//26 67//104
f  68//25 69//67 50//45
f  50//46 69//68 68//26
f  70//85 51//83 69//67
f  69//68 51//84 70//86
f  72//93 60//91 70//85
f  70//86 60//92 72//94
f  52//85 62//95 61//93
f  61//94 62//96 52//86
f  60//91 72//93 62//95
f  62//96 72//94 60//92
f  71//59 56//89 75//79
f  75//80 56//90 71//60
f  72//93 75//79 56//89
f  56//90 75//80 72//94
f  76//104 63//37 71//59
f  71//60 63//38 76//103
f  63//37 76//104 73//105
f  73//106 76//103 63//38
f  65//109 67//109 64//109
f  64//110 67//110 65//110
f  67//109 65//109 74//109
f  74//110 65//110 67//110
f  77//109 74//109 66//109
f  66//110 74//110 77//110
f  78//109 66//109 73//109
f  73//110 66//110 78//110
f  68//25 67//103 77//106
f  77//105 67//104 68//26
f  69//67 68//25 79//47
f  79//48 68//26 69//68
f  79//47 70//85 69//67
f  69//68 70//86 79//48
f  80//69 72//93 70//85
f  70//86 72//94 80//70
f  75//79 76//104 71//59
f  71//60 76//103 75//80
f  75//79 72//93 81//87
f  81//88 72//94 75//80
f  82//109 73//109 76//109
f  76//110 73//110 82//110
f  67//109 74//109 77//109
f  77//110 74//110 67//110
f  77//109 66//109 78//109
f  78//110 66//110 77//110
f  78//109 73//109 82//109
f  82//110 73//110 78//110
f  77//106 79//47 68//25
f  68//26 79//48 77//105
f  70//85 79//47 80//69
f  80//70 79//48 70//86
f  72//93 80//69 81//87
f  81//88 80//70 72//94
f  76//104 75//79 83//98
f  83//97 75//80 76//103
f  81//87 83//98 75//79
f  75//80 83//97 81//88
f  82//109 76//109 84//109
f  84//110 76//110 82//110
f  79//47 77//106 78//102
f  78//101 77//105 79//48
f  80//69 78//102 82//108
f  82//107 78//101 80//70
f  78//102 80//69 79//47
f  79//48 80//70 78//101
f  80//69 84//100 81//87
f  81//88 84//99 80//70
f  84//109 76//109 83//109
f  83//110 76//110 84//110
f  83//98 81//87 84//100
f  84//99 81//88 83//97
f  84//100 80//69 82//108
f  82//107 80//70 84//99

# Mesh 'mesh2_mesh2-geometry' with 12 faces
g mesh2_mesh2-geometry
usemtl material_0_0
l  83 84
l  76 83
l  84 82
l  73 76
l  82 78
l  66 73
l  78 77
l  74 66
l  77 67
l  65 74
l  67 64
l  64 65

