# File produced by Open Asset Import Library (http://www.assimp.sf.net)
# (assimp v3.2.202087883)

mtllib model_normalized.mtl

# 167 vertex positions
v -0.172293 0.170667 0.150073
v -0.153318 -0.453025 0.172676
v -0.153318 0.170667 0.172676
v -0.191268 -0.453025 0.127472
v -0.104961 0.170667 0.206519
v -0.167342 0.170667 -0.146763
v -0.191268 0.170667 0.127472
v -0.104961 -0.453025 0.206519
v -0.144740 0.170667 -0.165738
v -0.216225 0.170667 0.073984
v -0.049494 0.170667 0.226692
v -0.122137 0.170667 -0.184713
v -0.201184 0.170667 -0.098406
v -0.216225 -0.453025 0.073984
v -0.201184 -0.453025 -0.098406
v -0.167342 -0.453025 -0.146763
v -0.122137 -0.453025 -0.184713
v -0.049494 -0.453025 0.226692
v -0.068650 0.170667 -0.209669
v -0.226488 0.170667 0.015861
v -0.221358 0.170667 -0.042938
v -0.068650 -0.453025 -0.209669
v 0.009306 0.170667 0.231822
v -0.010527 0.170667 -0.219933
v -0.221358 -0.453025 -0.042938
v -0.226488 -0.453025 0.015861
v 0.009306 -0.453025 0.231822
v -0.010527 -0.453025 -0.219933
v 0.067430 0.170667 0.221559
v 0.048272 0.170667 -0.214803
v 0.048272 -0.453025 -0.214803
v 0.067430 -0.453025 0.221559
v 0.120916 0.170667 0.196602
v 0.103741 0.170667 -0.194629
v 0.103741 -0.453025 -0.194629
v -0.056462 0.241805 -0.128389
v -0.093562 0.241805 -0.156251
v -0.057778 0.241805 -0.118398
v -0.049573 0.241805 0.186361
v -0.056462 0.241805 -0.108407
v -0.052606 0.241805 -0.099097
v 0.120916 -0.453025 0.196602
v -0.048416 0.241805 -0.174782
v -0.052606 0.241805 -0.137698
v -0.046471 0.241805 -0.091103
v -0.001210 0.241805 0.192886
v -0.038477 0.241805 -0.084968
v 0.166121 0.170667 0.158653
v 0.152097 0.170667 -0.160787
v 0.152097 -0.453025 -0.160787
v -0.046471 0.241805 -0.145693
v -0.048416 0.170667 -0.174782
v -0.094600 0.241805 0.167541
v -0.029166 0.241805 -0.081112
v 0.166121 -0.453025 0.158653
v 0.143519 0.170667 0.177627
v -0.000011 0.241805 -0.180997
v -0.019176 0.241805 -0.156999
v -0.009185 0.241805 -0.155684
v 0.000125 0.241805 -0.151828
v 0.048352 0.241805 -0.174472
v 0.008120 0.241805 -0.145693
v -0.038477 0.241805 -0.151828
v -0.029166 0.241805 -0.155684
v -0.093562 0.170667 -0.156251
v -0.000011 0.170667 -0.180997
v -0.132374 0.241805 -0.126667
v -0.094600 0.170667 0.167541
v -0.049573 0.170667 0.186361
v -0.019176 0.241805 -0.079796
v 0.008120 0.241805 -0.091103
v 0.022992 0.241805 0.189779
v 0.014254 0.241805 -0.099097
v 0.018111 0.241805 -0.108407
v 0.019426 0.241805 -0.118398
v 0.199963 -0.453025 0.110296
v 0.171072 0.170667 -0.138185
v 0.014254 0.241805 -0.137698
v -0.133222 0.241805 0.137709
v -0.133222 0.170667 0.137709
v -0.001210 0.170667 0.192886
v -0.009185 0.241805 -0.081112
v 0.000125 0.241805 -0.084968
v 0.018111 0.241805 -0.128389
v 0.199963 0.170667 0.110296
v 0.190048 0.170667 -0.115582
v 0.048352 0.170667 -0.174472
v -0.132374 0.170667 -0.126667
v -0.162207 0.241805 -0.088045
v 0.042234 0.241805 0.339646
v 0.190048 -0.453025 -0.115582
v 0.220137 -0.453025 0.054828
v 0.093379 0.170667 -0.155651
v -0.162207 0.170667 -0.088045
v 0.022992 0.170667 0.189779
v -0.162806 0.241805 0.098896
v 0.032614 0.170667 0.264712
v 0.047195 0.241805 0.186671
v 0.215004 0.170667 -0.062096
v 0.220137 0.170667 0.054828
v 0.215004 -0.453025 -0.062096
v 0.093379 0.241805 -0.155651
v -0.181027 0.241805 -0.043018
v -0.181027 0.170667 -0.043018
v -0.162806 0.170667 0.098896
v 0.032614 0.131475 0.264712
v 0.066436 0.241805 0.336539
v 0.092342 0.241805 0.168140
v 0.225268 -0.453025 -0.003972
v 0.225268 0.170667 -0.003972
v 0.132001 0.170667 -0.125819
v -0.181337 0.241805 0.053750
v 0.042234 0.131475 0.339646
v 0.057215 0.135064 0.264712
v 0.057215 0.170667 0.264712
v 0.047195 0.170667 0.186671
v 0.131153 0.241805 0.138555
v 0.132001 0.241805 -0.125819
v 0.092342 0.170667 0.168140
v 0.131153 0.170667 0.138555
v -0.187552 0.241805 0.005346
v -0.187552 0.170667 0.005346
v -0.181337 0.170667 0.053750
v 0.066436 0.131475 0.336539
v 0.141499 0.170667 -0.113358
v 0.160986 0.170667 0.099934
v 0.160986 0.241805 0.099934
v 0.161585 0.241805 -0.087007
v 0.032614 -0.069993 0.264712
v 0.042234 -0.098441 0.339646
v 0.042234 -0.069993 0.339646
v 0.057215 -0.098441 0.264712
v 0.057215 -0.069993 0.264712
v 0.161585 0.170667 -0.087007
v 0.179806 0.170667 0.054908
v 0.032614 -0.098441 0.264712
v 0.066436 -0.069993 0.336539
v 0.179806 0.241805 0.054908
v 0.180116 0.241805 -0.041860
v 0.066436 -0.098441 0.336539
v 0.180116 0.170667 -0.041860
v 0.186331 0.170667 0.006544
v 0.186331 0.241805 0.006544
v -0.057778 -0.453025 -0.118398
v -0.056462 -0.453025 -0.128389
v -0.056462 -0.453025 -0.108407
v -0.046471 -0.453025 -0.091103
v -0.052606 -0.453025 -0.137698
v -0.052606 -0.453025 -0.099097
v -0.038477 -0.453025 -0.084968
v -0.009185 -0.453025 -0.155684
v -0.046471 -0.453025 -0.145693
v -0.029166 -0.453025 -0.081112
v 0.014254 -0.453025 -0.099097
v -0.019176 -0.453025 -0.156999
v 0.000125 -0.453025 -0.151828
v -0.038477 -0.453025 -0.151828
v -0.019176 -0.453025 -0.079796
v 0.008120 -0.453025 -0.091103
v 0.018111 -0.453025 -0.108407
v -0.029166 -0.453025 -0.155684
v 0.008120 -0.453025 -0.145693
v -0.009185 -0.453025 -0.081112
v 0.000125 -0.453025 -0.084968
v 0.019426 -0.453025 -0.118398
v 0.014254 -0.453025 -0.137698
v 0.018111 -0.453025 -0.128389

# 0 UV coordinates

# 86 vertex normals
vn -0.0194536 0 0.0163315
vn -0.0171555 0 0.018731
vn -0.0214189 0 0.0136526
vn -0.011723 0 0.0225329
vn 0 0.0254 0
vn -0.0242226 0 0.00764375
vn -0.00549161 0 0.0247992
vn -0.0136526 0 -0.0214189
vn -0.018731 0 -0.0171555
vn -0.0163315 0 -0.0194536
vn -0.0225329 0 -0.011723
vn -0.0253756 0 0.00111402
vn -0.00764375 0 -0.0242226
vn 0.00111402 0 0.0253756
vn -0.0247992 0 -0.00549161
vn -0.00111402 0 -0.0253756
vn 0.00764375 0 0.0242226
vn 0.00549161 0 -0.0247992
vn 0.0136526 0 0.0214189
vn 0.011723 0 -0.0225329
vn 0.018731 0 0.0171555
vn 0.0171555 0 -0.018731
vn -0.00649534 0 -0.0245555
vn -0.0126294 0 -0.0220376
vn 0.0163315 0 0.0194536
vn 8.1407e-05 0 -0.0253999
vn -0.0127704 0 0.0219562
vn -0.00665262 0 0.0245133
vn -8.1407e-05 0 0.0253999
vn 0.0225329 0 0.011723
vn 0.0194536 0 -0.0163315
vn -0.0179029 0 -0.018018
vn -0.018018 0 0.0179029
vn 0.0214189 0 -0.0136526
vn 0.00665262 0 -0.0245133
vn 0.00323464 0 0.0251932
vn 0.0247992 0 0.00549161
vn 0.0127704 0 -0.0219562
vn -0.0219562 0 -0.0127704
vn -0.0220376 0 0.0126294
vn -0.0251932 0 0.00323464
vn 0.0242226 0 -0.00764375
vn -0.0245133 0 -0.00665262
vn 0.0253756 0 -0.00111402
vn 0.018018 0 -0.0179029
vn -0.0245555 0 0.00649534
vn 0 0 -0.0254
vn 0.0251932 0 -0.00323464
vn 0.00964489 0 0.0234976
vn 0.0126294 0 0.0220376
vn 0.0179029 0 0.018018
vn -0.0253999 0 -8.1407e-05
vn 0.0202006 0 -0.0153979
vn 0.0219562 0 0.0127704
vn 0.0220376 0 -0.0126294
vn 0.0245133 0 0.00665262
vn 0.0245555 0 -0.00649534
vn 0 -0.0254 0
vn 0.0253999 0 8.1407e-05
vn -0.0254 -0 0
vn -0.0245345 0 -0.006574
vn -0.0245345 -0 0.006574
vn -0.021997 0 -0.0127
vn -0.021997 -0 0.0127
vn -0.0179605 -0 0.0179605
vn -0.0127 -0 0.021997
vn -0.0179605 0 -0.0179605
vn -0.006574 -0 0.0245345
vn 0.006574 0 -0.0245345
vn 0.0127 0 -0.021997
vn -0.0127 0 -0.021997
vn 0 0 0.0254
vn 0.021997 0 0.0127
vn 0.0179605 0 0.0179605
vn 0.0245345 0 0.006574
vn -0.006574 0 -0.0245345
vn 0.0179605 0 -0.0179605
vn 0.00649534 0 0.0245555
vn 0.006574 0 0.0245345
vn 0.0127 0 0.021997
vn 0.0254 0 0
vn 0.021997 0 -0.0127
vn 0.0245345 0 -0.006574
vn -0.00323464 0 -0.0251932
vn -0.00964489 0 -0.0234976
vn -0.0202006 -0 0.0153979

# Mesh 'mesh1_mesh1-geometry' with 200 faces
g mesh1_mesh1-geometry
usemtl material_0_24
f  1//1 2//2 3//2
f  2//2 1//1 4//3
f  2//2 5//4 3//2
f  6//5 1//5 3//5
f  4//3 1//1 7//3
f  5//4 2//2 8//4
f  9//5 3//5 5//5
f  6//5 7//5 1//5
f  6//5 3//5 9//5
f  10//6 4//3 7//3
f  8//4 11//7 5//4
f  9//5 5//5 12//5
f  13//5 7//5 6//5
f  12//8 6//9 9//10
f  4//3 10//6 14//6
f  13//5 10//5 7//5
f  15//11 6//9 16//9
f  6//9 17//8 16//9
f  11//7 8//4 18//7
f  19//5 5//5 11//5
f  12//5 5//5 19//5
f  6//9 15//11 13//11
f  17//8 6//9 12//8
f  20//12 14//6 10//6
f  21//5 10//5 13//5
f  12//8 22//13 17//8
f  18//7 23//14 11//7
f  19//5 11//5 24//5
f  22//13 12//8 19//13
f  25//15 13//11 15//11
f  14//6 20//12 26//12
f  10//5 21//5 20//5
f  13//11 25//15 21//15
f  23//14 18//7 27//14
f  24//5 11//5 23//5
f  28//16 19//13 24//16
f  19//13 28//16 22//13
f  21//15 26//12 20//12
f  26//12 21//15 25//15
f  27//14 29//17 23//14
f  24//5 23//5 30//5
f  24//16 31//18 28//16
f  29//17 27//14 32//17
f  30//5 23//5 29//5
f  31//18 24//16 30//18
f  32//17 33//19 29//17
f  30//5 29//5 34//5
f  30//18 35//20 31//18
f  36//5 37//5 38//5
f  38//5 39//5 40//5
f  40//5 39//5 41//5
f  33//19 32//17 42//19
f  34//5 29//5 33//5
f  35//20 30//18 34//20
f  43//5 36//5 44//5
f  37//5 36//5 43//5
f  37//5 39//5 38//5
f  41//5 39//5 45//5
f  45//5 46//5 47//5
f  42//19 48//21 33//19
f  34//5 33//5 49//5
f  34//20 50//22 35//20
f  43//5 44//5 51//5
f  52//23 37//24 43//23
f  37//5 53//5 39//5
f  45//5 39//5 46//5
f  47//5 46//5 54//5
f  48//21 42//19 55//21
f  33//19 48//21 56//25
f  49//5 33//5 56//5
f  50//22 34//20 49//22
f  57//5 58//5 59//5
f  57//5 59//5 60//5
f  61//5 60//5 62//5
f  43//5 51//5 63//5
f  57//5 63//5 64//5
f  37//24 52//23 65//24
f  43//23 66//26 52//23
f  67//5 53//5 37//5
f  68//27 39//28 53//27
f  69//28 46//29 39//28
f  54//5 46//5 70//5
f  71//5 72//5 73//5
f  73//5 72//5 74//5
f  74//5 72//5 75//5
f  76//30 48//21 55//21
f  49//5 56//5 48//5
f  77//31 50//22 49//22
f  57//5 64//5 58//5
f  57//5 60//5 61//5
f  61//5 62//5 78//5
f  43//5 63//5 57//5
f  65//24 67//32 37//24
f  66//26 43//23 57//26
f  67//5 79//5 53//5
f  39//28 68//27 69//28
f  53//27 80//33 68//27
f  46//29 69//28 81//29
f  70//5 46//5 82//5
f  83//5 72//5 71//5
f  82//5 46//5 83//5
f  61//5 75//5 72//5
f  61//5 84//5 75//5
f  48//21 76//30 85//30
f  49//5 48//5 77//5
f  86//34 50//22 77//31
f  87//35 57//26 61//35
f  61//5 78//5 84//5
f  67//32 65//24 88//32
f  57//26 87//35 66//26
f  89//5 79//5 67//5
f  80//33 53//27 79//33
f  81//29 72//36 46//29
f  83//5 46//5 72//5
f  61//5 72//5 90//5
f  50//22 86//34 91//34
f  92//37 85//30 76//30
f  77//5 48//5 85//5
f  77//5 85//5 86//5
f  61//35 93//38 87//35
f  94//39 67//32 88//32
f  72//36 81//29 95//36
f  89//5 96//5 79//5
f  67//32 94//39 89//39
f  96//40 80//33 79//33
f  97//41 90//41 72//41
f  61//5 90//5 98//5
f  99//42 91//34 86//34
f  85//30 92//37 100//37
f  91//34 99//42 101//42
f  86//5 85//5 99//5
f  93//38 61//35 102//38
f  97//41 72//41 95//41
f  103//5 96//5 89//5
f  104//43 89//39 94//39
f  80//33 96//40 105//40
f  106//41 90//41 97//41
f  107//5 98//5 90//5
f  61//5 98//5 108//5
f  109//44 100//37 92//37
f  99//5 85//5 100//5
f  110//44 101//42 99//42
f  61//5 108//5 102//5
f  102//38 111//45 93//38
f  103//5 112//5 96//5
f  89//39 104//43 103//43
f  112//46 105//40 96//40
f  90//41 106//41 113//41
f  97//47 114//47 106//47
f  107//48 115//48 98//48
f  113//36 107//36 90//36
f  116//49 108//50 98//49
f  100//37 109//44 110//44
f  99//5 100//5 110//5
f  101//42 110//44 109//44
f  102//5 108//5 117//5
f  111//45 102//38 118//45
f  108//50 116//49 119//50
f  117//51 119//50 120//51
f  112//5 103//5 121//5
f  122//52 103//43 104//43
f  105//40 112//46 123//46
f  114//47 97//47 115//47
f  107//48 114//48 115//48
f  98//48 115//48 116//48
f  107//36 113//36 124//36
f  119//50 117//51 108//50
f  102//5 117//5 118//5
f  118//45 125//53 111//45
f  126//54 117//51 120//51
f  103//43 122//52 121//52
f  121//52 123//46 112//46
f  114//48 107//48 124//48
f  118//5 117//5 127//5
f  128//55 125//53 118//45
f  117//51 126//54 127//54
f  123//46 121//52 122//52
f  129//41 130//41 131//41
f  132//47 129//47 133//47
f  118//5 127//5 128//5
f  125//53 128//55 134//55
f  135//56 127//54 126//54
f  130//41 129//41 136//41
f  130//36 137//36 131//36
f  129//47 132//47 136//47
f  137//48 132//48 133//48
f  128//5 127//5 138//5
f  139//57 134//55 128//55
f  127//54 135//56 138//56
f  132//58 130//58 136//58
f  137//36 130//36 140//36
f  132//48 137//48 140//48
f  128//5 138//5 139//5
f  134//55 139//57 141//57
f  142//59 138//56 135//56
f  130//58 132//58 140//58
f  139//5 138//5 143//5
f  143//59 141//57 139//57
f  138//56 142//59 143//59
f  141//57 143//59 142//59

# Mesh 'mesh1_mesh1-geometry' with 308 faces
g mesh1_mesh1-geometry
usemtl material_1_24
f  3//22 2//22 1//31
f  4//34 1//31 2//22
f  3//22 5//20 2//22
f  3//58 1//58 6//58
f  7//34 1//31 4//34
f  2//5 16//5 4//5
f  8//20 2//22 5//20
f  5//58 3//58 9//58
f  1//58 7//58 6//58
f  9//58 3//58 6//58
f  7//34 4//34 10//42
f  16//5 15//5 4//5
f  17//5 16//5 2//5
f  8//5 17//5 2//5
f  5//20 11//18 8//20
f  12//58 5//58 9//58
f  6//58 7//58 13//58
f  9//25 6//21 12//19
f  14//42 10//42 4//34
f  7//58 10//58 13//58
f  4//5 15//5 14//5
f  16//21 6//21 15//30
f  16//21 17//19 6//21
f  22//5 17//5 8//5
f  18//18 8//20 11//18
f  11//58 5//58 19//58
f  19//58 5//58 12//58
f  13//30 15//30 6//21
f  12//19 6//21 17//19
f  10//42 14//42 20//44
f  13//58 10//58 21//58
f  15//5 25//5 14//5
f  17//19 22//17 12//19
f  18//5 22//5 8//5
f  11//18 23//16 18//18
f  24//58 11//58 19//58
f  19//17 12//19 22//17
f  15//30 13//30 25//37
f  26//44 20//44 14//42
f  20//58 21//58 10//58
f  21//37 25//37 13//30
f  26//5 14//5 25//5
f  144//5 22//5 18//5
f  27//16 18//18 23//16
f  23//58 11//58 24//58
f  24//14 19//17 28//14
f  22//17 28//14 19//17
f  20//44 26//44 21//37
f  25//37 21//37 26//44
f  144//5 145//5 22//5
f  146//5 144//5 18//5
f  27//5 147//5 18//5
f  23//16 29//13 27//16
f  30//58 23//58 24//58
f  28//14 31//7 24//14
f  28//5 22//5 148//5
f  148//5 22//5 145//5
f  144//60 38//60 145//61
f  146//62 40//62 144//60
f  149//5 146//5 18//5
f  147//5 149//5 18//5
f  150//5 147//5 27//5
f  32//13 27//16 29//13
f  29//58 23//58 30//58
f  30//7 24//14 31//7
f  31//5 28//5 151//5
f  152//5 28//5 148//5
f  145//61 36//61 148//63
f  36//61 145//61 38//60
f  38//60 144//60 40//62
f  40//62 146//62 41//64
f  149//64 41//64 146//62
f  147//65 45//65 149//64
f  147//65 150//66 45//65
f  153//5 150//5 27//5
f  32//5 154//5 27//5
f  29//13 33//8 32//13
f  34//58 29//58 30//58
f  31//7 35//4 30//7
f  151//5 28//5 155//5
f  156//5 31//5 151//5
f  157//5 28//5 152//5
f  148//63 44//63 152//67
f  44//63 148//63 36//61
f  38//58 37//58 36//58
f  40//58 39//58 38//58
f  41//58 39//58 40//58
f  41//64 149//64 45//65
f  47//66 45//65 150//66
f  150//66 153//68 47//66
f  158//5 153//5 27//5
f  154//5 159//5 27//5
f  160//5 154//5 32//5
f  42//8 32//13 33//8
f  33//58 29//58 34//58
f  34//4 30//7 35//4
f  35//5 31//5 32//5
f  155//5 28//5 161//5
f  151//69 155//47 59//69
f  162//5 31//5 156//5
f  156//70 151//69 60//70
f  161//5 28//5 157//5
f  157//71 152//67 63//71
f  51//67 152//67 44//63
f  44//58 36//58 43//58
f  43//58 36//58 37//58
f  38//58 39//58 37//58
f  45//58 39//58 41//58
f  47//58 46//58 45//58
f  54//68 47//66 153//68
f  153//68 158//72 54//68
f  163//5 158//5 27//5
f  159//5 164//5 27//5
f  154//73 73//73 159//74
f  160//75 74//75 154//73
f  165//5 160//5 32//5
f  42//5 35//5 32//5
f  33//8 48//9 42//8
f  49//58 33//58 34//58
f  35//4 50//2 34//4
f  31//5 165//5 32//5
f  155//47 161//76 58//47
f  58//47 59//69 155//47
f  59//69 60//70 151//69
f  166//5 31//5 162//5
f  162//77 156//70 62//77
f  60//70 62//77 156//70
f  161//76 157//71 64//76
f  51//67 63//71 152//67
f  63//71 64//76 157//71
f  51//58 44//58 43//58
f  43//78 37//50 52//78
f  39//58 53//58 37//58
f  46//58 39//58 45//58
f  54//58 46//58 47//58
f  70//72 54//68 158//72
f  158//72 163//79 70//72
f  164//5 163//5 27//5
f  164//80 159//74 83//80
f  71//74 159//74 73//73
f  73//73 154//73 74//75
f  74//75 160//75 75//81
f  165//81 75//81 160//75
f  50//5 35//5 42//5
f  55//9 42//8 48//9
f  56//10 48//9 33//8
f  56//58 33//58 49//58
f  49//2 34//4 50//2
f  165//5 31//5 167//5
f  64//76 58//47 161//76
f  59//58 58//58 57//58
f  60//58 59//58 57//58
f  167//5 31//5 166//5
f  162//77 62//77 166//82
f  62//58 60//58 61//58
f  63//58 51//58 43//58
f  64//58 63//58 57//58
f  65//50 52//78 37//50
f  52//78 66//29 43//78
f  37//58 53//58 67//58
f  53//38 39//35 68//38
f  39//35 46//26 69//35
f  70//58 46//58 54//58
f  82//79 70//72 163//79
f  163//79 164//80 82//79
f  71//74 83//80 159//74
f  83//80 82//79 164//80
f  73//58 72//58 71//58
f  74//58 72//58 73//58
f  75//58 72//58 74//58
f  75//81 165//81 84//83
f  55//5 50//5 42//5
f  55//9 48//9 76//11
f  48//58 56//58 49//58
f  49//2 50//2 77//1
f  167//83 84//83 165//81
f  58//58 64//58 57//58
f  61//58 60//58 57//58
f  166//82 78//82 167//83
f  78//82 166//82 62//77
f  78//58 62//58 61//58
f  57//58 63//58 43//58
f  37//50 67//51 65//50
f  57//29 43//78 66//29
f  53//58 79//58 67//58
f  69//35 68//38 39//35
f  68//38 80//45 53//38
f  81//26 69//35 46//26
f  82//58 46//58 70//58
f  71//58 72//58 83//58
f  83//58 46//58 82//58
f  72//58 75//58 61//58
f  75//58 84//58 61//58
f  91//5 50//5 55//5
f  85//11 76//11 48//9
f  76//5 91//5 55//5
f  77//58 48//58 49//58
f  77//1 50//2 86//3
f  84//83 167//83 78//82
f  61//28 57//29 87//28
f  84//58 78//58 61//58
f  88//51 65//50 67//51
f  66//29 87//28 57//29
f  67//58 79//58 89//58
f  79//45 53//38 80//45
f  46//26 72//84 81//26
f  72//58 46//58 83//58
f  90//58 72//58 61//58
f  91//3 86//3 50//2
f  76//11 85//11 92//15
f  85//58 48//58 77//58
f  101//5 91//5 76//5
f  86//58 85//58 77//58
f  87//28 93//27 61//28
f  88//51 67//51 94//54
f  95//84 81//26 72//84
f  79//58 96//58 89//58
f  89//54 94//54 67//51
f  79//45 80//45 96//55
f  72//48 90//48 97//48
f  98//58 90//58 61//58
f  86//3 91//3 99//6
f  100//15 92//15 85//11
f  92//5 101//5 76//5
f  101//6 99//6 91//3
f  99//58 85//58 86//58
f  102//27 61//28 93//27
f  95//48 72//48 97//48
f  89//58 96//58 103//58
f  94//54 89//54 104//56
f  105//55 96//55 80//45
f  97//48 90//48 106//48
f  90//58 98//58 107//58
f  108//58 98//58 61//58
f  92//15 100//15 109//12
f  100//58 85//58 99//58
f  109//5 101//5 92//5
f  99//6 101//6 110//12
f  102//58 108//58 61//58
f  93//27 111//33 102//27
f  96//58 112//58 103//58
f  103//56 104//56 89//54
f  96//55 105//55 112//57
f  113//48 106//48 90//48
f  106//72 114//72 97//72
f  98//41 115//41 107//41
f  90//84 107//84 113//84
f  98//85 108//24 116//85
f  110//12 109//12 100//15
f  110//58 100//58 99//58
f  109//12 110//12 101//6
f  117//58 108//58 102//58
f  118//33 102//27 111//33
f  119//24 116//85 108//24
f  120//32 119//24 117//32
f  121//58 103//58 112//58
f  104//56 103//56 122//59
f  123//57 112//57 105//55
f  113//48 131//48 106//48
f  115//72 97//72 114//72
f  114//72 106//72 133//72
f  115//41 114//41 107//41
f  116//41 115//41 98//41
f  124//84 113//84 107//84
f  108//24 117//32 119//24
f  118//58 117//58 102//58
f  111//33 125//86 118//33
f  120//32 117//32 126//39
f  121//59 122//59 103//56
f  112//57 123//57 121//59
f  129//48 106//48 131//48
f  113//84 124//84 131//84
f  129//72 133//72 106//72
f  114//41 133//41 124//41
f  124//41 107//41 114//41
f  127//58 117//58 118//58
f  118//33 125//86 128//40
f  127//39 126//39 117//32
f  122//59 121//59 123//57
f  131//48 130//48 129//48
f  133//58 131//58 129//58
f  129//5 131//5 133//5
f  137//84 131//84 124//84
f  133//72 129//72 132//72
f  137//41 124//41 133//41
f  128//58 127//58 118//58
f  134//40 128//40 125//86
f  126//39 127//39 135//43
f  136//48 129//48 130//48
f  131//84 137//84 130//84
f  131//58 133//58 137//58
f  137//5 133//5 131//5
f  136//72 132//72 129//72
f  133//41 132//41 137//41
f  138//58 127//58 128//58
f  128//40 134//40 139//46
f  138//43 135//43 127//39
f  136//5 130//5 132//5
f  140//84 130//84 137//84
f  140//41 137//41 132//41
f  139//58 138//58 128//58
f  141//46 139//46 134//40
f  135//43 138//43 142//52
f  140//5 132//5 130//5
f  143//58 138//58 139//58
f  139//46 141//46 143//52
f  143//52 142//52 138//43
f  142//52 143//52 141//46

# Mesh 'mesh1_mesh1-geometry' with 130 faces
g mesh1_mesh1-geometry
usemtl material_2_24
f  4//58 16//58 2//58
f  4//58 15//58 16//58
f  2//58 16//58 17//58
f  2//58 17//58 8//58
f  14//58 15//58 4//58
f  8//58 17//58 22//58
f  14//58 25//58 15//58
f  8//58 22//58 18//58
f  25//58 14//58 26//58
f  18//58 22//58 144//58
f  22//58 145//58 144//58
f  18//58 144//58 146//58
f  18//58 147//58 27//58
f  148//58 22//58 28//58
f  145//58 22//58 148//58
f  145//75 38//81 144//81
f  144//81 40//83 146//83
f  18//58 146//58 149//58
f  18//58 149//58 147//58
f  27//58 147//58 150//58
f  151//58 28//58 31//58
f  148//58 28//58 152//58
f  148//73 36//75 145//75
f  38//81 145//75 36//75
f  40//83 144//81 38//81
f  41//82 146//83 40//83
f  146//83 41//82 149//82
f  149//82 45//77 147//77
f  45//77 150//70 147//77
f  27//58 150//58 153//58
f  27//58 154//58 32//58
f  155//58 28//58 151//58
f  151//58 31//58 156//58
f  152//58 28//58 157//58
f  152//74 44//73 148//73
f  36//75 148//73 44//73
f  45//77 149//82 41//82
f  150//70 45//77 47//70
f  47//70 153//69 150//70
f  27//58 153//58 158//58
f  27//58 159//58 154//58
f  32//58 154//58 160//58
f  32//58 31//58 35//58
f  161//58 28//58 155//58
f  59//68 155//72 151//68
f  156//58 31//58 162//58
f  60//66 151//68 156//66
f  157//58 28//58 161//58
f  63//80 152//74 157//80
f  44//73 152//74 51//74
f  153//69 47//70 54//69
f  54//69 158//47 153//69
f  27//58 158//58 163//58
f  27//58 164//58 159//58
f  159//67 73//63 154//63
f  154//63 74//61 160//61
f  32//58 160//58 165//58
f  32//58 35//58 42//58
f  32//58 165//58 31//58
f  58//72 161//79 155//72
f  155//72 59//68 58//72
f  151//68 60//66 59//68
f  162//58 31//58 166//58
f  62//65 156//66 162//65
f  156//66 62//65 60//66
f  64//79 157//80 161//79
f  152//74 63//80 51//74
f  157//80 64//79 63//80
f  158//47 54//69 70//47
f  70//47 163//76 158//47
f  27//58 163//58 164//58
f  83//71 159//67 164//71
f  73//63 159//67 71//67
f  74//61 154//63 73//63
f  75//60 160//61 74//61
f  160//61 75//60 165//60
f  42//58 35//58 50//58
f  167//58 31//58 165//58
f  161//79 58//72 64//79
f  166//58 31//58 167//58
f  166//64 62//65 162//65
f  163//76 70//47 82//76
f  82//76 164//71 163//76
f  159//67 83//71 71//67
f  164//71 82//76 83//71
f  84//62 165//60 75//60
f  42//58 50//58 55//58
f  165//60 84//62 167//62
f  167//62 78//64 166//64
f  62//65 166//64 78//64
f  52//5 65//5 69//5
f  66//5 52//5 81//5
f  55//58 50//58 91//58
f  55//58 91//58 76//58
f  78//64 167//62 84//62
f  69//5 65//5 68//5
f  81//5 52//5 69//5
f  95//5 66//5 81//5
f  68//5 88//5 80//5
f  76//58 91//58 101//58
f  65//5 88//5 68//5
f  87//5 66//5 95//5
f  88//5 94//5 80//5
f  76//58 101//58 92//58
f  93//5 87//5 119//5
f  97//5 87//5 95//5
f  80//5 94//5 105//5
f  92//58 101//58 109//58
f  119//5 87//5 116//5
f  120//5 93//5 119//5
f  116//5 87//5 97//5
f  94//5 104//5 105//5
f  111//5 93//5 120//5
f  116//5 97//5 115//5
f  105//5 104//5 123//5
f  106//41 131//41 113//41
f  133//47 106//47 114//47
f  126//5 111//5 120//5
f  122//5 123//5 104//5
f  131//41 106//41 129//41
f  131//36 124//36 113//36
f  106//47 133//47 129//47
f  124//48 133//48 114//48
f  125//5 111//5 126//5
f  124//36 131//36 137//36
f  133//48 124//48 137//48
f  134//5 125//5 126//5
f  135//5 134//5 126//5
f  141//5 134//5 135//5
f  142//5 141//5 135//5

# Mesh 'mesh1_mesh1-geometry' with 26 faces
g mesh1_mesh1-geometry
usemtl material_3_24
f  69//58 65//58 52//58
f  81//58 52//58 66//58
f  68//58 65//58 69//58
f  69//58 52//58 81//58
f  81//58 66//58 95//58
f  80//58 88//58 68//58
f  68//58 88//58 65//58
f  95//58 66//58 87//58
f  80//58 94//58 88//58
f  119//58 87//58 93//58
f  95//58 87//58 97//58
f  105//58 94//58 80//58
f  116//58 87//58 119//58
f  119//58 93//58 120//58
f  97//58 87//58 116//58
f  105//58 104//58 94//58
f  120//58 93//58 111//58
f  115//58 97//58 116//58
f  123//58 104//58 105//58
f  120//58 111//58 126//58
f  104//58 123//58 122//58
f  126//58 111//58 125//58
f  126//58 125//58 134//58
f  126//58 134//58 135//58
f  135//58 134//58 141//58
f  135//58 141//58 142//58

