# File produced by Open Asset Import Library (http://www.assimp.sf.net)
# (assimp v3.2.202087883)

mtllib model_normalized.mtl

# 102 vertex positions
v -0.115355 -0.041408 -0.207541
v 0.099638 -0.067492 -0.176410
v -0.101632 -0.067492 -0.176410
v 0.113362 -0.041408 -0.207541
v -0.101632 -0.326594 -0.176410
v -0.137902 -0.067492 -0.000000
v 0.113362 0.061188 -0.207541
v 0.153845 -0.041408 -0.000000
v 0.099638 -0.326594 -0.176410
v -0.156525 -0.041408 -0.000000
v -0.115355 0.061188 -0.207541
v 0.135222 -0.067492 -0.000000
v 0.135222 -0.326594 -0.000000
v 0.113362 -0.352743 -0.207541
v -0.137902 -0.326594 -0.000000
v -0.115355 -0.041408 0.207541
v -0.156525 0.061188 -0.000000
v -0.000997 0.127897 -0.088339
v 0.153845 0.061188 -0.000000
v 0.099638 -0.067492 0.176410
v 0.153845 -0.352743 -0.000000
v -0.115355 -0.352743 -0.207541
v -0.156525 -0.352743 -0.000000
v -0.101632 -0.067492 0.176410
v -0.115355 0.061188 0.207541
v -0.089335 0.127897 -0.000000
v -0.045166 0.127897 -0.076502
v 0.061467 0.127897 -0.062463
v 0.087341 0.127897 -0.000000
v 0.113362 -0.041408 0.207541
v 0.099638 -0.326594 0.176410
v -0.115355 -0.487966 -0.207541
v 0.153845 -0.487966 -0.000000
v -0.101632 -0.326594 0.176410
v -0.001404 0.127897 -0.082128
v 0.113362 0.061188 0.207541
v 0.113362 -0.352743 0.207541
v 0.113362 -0.487966 -0.207541
v 0.113362 -0.487966 0.207541
v -0.115355 -0.352743 0.207541
v -0.045166 0.127897 0.076503
v -0.041283 0.127897 -0.071443
v 0.056958 0.127897 -0.057955
v 0.080963 0.127897 -0.000000
v 0.061467 0.127897 0.062464
v 0.093921 -0.542286 -0.172259
v -0.156525 -0.487966 -0.000000
v 0.093921 -0.542286 0.172259
v -0.000997 0.127897 0.088338
v -0.041283 0.127897 0.071443
v -0.082531 0.127897 -0.000000
v -0.001404 0.172068 -0.082128
v 0.056958 0.172068 -0.057955
v 0.056958 0.127897 0.057954
v -0.095914 -0.542286 -0.172259
v 0.127464 -0.542286 -0.000000
v -0.115355 -0.487966 0.207541
v -0.001404 0.127897 0.082129
v -0.082531 0.172068 -0.000000
v -0.041283 0.172068 -0.071443
v 0.080963 0.172068 -0.000000
v -0.130143 -0.542286 -0.000000
v -0.095914 -0.542286 0.172259
v -0.041283 0.172068 0.071443
v 0.056958 0.172068 0.057954
v -0.001404 0.172068 0.082129
v -0.000997 0.144939 0.095405
v 0.047893 0.135550 0.077730
v 0.047893 0.144939 0.077730
v -0.000997 0.135550 0.095405
v 0.082125 0.144939 0.043497
v -0.000997 0.312920 0.095405
v -0.049887 0.144939 0.077730
v -0.049887 0.135550 0.077730
v 0.082125 0.135550 0.043497
v 0.082125 0.312920 0.043497
v 0.047893 0.312920 0.077730
v -0.049887 0.312920 0.077730
v 0.094408 0.144939 -0.000000
v -0.084119 0.144939 0.043497
v 0.094408 0.312920 -0.000000
v -0.084119 0.312920 0.043497
v -0.084119 0.135550 0.043497
v 0.094408 0.135550 -0.000000
v -0.096402 0.144939 -0.000000
v -0.096402 0.312920 -0.000000
v -0.096402 0.135550 -0.000000
v 0.082125 0.144939 -0.043498
v 0.082125 0.312920 -0.043498
v 0.082125 0.135550 -0.043498
v -0.084119 0.144939 -0.043498
v -0.084119 0.135550 -0.043498
v -0.084119 0.312920 -0.043498
v 0.047893 0.144939 -0.077729
v 0.047893 0.312920 -0.077729
v -0.049887 0.144939 -0.077729
v -0.049887 0.312920 -0.077729
v -0.049887 0.135550 -0.077729
v 0.047893 0.135550 -0.077729
v -0.000997 0.135550 -0.095404
v -0.000997 0.144939 -0.095404
v -0.000997 0.312920 -0.095404

# 17 UV coordinates
vt 0 0 0
vt 0.974568 0.904172 0
vt 0.480606 0.75435 0
vt 0.974568 0.75435 0
vt 0.917262 0.681968 0
vt 0.496861 0.303604 0
vt 0.917262 0.303604 0
vt 0.480606 0.904172 0
vt 0.496861 0.681968 0
vt -0.518526 0.906043 0
vt -1.01249 0.756221 0
vt -0.518526 0.756221 0
vt -0.92651 0.30492 0
vt -0.50611 0.683284 0
vt -0.92651 0.683284 0
vt -0.50611 0.30492 0
vt -1.01249 0.906043 0

# 138 vertex normals
vn 0 -0.0194693 -0.0163128
vn 0 0 -0.0254
vn -0.0198494 -0.0153136 -0.00408102
vn 0.0199932 -0.0151731 -0.00389987
vn -0.0199932 0.0151731 0.00389987
vn -0.0248796 0 -0.00511523
vn -0.0204081 -0.0145699 -0.00404825
vn -0.0249302 0 0.00486286
vn 0.0203993 -0.0145636 -0.00411475
vn -0.0203993 0.0145636 0.00411475
vn -0.0248985 0 0.00502229
vn 0 0.0194493 -0.0163367
vn -0.0204081 -0.0145699 0.00404825
vn -0.0249146 0 -0.00494218
vn 0 0.0221652 -0.0124043
vn 0.0203993 -0.0145636 0.00411475
vn -0.0203993 0.0145636 -0.00411475
vn 0.020416 0.0145393 -0.0041181
vn -0.020416 -0.0145393 0.0041181
vn 0.020011 0.0151488 -0.00390332
vn -0.020011 -0.0151488 0.00390332
vn -0.0204055 0.0145318 -0.00419537
vn -0.0248796 0 0.00511523
vn -0.0198494 -0.0153136 0.00408102
vn -0.0249146 0 0.00494218
vn -0.0177238 0.0178513 -0.00351579
vn -0.00275171 0.0230678 -0.0102696
vn 0.00386593 0.0233047 -0.00933316
vn 0.0178191 0.017764 -0.00347579
vn -0.0249302 0 -0.00486286
vn 0.0199932 -0.0151731 0.00389987
vn -0.0199932 0.0151731 -0.00389987
vn -0.0248985 0 -0.00502229
vn 0.020416 0.0145393 0.0041181
vn -0.020416 -0.0145393 -0.0041181
vn -0.019966 0.0151932 -0.00396055
vn 0.0249302 0 -0.00486286
vn -0.0204055 0.0145318 0.00419537
vn -0 -0.0194693 0.0163128
vn 0 0 0.0254
vn -0.0177238 0.0178513 0.00351579
vn -0.0102732 0.0224598 -0.00593123
vn 0 0.0254 0
vn 0.0127164 0.0213473 -0.00526733
vn 0.0178191 0.017764 0.00347579
vn 0.020011 0.0151488 0.00390332
vn -0.020011 -0.0151488 -0.00390332
vn 0.0249302 0 0.00486286
vn -0.019966 0.0151932 0.00396055
vn -0.0102732 0.0224598 0.00593123
vn 0.0127164 0.0213473 0.00526733
vn 0 0.0194493 0.0163367
vn 0 -0.0138356 -0.0213011
vn 0.0225133 -0.0109098 -0.00439143
vn -0.0225133 0.0109098 0.00439143
vn 0.0225133 -0.0109098 0.00439143
vn -0.0225133 0.0109098 -0.00439143
vn 0 0.0221652 0.0124043
vn -0.00275171 0.0230678 0.0102696
vn -0.006574 0 -0.0245345
vn 0.00972015 0 -0.0234666
vn 0.00386593 0.0233047 0.00933316
vn -0.0224835 -0.0109436 -0.00445994
vn 0.0225053 -0.0109301 -0.00438224
vn -0.0225053 0.0109301 0.00438224
vn -0 -0.0138356 0.0213011
vn 0.0225053 -0.0109301 0.00438224
vn -0.0225053 0.0109301 -0.00438224
vn -0.021997 0 -0.0127
vn 0.0234666 0 -0.00972015
vn 0.0234666 0 0.00972015
vn 0 -0.0254 0
vn -0.0224915 -0.0109234 -0.00446916
vn -0.0224835 -0.0109436 0.00445994
vn -0.006574 0 0.0245345
vn -0.021997 0 0.0127
vn 0.00972015 0 0.0234666
vn -0.0224915 -0.0109234 0.00446916
vn 0 0.0194693 0.0163128
vn 0.0198494 0.0153136 0.00408102
vn 0.0248796 -0 0.00511523
vn 0.0204081 0.0145699 0.00404825
vn 0 -0.0194493 0.0163367
vn 0.0204081 0.0145699 -0.00404825
vn 0.0249146 -0 0.00494218
vn -0 -0.0221652 0.0124043
vn 0.0204055 -0.0145318 0.00419537
vn 0.0248796 0 -0.00511523
vn 0.0198494 0.0153136 -0.00408102
vn 0.0249146 0 -0.00494218
vn 0.0177238 -0.0178513 0.00351579
vn 0.00275171 -0.0230678 0.0102696
vn -0.00386593 -0.0233047 0.00933316
vn -0.0178191 -0.017764 0.00347579
vn 0.019966 -0.0151932 0.00396055
vn 0.0204055 -0.0145318 -0.00419537
vn 0 0.0194693 -0.0163128
vn 0.0177238 -0.0178513 -0.00351579
vn 0.0102732 -0.0224598 0.00593123
vn -0.0127164 -0.0213473 0.00526733
vn -0.0178191 -0.017764 -0.00347579
vn 0.019966 -0.0151932 -0.00396055
vn 0.0102732 -0.0224598 -0.00593123
vn -0.0127164 -0.0213473 -0.00526733
vn 0 -0.0194493 -0.0163367
vn 0 0.0138356 0.0213011
vn 0 -0.0221652 -0.0124043
vn 0.00275171 -0.0230678 -0.0102696
vn 0.006574 -0 0.0245345
vn -0.00972015 0 0.0234666
vn -0.00386593 -0.0233047 -0.00933316
vn 0.0224835 0.0109436 0.00445994
vn 0 0.0138356 -0.0213011
vn 0.021997 -0 0.0127
vn -0.0234666 0 0.00972015
vn -0.0234666 0 -0.00972015
vn 0.0224915 0.0109234 0.00446916
vn 0.0224835 0.0109436 -0.00445994
vn 0.006574 0 -0.0245345
vn 0.021997 0 -0.0127
vn -0.00972015 0 -0.0234666
vn 0.0224915 0.0109234 -0.00446916
vn 0.0248985 0 -0.00502229
vn 0.0248985 0 0.00502229
vn 0.00863582 0 0.0238869
vn 0.0136243 0 0.0214368
vn -0.0136243 0 -0.0214368
vn -0.00863582 0 -0.0238869
vn 0.0219114 0 0.0128473
vn -0.0219114 0 -0.0128473
vn -0.0136243 0 0.0214368
vn -0.00863582 0 0.0238869
vn 0.00863582 0 -0.0238869
vn 0.0136243 0 -0.0214368
vn 0.0254 0 0
vn -0.0254 0 0
vn -0.0219114 0 0.0128473
vn 0.0219114 0 -0.0128473

# Mesh 'mesh1_mesh1-geometry' with 138 faces
g mesh1_mesh1-geometry
usemtl material_0_24
f  1/1/1 2/1/1 3/1/1
f  2/1/1 1/1/1 4/1/1
f  2/1/2 5/1/2 3/1/2
f  1/1/3 3/1/3 6/1/3
f  1/1/2 7/1/2 4/1/2
f  8/1/4 2/1/4 4/1/4
f  4/1/5 2/1/5 8/1/5
f  5/1/2 2/1/2 9/1/2
f  5/1/6 6/1/6 3/1/6
f  1/1/7 6/1/7 10/1/7
f  7/1/2 1/1/2 11/1/2
f  4/1/8 8/1/8 7/1/8
f  8/1/9 12/1/9 2/1/9
f  2/1/10 12/1/10 8/1/10
f  9/1/11 13/1/11 2/1/11
f  14/1/12 5/1/12 9/1/12
f  6/1/6 5/1/6 15/1/6
f  10/1/13 6/1/13 16/1/13
f  17/1/14 1/1/14 10/1/14
f  1/1/14 17/1/14 11/1/14
f  11/1/15 18/1/15 7/1/15
f  19/1/8 7/1/8 8/1/8
f  8/1/16 20/1/16 12/1/16
f  12/1/17 20/1/17 8/1/17
f  12/1/11 2/1/11 13/1/11
f  13/1/18 21/1/18 9/1/18
f  9/1/19 21/1/19 13/1/19
f  5/1/12 14/1/12 22/1/12
f  9/1/20 21/1/20 14/1/20
f  14/1/21 21/1/21 9/1/21
f  5/1/22 23/1/22 15/1/22
f  15/1/23 24/1/23 6/1/23
f  16/1/24 6/1/24 24/1/24
f  25/1/25 10/1/25 16/1/25
f  10/1/25 25/1/25 17/1/25
f  11/1/26 17/1/26 26/1/26
f  11/1/27 27/1/27 18/1/27
f  7/1/28 18/1/28 28/1/28
f  29/1/29 19/1/29 7/1/29
f  8/1/30 30/1/30 19/1/30
f  30/1/31 20/1/31 8/1/31
f  8/1/32 20/1/32 30/1/32
f  20/1/33 12/1/33 31/1/33
f  13/1/33 31/1/33 12/1/33
f  31/1/34 21/1/34 13/1/34
f  13/1/35 21/1/35 31/1/35
f  14/1/2 32/1/2 22/1/2
f  5/1/36 22/1/36 23/1/36
f  33/1/37 14/1/37 21/1/37
f  21/1/8 14/1/8 33/1/8
f  15/1/38 23/1/38 34/1/38
f  24/1/23 15/1/23 34/1/23
f  24/1/39 30/1/39 16/1/39
f  30/1/40 25/1/40 16/1/40
f  17/1/41 25/1/41 26/1/41
f  11/1/42 26/1/42 27/1/42
f  27/1/43 35/1/43 18/1/43
f  35/1/43 28/1/43 18/1/43
f  7/1/44 28/1/44 29/1/44
f  29/1/45 36/1/45 19/1/45
f  36/1/30 19/1/30 30/1/30
f  30/1/39 24/1/39 20/1/39
f  24/1/40 31/1/40 20/1/40
f  31/1/46 37/1/46 21/1/46
f  21/1/47 37/1/47 31/1/47
f  32/1/2 14/1/2 38/1/2
f  32/1/14 23/1/14 22/1/14
f  14/1/37 33/1/37 38/1/37
f  38/1/8 33/1/8 14/1/8
f  21/1/48 39/1/48 33/1/48
f  33/1/30 39/1/30 21/1/30
f  34/1/49 23/1/49 40/1/49
f  31/1/40 24/1/40 34/1/40
f  25/1/40 30/1/40 36/1/40
f  26/1/50 25/1/50 41/1/50
f  26/1/43 42/1/43 27/1/43
f  27/1/43 42/1/43 35/1/43
f  43/1/43 28/1/43 35/1/43
f  44/1/43 29/1/43 28/1/43
f  29/1/51 45/1/51 36/1/51
f  31/1/52 40/1/52 37/1/52
f  39/1/48 21/1/48 37/1/48
f  37/1/30 21/1/30 39/1/30
f  46/1/53 32/1/53 38/1/53
f  23/1/14 32/1/14 47/1/14
f  33/1/54 46/1/54 38/1/54
f  38/1/55 46/1/55 33/1/55
f  39/1/56 48/1/56 33/1/56
f  33/1/57 48/1/57 39/1/57
f  47/1/25 40/1/25 23/1/25
f  40/1/52 31/1/52 34/1/52
f  49/1/58 25/1/58 36/1/58
f  41/1/59 25/1/59 49/1/59
f  41/1/43 50/1/43 26/1/43
f  26/1/43 51/1/43 42/1/43
f  42/1/60 52/1/60 35/1/60
f  44/1/43 28/1/43 43/1/43
f  35/1/61 53/1/61 43/1/61
f  54/1/43 29/1/43 44/1/43
f  54/1/43 45/1/43 29/1/43
f  45/1/62 49/1/62 36/1/62
f  40/1/40 39/1/40 37/1/40
f  32/1/53 46/1/53 55/1/53
f  32/1/63 55/1/63 47/1/63
f  33/1/64 56/1/64 46/1/64
f  46/1/65 56/1/65 33/1/65
f  57/1/66 48/1/66 39/1/66
f  33/1/67 48/1/67 56/1/67
f  56/1/68 48/1/68 33/1/68
f  40/1/25 47/1/25 57/1/25
f  58/1/43 41/1/43 49/1/43
f  41/1/43 58/1/43 50/1/43
f  26/1/43 50/1/43 51/1/43
f  59/1/69 42/1/69 51/1/69
f  52/1/60 42/1/60 60/1/60
f  53/1/61 35/1/61 52/1/61
f  53/1/70 44/1/70 43/1/70
f  61/1/71 54/1/71 44/1/71
f  58/1/43 45/1/43 54/1/43
f  45/1/43 58/1/43 49/1/43
f  39/1/40 40/1/40 57/1/40
f  56/1/72 55/1/72 46/1/72
f  47/1/73 55/1/73 62/1/73
f  48/1/66 57/1/66 63/1/66
f  48/1/72 62/1/72 56/1/72
f  47/1/74 63/1/74 57/1/74
f  58/1/75 64/1/75 50/1/75
f  64/1/76 51/1/76 50/1/76
f  42/1/69 59/1/69 60/1/69
f  51/1/76 64/1/76 59/1/76
f  44/1/70 53/1/70 61/1/70
f  54/1/71 61/1/71 65/1/71
f  54/1/77 66/1/77 58/1/77
f  56/1/72 62/1/72 55/1/72
f  47/1/78 62/1/78 63/1/78
f  62/1/72 48/1/72 63/1/72
f  64/1/75 58/1/75 66/1/75
f  66/1/77 54/1/77 65/1/77

# Mesh 'mesh1_mesh1-geometry' with 98 faces
g mesh1_mesh1-geometry
usemtl material_1_24
f  3/1/79 2/1/79 1/1/79
f  4/1/79 1/1/79 2/1/79
f  3/1/40 5/1/40 2/1/40
f  6/1/80 3/1/80 1/1/80
f  4/1/40 7/1/40 1/1/40
f  9/1/40 2/1/40 5/1/40
f  3/1/81 6/1/81 5/1/81
f  10/1/82 6/1/82 1/1/82
f  11/1/40 1/1/40 7/1/40
f  9/1/83 5/1/83 14/1/83
f  15/1/81 5/1/81 6/1/81
f  16/1/84 6/1/84 10/1/84
f  10/1/85 1/1/85 17/1/85
f  11/1/85 17/1/85 1/1/85
f  7/1/86 18/1/86 11/1/86
f  22/1/83 14/1/83 5/1/83
f  15/1/87 23/1/87 5/1/87
f  6/1/88 24/1/88 15/1/88
f  24/1/89 6/1/89 16/1/89
f  16/1/90 10/1/90 25/1/90
f  17/1/90 25/1/90 10/1/90
f  26/1/91 17/1/91 11/1/91
f  18/1/92 27/1/92 11/1/92
f  28/1/93 18/1/93 7/1/93
f  7/1/94 19/1/94 29/1/94
f  22/1/40 32/1/40 14/1/40
f  23/1/95 22/1/95 5/1/95
f  34/1/96 23/1/96 15/1/96
f  34/1/88 15/1/88 24/1/88
f  16/1/97 30/1/97 24/1/97
f  16/1/2 25/1/2 30/1/2
f  26/1/98 25/1/98 17/1/98
f  27/1/99 26/1/99 11/1/99
f  18/1/72 35/1/72 27/1/72
f  18/1/72 28/1/72 35/1/72
f  29/1/100 28/1/100 7/1/100
f  19/1/101 36/1/101 29/1/101
f  20/1/97 24/1/97 30/1/97
f  20/1/2 31/1/2 24/1/2
f  38/1/40 14/1/40 32/1/40
f  22/1/85 23/1/85 32/1/85
f  40/1/102 23/1/102 34/1/102
f  34/1/2 24/1/2 31/1/2
f  36/1/2 30/1/2 25/1/2
f  41/1/103 25/1/103 26/1/103
f  27/1/72 42/1/72 26/1/72
f  35/1/72 42/1/72 27/1/72
f  35/1/72 28/1/72 43/1/72
f  28/1/72 29/1/72 44/1/72
f  36/1/104 45/1/104 29/1/104
f  37/1/105 40/1/105 31/1/105
f  38/1/106 32/1/106 46/1/106
f  47/1/85 32/1/85 23/1/85
f  23/1/90 40/1/90 47/1/90
f  34/1/105 31/1/105 40/1/105
f  36/1/107 25/1/107 49/1/107
f  49/1/108 25/1/108 41/1/108
f  26/1/72 50/1/72 41/1/72
f  42/1/72 51/1/72 26/1/72
f  35/1/109 52/1/109 42/1/109
f  43/1/72 28/1/72 44/1/72
f  43/1/110 53/1/110 35/1/110
f  44/1/72 29/1/72 54/1/72
f  29/1/72 45/1/72 54/1/72
f  36/1/111 49/1/111 45/1/111
f  37/1/2 39/1/2 40/1/2
f  55/1/106 46/1/106 32/1/106
f  47/1/112 55/1/112 32/1/112
f  39/1/113 48/1/113 57/1/113
f  57/1/90 47/1/90 40/1/90
f  49/1/72 41/1/72 58/1/72
f  50/1/72 58/1/72 41/1/72
f  51/1/72 50/1/72 26/1/72
f  51/1/114 42/1/114 59/1/114
f  60/1/109 42/1/109 52/1/109
f  52/1/110 35/1/110 53/1/110
f  43/1/115 44/1/115 53/1/115
f  44/1/116 54/1/116 61/1/116
f  54/1/72 45/1/72 58/1/72
f  49/1/72 58/1/72 45/1/72
f  57/1/2 40/1/2 39/1/2
f  46/1/43 55/1/43 56/1/43
f  62/1/117 55/1/117 47/1/117
f  63/1/113 57/1/113 48/1/113
f  56/1/43 62/1/43 48/1/43
f  57/1/118 63/1/118 47/1/118
f  50/1/119 64/1/119 58/1/119
f  50/1/120 51/1/120 64/1/120
f  60/1/114 59/1/114 42/1/114
f  59/1/120 64/1/120 51/1/120
f  61/1/115 53/1/115 44/1/115
f  65/1/116 61/1/116 54/1/116
f  58/1/121 66/1/121 54/1/121
f  55/1/43 62/1/43 56/1/43
f  63/1/122 62/1/122 47/1/122
f  63/1/43 48/1/43 62/1/43
f  66/1/119 58/1/119 64/1/119
f  65/1/121 54/1/121 66/1/121

# Mesh 'mesh1_mesh1-geometry' with 8 faces
g mesh1_mesh1-geometry
usemtl material_2_1_8
f  7/2/37 8/3/37 4/4/37
f  2/5/123 13/6/123 9/7/123
f  8/3/37 7/2/37 19/8/37
f  13/6/123 2/5/123 12/9/123
f  19/10/48 30/11/48 8/12/48
f  31/13/124 12/14/124 20/15/124
f  12/14/124 31/13/124 13/16/124
f  30/11/48 19/10/48 36/17/48

# Mesh 'mesh2_mesh2-geometry' with 156 faces
g mesh2_mesh2-geometry
usemtl material_3_24
f  67//125 68//126 69//126
f  68//126 67//125 70//125
f  69//127 68//127 67//128
f  70//128 67//128 68//127
f  68//126 71//129 69//126
f  69//127 71//130 68//127
f  69//126 72//125 67//125
f  67//128 72//128 69//127
f  69//43 73//43 67//43
f  67//72 73//72 69//72
f  73//131 70//132 67//132
f  67//133 70//133 73//134
f  74//72 68//72 70//72
f  70//43 68//43 74//43
f  71//129 68//126 75//129
f  75//130 68//127 71//130
f  73//43 69//43 71//43
f  71//72 69//72 73//72
f  76//129 69//126 71//129
f  71//130 69//127 76//130
f  72//125 69//126 77//126
f  77//127 69//127 72//128
f  78//131 67//132 72//132
f  72//133 67//133 78//134
f  67//132 78//131 73//131
f  73//134 78//134 67//133
f  70//132 73//131 74//131
f  74//134 73//134 70//133
f  68//72 74//72 75//72
f  75//43 74//43 68//43
f  75//129 79//135 71//129
f  71//130 79//136 75//130
f  73//43 71//43 80//43
f  80//72 71//72 73//72
f  69//126 76//129 77//126
f  77//127 76//130 69//127
f  71//129 81//135 76//129
f  76//130 81//136 71//130
f  77//43 78//43 72//43
f  72//72 78//72 77//72
f  82//137 73//131 78//131
f  78//134 73//134 82//138
f  80//137 74//131 73//131
f  73//134 74//134 80//138
f  75//72 74//72 83//72
f  83//43 74//43 75//43
f  79//135 75//129 84//135
f  84//136 75//130 79//136
f  85//43 71//43 79//43
f  79//72 71//72 85//72
f  81//135 71//129 79//135
f  79//136 71//130 81//136
f  80//43 71//43 85//43
f  85//72 71//72 80//72
f  73//131 82//137 80//137
f  80//138 82//138 73//134
f  78//43 77//43 76//43
f  76//72 77//72 78//72
f  86//43 76//43 81//43
f  81//72 76//72 86//72
f  78//43 76//43 82//43
f  82//72 76//72 78//72
f  74//131 80//137 83//137
f  83//138 80//138 74//134
f  75//72 83//72 87//72
f  87//43 83//43 75//43
f  75//72 87//72 84//72
f  84//43 87//43 75//43
f  84//135 88//138 79//135
f  79//136 88//137 84//136
f  85//43 79//43 88//43
f  88//72 79//72 85//72
f  79//135 89//138 81//135
f  81//136 89//137 79//136
f  87//136 80//137 85//136
f  85//135 80//138 87//135
f  82//137 85//136 80//137
f  80//138 85//135 82//138
f  82//43 76//43 86//43
f  86//72 76//72 82//72
f  86//43 81//43 89//43
f  89//72 81//72 86//72
f  80//137 87//136 83//137
f  83//138 87//135 80//138
f  84//72 87//72 90//72
f  90//43 87//43 84//43
f  88//138 84//135 90//138
f  90//137 84//136 88//137
f  89//138 79//135 88//138
f  88//137 79//136 89//137
f  85//43 88//43 91//43
f  91//72 88//72 85//72
f  85//136 92//130 87//136
f  87//135 92//129 85//135
f  85//136 82//137 86//136
f  86//135 82//138 85//135
f  86//43 89//43 93//43
f  93//72 89//72 86//72
f  90//72 87//72 92//72
f  92//43 87//43 90//43
f  90//138 94//134 88//138
f  88//137 94//131 90//137
f  88//138 95//134 89//138
f  89//137 95//131 88//137
f  91//43 88//43 96//43
f  96//72 88//72 91//72
f  92//130 85//136 91//130
f  91//129 85//135 92//129
f  86//136 91//130 85//136
f  85//135 91//129 86//135
f  93//43 89//43 97//43
f  97//72 89//72 93//72
f  91//130 86//136 93//130
f  93//129 86//135 91//129
f  90//72 92//72 98//72
f  98//43 92//43 90//43
f  94//134 90//138 99//134
f  99//131 90//137 94//131
f  96//43 88//43 94//43
f  94//72 88//72 96//72
f  95//134 88//138 94//134
f  94//131 88//137 95//131
f  97//43 89//43 95//43
f  95//72 89//72 97//72
f  98//127 91//130 96//127
f  96//126 91//129 98//126
f  93//130 96//127 91//130
f  91//129 96//126 93//129
f  91//130 98//127 92//130
f  92//129 98//126 91//129
f  96//127 93//130 97//127
f  97//126 93//129 96//126
f  90//72 98//72 99//72
f  99//43 98//43 90//43
f  100//133 94//134 99//134
f  99//131 94//131 100//132
f  96//43 94//43 101//43
f  101//72 94//72 96//72
f  101//133 95//134 94//134
f  94//131 95//131 101//132
f  97//43 95//43 102//43
f  102//72 95//72 97//72
f  101//128 98//127 96//127
f  96//126 98//126 101//125
f  102//128 96//127 97//127
f  97//126 96//126 102//125
f  99//72 98//72 100//72
f  100//43 98//43 99//43
f  94//134 100//133 101//133
f  101//132 100//132 94//131
f  96//127 102//128 101//128
f  101//125 102//125 96//126
f  95//134 101//133 102//133
f  102//132 101//132 95//131
f  98//127 101//128 100//128
f  100//125 101//125 98//126

