# File produced by Open Asset Import Library (http://www.assimp.sf.net)
# (assimp v3.2.202087883)

mtllib model_normalized.mtl

# 40 vertex positions
v -0.000000 -0.568287 0.127228
v 0.127228 -0.568287 -0.000000
v 0.089964 -0.568287 0.089964
v 0.089964 -0.568287 -0.089964
v 0.089964 0.025446 0.089964
v -0.000000 0.025446 0.127228
v -0.089964 -0.568287 0.089964
v 0.089964 0.025446 -0.089964
v 0.127228 0.025446 -0.000000
v -0.000000 -0.568287 -0.127228
v -0.000000 0.025446 -0.127228
v 0.059976 0.067855 0.059976
v -0.089964 0.025446 0.089964
v -0.127228 -0.568287 -0.000000
v 0.059976 0.067855 -0.059976
v -0.000000 0.067855 -0.084819
v 0.084819 0.067855 -0.000000
v -0.000000 0.067855 0.084819
v -0.089964 -0.568287 -0.089964
v -0.059976 0.067855 -0.059976
v 0.042409 0.110265 -0.000000
v -0.000000 0.110265 0.042409
v -0.059976 0.067855 0.059976
v -0.127228 0.025446 -0.000000
v -0.089964 0.025446 -0.089964
v 0.029988 0.110265 -0.029988
v -0.000000 0.110265 -0.042409
v 0.029988 0.110265 0.029988
v -0.084819 0.067855 -0.000000
v -0.029988 0.110265 -0.029988
v 0.029988 0.364721 0.029988
v 0.029988 0.364721 -0.029988
v -0.000000 0.364721 0.042409
v -0.029988 0.110265 0.029988
v -0.000000 0.364721 -0.042409
v 0.042409 0.364721 -0.000000
v -0.042409 0.110265 -0.000000
v -0.029988 0.364721 -0.029988
v -0.029988 0.364721 0.029988
v -0.042409 0.364721 -0.000000

# 0 UV coordinates

# 58 vertex normals
vn 0 -0.0120895 0.0223384
vn 0.0223384 -0.0120895 0
vn 0.0157956 -0.0120895 0.0157956
vn 0.0157956 -0.0120895 -0.0157956
vn -0.0157956 0.0120895 -0.0157956
vn -0.0223384 0.0120895 0
vn 0 0.0120895 -0.0223384
vn -0.0157956 0.0120895 0.0157956
vn 0.0165387 0.00990463 0.0165387
vn -0.0165387 -0.00990463 -0.0165387
vn 0 0.00990463 0.0233893
vn 0 -0.00990463 -0.0233893
vn -0.0157956 -0.0120895 0.0157956
vn 0.0157956 0.0120895 -0.0157956
vn 0.0165387 0.00990463 -0.0165387
vn -0.0165387 -0.00990463 0.0165387
vn 0.0233893 0.00990463 0
vn -0.0233893 -0.00990463 0
vn 0 -0.0120895 -0.0223384
vn 0 0.0120895 0.0223384
vn 0 0.00990463 -0.0233893
vn 0 -0.00990463 0.0233893
vn 0.0127 0.0179605 0.0127
vn -0.0127 -0.0179605 -0.0127
vn -0.0165387 0.00990463 0.0165387
vn 0.0165387 -0.00990463 -0.0165387
vn -0.0223384 -0.0120895 0
vn 0.0223384 0.0120895 0
vn 0.0127 0.0179605 -0.0127
vn -0.0127 -0.0179605 0.0127
vn 0 0.0179605 -0.0179605
vn 0 -0.0179605 0.0179605
vn 0.0179605 0.0179605 0
vn -0.0179605 -0.0179605 0
vn 0 0.0179605 0.0179605
vn 0 -0.0179605 -0.0179605
vn -0.0157956 -0.0120895 -0.0157956
vn 0.0157956 0.0120895 0.0157956
vn -0.0127 0.0179605 -0.0127
vn 0.0127 -0.0179605 0.0127
vn -0.0127 0.0179605 0.0127
vn 0.0127 -0.0179605 -0.0127
vn -0.0233893 0.00990463 0
vn 0.0233893 -0.00990463 0
vn -0.0165387 0.00990463 -0.0165387
vn 0.0165387 -0.00990463 0.0165387
vn -0.0179605 0.0179605 0
vn 0.0179605 -0.0179605 0
vn 0.0179605 0 0.0179605
vn -0.0179605 0 -0.0179605
vn 0.0179605 0 -0.0179605
vn -0.0179605 0 0.0179605
vn 0 0 0.0254
vn 0 0 -0.0254
vn 0.0254 0 0
vn -0.0254 0 0
vn 0 0.0254 0
vn 0 -0.0254 0

# Mesh 'mesh1_mesh1-geometry' with 152 faces
g mesh1_mesh1-geometry
usemtl material_0_24
f  1//1 2//2 3//3
f  2//2 1//1 4//4
f  3//5 2//6 1//7
f  4//8 1//7 2//6
f  2//2 5//9 3//3
f  3//5 5//10 2//6
f  3//3 6//11 1//1
f  1//7 6//12 3//5
f  4//4 1//1 7//13
f  7//14 1//7 4//8
f  8//15 2//2 4//4
f  4//8 2//6 8//16
f  5//9 2//2 9//17
f  9//18 2//6 5//10
f  6//11 3//3 5//9
f  5//10 3//5 6//12
f  6//11 7//13 1//1
f  1//7 7//14 6//12
f  4//4 7//13 10//19
f  10//20 7//14 4//8
f  2//2 8//15 9//17
f  9//18 8//16 2//6
f  4//4 11//21 8//15
f  8//16 11//22 4//8
f  9//17 12//23 5//9
f  5//10 12//24 9//18
f  12//23 6//11 5//9
f  5//10 6//12 12//24
f  7//13 6//11 13//25
f  13//26 6//12 7//14
f  10//19 7//13 14//27
f  14//28 7//14 10//20
f  11//21 4//4 10//19
f  10//20 4//8 11//22
f  15//29 9//17 8//15
f  8//16 9//18 15//30
f  16//31 8//15 11//21
f  11//22 8//16 16//32
f  12//23 9//17 17//33
f  17//34 9//18 12//24
f  6//11 12//23 18//35
f  18//36 12//24 6//12
f  18//35 13//25 6//11
f  6//12 13//26 18//36
f  13//25 14//27 7//13
f  7//14 14//28 13//26
f  10//19 14//27 19//37
f  19//38 14//28 10//20
f  19//37 11//21 10//19
f  10//20 11//22 19//38
f  9//17 15//29 17//33
f  17//34 15//30 9//18
f  8//15 16//31 15//29
f  15//30 16//32 8//16
f  11//21 20//39 16//31
f  16//32 20//40 11//22
f  21//17 12//23 17//33
f  17//34 12//24 21//18
f  12//23 22//11 18//35
f  18//36 22//12 12//24
f  13//25 18//35 23//41
f  23//42 18//36 13//26
f  14//27 13//25 24//43
f  24//44 13//26 14//28
f  14//27 25//45 19//37
f  19//38 25//46 14//28
f  11//21 19//37 25//45
f  25//46 19//38 11//22
f  26//15 17//33 15//29
f  15//30 17//34 26//16
f  27//21 15//29 16//31
f  16//32 15//30 27//22
f  20//39 11//21 25//45
f  25//46 11//22 20//40
f  20//39 27//21 16//31
f  16//32 27//22 20//40
f  12//23 21//17 28//9
f  28//10 21//18 12//24
f  17//33 26//15 21//17
f  21//18 26//16 17//34
f  22//11 12//23 28//9
f  28//10 12//24 22//12
f  22//11 23//41 18//35
f  18//36 23//42 22//12
f  29//47 13//25 23//41
f  23//42 13//26 29//48
f  13//25 29//47 24//43
f  24//44 29//48 13//26
f  25//45 14//27 24//43
f  24//44 14//28 25//46
f  15//29 27//21 26//15
f  26//16 27//22 15//30
f  24//43 20//39 25//45
f  25//46 20//40 24//44
f  27//21 20//39 30//45
f  30//46 20//40 27//22
f  21//17 31//49 28//9
f  28//10 31//50 21//18
f  32//51 21//17 26//15
f  26//16 21//18 32//52
f  28//9 33//53 22//11
f  22//12 33//54 28//10
f  23//41 22//11 34//25
f  34//26 22//12 23//42
f  34//25 29//47 23//41
f  23//42 29//48 34//26
f  20//39 24//43 29//47
f  29//48 24//44 20//40
f  35//54 26//15 27//21
f  27//22 26//16 35//53
f  29//47 30//45 20//39
f  20//40 30//46 29//48
f  30//45 35//54 27//21
f  27//22 35//53 30//46
f  31//49 21//17 36//55
f  36//56 21//18 31//50
f  33//53 28//9 31//49
f  31//50 28//10 33//54
f  21//17 32//51 36//55
f  36//56 32//52 21//18
f  26//15 35//54 32//51
f  32//52 35//53 26//16
f  33//53 34//25 22//11
f  22//12 34//26 33//54
f  29//47 34//25 37//43
f  37//44 34//26 29//48
f  30//45 29//47 37//43
f  37//44 29//48 30//46
f  35//54 30//45 38//50
f  38//49 30//46 35//53
f  36//57 33//57 31//57
f  31//58 33//58 36//58
f  33//57 36//57 32//57
f  32//58 36//58 33//58
f  39//57 32//57 35//57
f  35//58 32//58 39//58
f  34//25 33//53 39//52
f  39//51 33//54 34//26
f  39//52 37//43 34//25
f  34//26 37//44 39//51
f  37//43 38//50 30//45
f  30//46 38//49 37//44
f  40//57 35//57 38//57
f  38//58 35//58 40//58
f  33//57 32//57 39//57
f  39//58 32//58 33//58
f  39//57 35//57 40//57
f  40//58 35//58 39//58
f  37//43 39//52 40//56
f  40//55 39//51 37//44
f  38//50 37//43 40//56
f  40//55 37//44 38//49

# Mesh 'mesh2_mesh2-geometry' with 8 faces
g mesh2_mesh2-geometry
usemtl material_0_0
l  38 40
l  35 38
l  40 39
l  32 35
l  39 33
l  36 32
l  33 31
l  31 36

