# File produced by Open Asset Import Library (http://www.assimp.sf.net)
# (assimp v3.2.202087883)

mtllib model_normalized.mtl

# 96 vertex positions
v -0.000000 -0.519283 0.113505
v 0.052906 0.127693 0.110205
v 0.052906 -0.519283 0.110205
v -0.000000 0.127693 0.113505
v 0.104991 0.127693 0.100357
v -0.052906 -0.519283 0.110205
v -0.000000 0.127693 0.079453
v 0.104991 -0.519283 0.100357
v -0.052906 0.127693 0.110205
v 0.155448 0.127693 0.084114
v -0.104991 -0.519283 0.100357
v -0.104991 0.127693 0.100357
v 0.155448 -0.519283 0.084114
v 0.203497 0.127693 0.061727
v -0.155448 0.127693 0.084114
v -0.000000 0.127693 -0.079453
v -0.155448 -0.519283 0.084114
v -0.203497 0.127693 0.061727
v 0.203497 -0.519283 0.061727
v 0.248392 0.127693 0.033544
v -0.203497 -0.519283 0.061727
v -0.248392 0.127693 0.033544
v 0.289437 0.127693 -0.000000
v -0.248392 -0.519283 0.033544
v 0.248392 -0.519283 0.033544
v -0.289437 0.127693 -0.000000
v 0.248392 0.127693 -0.033544
v -0.289437 -0.519283 -0.000000
v -0.248392 0.127693 -0.033544
v 0.203497 0.127693 -0.061727
v 0.289437 -0.519283 -0.000000
v -0.248392 -0.519283 -0.033544
v -0.203497 0.127693 -0.061727
v 0.155448 0.127693 -0.084114
v 0.248392 -0.519283 -0.033544
v -0.203497 -0.519283 -0.061727
v -0.155448 0.127693 -0.084114
v -0.000000 0.127693 -0.113505
v 0.203497 -0.519283 -0.061727
v -0.155448 -0.519283 -0.084114
v 0.104991 0.127693 -0.100357
v 0.155448 -0.519283 -0.084114
v -0.104991 -0.519283 -0.100357
v -0.104991 0.127693 -0.100357
v 0.052906 0.127693 -0.110205
v -0.052906 0.127693 -0.110205
v 0.052906 -0.519283 -0.110205
v 0.104991 -0.519283 -0.100357
v -0.052906 -0.519283 -0.110205
v -0.000000 -0.519283 -0.113505
v -0.020564 0.127693 0.076746
v 0.020564 0.127693 0.076746
v -0.039727 0.127693 0.068808
v -0.000000 0.263898 0.079453
v -0.020564 0.263898 0.076746
v -0.039727 0.263898 0.068808
v 0.039727 0.127693 0.068808
v 0.020564 0.263898 0.076746
v -0.056181 0.263898 0.056182
v -0.056181 0.127693 0.056182
v 0.039727 0.263898 0.068808
v 0.056181 0.127693 0.056182
v -0.068809 0.127693 0.039727
v 0.056181 0.263898 0.056182
v -0.068809 0.263898 0.039727
v 0.068809 0.127693 0.039727
v -0.076746 0.127693 0.020564
v 0.068809 0.263898 0.039727
v -0.076746 0.263898 0.020564
v 0.076746 0.127693 0.020564
v 0.076746 0.263898 0.020564
v -0.079453 0.127693 -0.000000
v -0.079453 0.263898 -0.000000
v 0.079453 0.127693 -0.000000
v 0.079453 0.263898 -0.000000
v -0.076746 0.127693 -0.020564
v -0.076746 0.263898 -0.020564
v 0.076746 0.127693 -0.020564
v 0.076746 0.263898 -0.020564
v -0.068809 0.127693 -0.039727
v -0.068809 0.263898 -0.039727
v 0.068809 0.127693 -0.039727
v 0.068809 0.263898 -0.039727
v -0.056181 0.127693 -0.056181
v -0.056181 0.263898 -0.056181
v 0.056181 0.127693 -0.056181
v 0.056181 0.263898 -0.056181
v -0.039727 0.263898 -0.068809
v -0.039727 0.127693 -0.068809
v 0.039727 0.127693 -0.068809
v -0.020564 0.263898 -0.076746
v 0.039727 0.263898 -0.068809
v -0.020564 0.127693 -0.076746
v 0.020564 0.127693 -0.076746
v -0.000000 0.263898 -0.079453
v 0.020564 0.263898 -0.076746

# 0 UV coordinates

# 54 vertex normals
vn -6.2248e-05 0 -0.000998061
vn -0.000124254 0 -0.00099225
vn 0.000124254 -0 0.00099225
vn 6.2248e-05 -0 0.000998061
vn -0.000246581 0 -0.000969122
vn 0.000246581 -0 0.000969122
vn 0.000124254 0 -0.00099225
vn 6.2248e-05 0 -0.000998061
vn -6.2248e-05 0 0.000998061
vn -0.000124254 0 0.00099225
vn 0 -0.001 0
vn 0 0.001 0
vn -0.000365088 0 -0.000930973
vn 0.000365088 -0 0.000930973
vn 0.000246581 0 -0.000969122
vn -0.000246581 0 0.000969122
vn -0.000477935 0 -0.000878395
vn 0.000477935 -0 0.000878395
vn 0.000365088 0 -0.000930973
vn -0.000365088 0 0.000930973
vn 0.000477935 0 -0.000878395
vn -0.000477935 0 0.000878395
vn -0.000583375 0 -0.000812203
vn 0.000583375 -0 0.000812203
vn 0.000583375 0 -0.000812203
vn -0.000583375 0 0.000812203
vn -0.000632801 0 -0.000774314
vn 0.000632801 -0 0.000774314
vn 0.000632801 0 -0.000774314
vn -0.000632801 0 0.000774314
vn 0.000130526 0 0.000991445
vn -0.000130526 0 -0.000991445
vn -0.000130526 0 0.000991445
vn 0.000130526 0 -0.000991445
vn -0.000382683 0 0.00092388
vn 0.000382683 0 -0.00092388
vn -0.000608761 0 0.000793353
vn 0.000608761 0 -0.000793353
vn 0.000382683 0 0.00092388
vn -0.000382683 0 -0.00092388
vn -0.000793353 0 0.000608761
vn 0.000793353 0 -0.000608761
vn 0.000608761 0 0.000793353
vn -0.000608761 0 -0.000793353
vn -0.00092388 0 0.000382683
vn 0.00092388 0 -0.000382683
vn 0.000793353 0 0.000608761
vn -0.000793353 0 -0.000608761
vn 0.00092388 0 0.000382683
vn -0.00092388 0 -0.000382683
vn -0.000991445 0 0.000130526
vn 0.000991445 0 -0.000130526
vn 0.000991445 0 0.000130526
vn -0.000991445 0 -0.000130526

# Mesh 'mesh1_mesh1-geometry' with 148 faces
g mesh1_mesh1-geometry
usemtl material_0_24
f  1//1 2//2 3//2
f  2//2 1//1 4//1
f  3//3 2//3 1//4
f  4//4 1//4 2//3
f  5//5 3//2 2//2
f  2//3 3//3 5//6
f  6//7 4//8 1//8
f  1//9 4//9 6//10
f  7//11 2//11 4//11
f  4//12 2//12 7//12
f  3//2 5//5 8//5
f  8//6 5//6 3//3
f  2//11 7//11 5//11
f  5//12 7//12 2//12
f  4//8 6//7 9//7
f  9//10 6//10 4//9
f  9//11 7//11 4//11
f  4//12 7//12 9//12
f  10//13 8//5 5//5
f  5//6 8//6 10//14
f  5//11 7//11 10//11
f  10//12 7//12 5//12
f  11//15 9//7 6//7
f  6//10 9//10 11//16
f  7//11 9//11 12//11
f  12//12 9//12 7//12
f  8//5 10//13 13//13
f  13//14 10//14 8//6
f  10//11 7//11 14//11
f  14//12 7//12 10//12
f  9//7 11//15 12//15
f  12//16 11//16 9//10
f  7//11 12//11 15//11
f  15//12 12//12 7//12
f  14//17 13//13 10//13
f  10//14 13//14 14//18
f  14//11 7//11 16//11
f  16//12 7//12 14//12
f  17//19 12//15 11//15
f  11//16 12//16 17//20
f  12//15 17//19 15//19
f  15//20 17//20 12//16
f  7//11 15//11 18//11
f  18//12 15//12 7//12
f  13//13 14//17 19//17
f  19//18 14//18 13//14
f  7//11 18//11 16//11
f  16//12 18//12 7//12
f  14//11 16//11 20//11
f  20//12 16//12 14//12
f  21//21 15//19 17//19
f  17//20 15//20 21//22
f  15//19 21//21 18//21
f  18//22 21//22 15//20
f  20//23 19//17 14//17
f  14//18 19//18 20//24
f  16//11 18//11 22//11
f  22//12 18//12 16//12
f  20//11 16//11 23//11
f  23//12 16//12 20//12
f  24//25 18//21 21//21
f  21//22 18//22 24//26
f  19//17 20//23 25//23
f  25//24 20//24 19//18
f  18//21 24//25 22//25
f  22//26 24//26 18//22
f  16//11 22//11 26//11
f  26//12 22//12 16//12
f  23//11 16//11 27//11
f  27//12 16//12 23//12
f  23//27 25//23 20//23
f  20//24 25//24 23//28
f  28//29 22//25 24//25
f  24//26 22//26 28//30
f  22//25 28//29 26//29
f  26//30 28//30 22//26
f  16//11 26//11 29//11
f  29//12 26//12 16//12
f  27//11 16//11 30//11
f  30//12 16//12 27//12
f  27//26 31//30 23//30
f  23//29 31//29 27//25
f  25//23 23//27 31//27
f  31//28 23//28 25//24
f  32//24 26//28 28//28
f  28//27 26//27 32//23
f  26//28 32//24 29//24
f  29//23 32//23 26//27
f  16//11 29//11 33//11
f  33//12 29//12 16//12
f  30//11 16//11 34//11
f  34//12 16//12 30//12
f  30//22 35//26 27//26
f  27//25 35//25 30//21
f  31//30 27//26 35//26
f  35//25 27//25 31//29
f  36//18 29//24 32//24
f  32//23 29//23 36//17
f  29//24 36//18 33//18
f  33//17 36//17 29//23
f  16//11 33//11 37//11
f  37//12 33//12 16//12
f  34//11 16//11 38//11
f  38//12 16//12 34//12
f  34//20 39//22 30//22
f  30//21 39//21 34//19
f  35//26 30//22 39//22
f  39//21 30//21 35//25
f  40//14 33//18 36//18
f  36//17 33//17 40//13
f  33//18 40//14 37//14
f  37//13 40//13 33//17
f  16//11 37//11 38//11
f  38//12 37//12 16//12
f  34//11 38//11 41//11
f  41//12 38//12 34//12
f  39//22 34//20 42//20
f  42//19 34//19 39//21
f  43//6 37//14 40//14
f  40//13 37//13 43//5
f  38//11 37//11 44//11
f  44//12 37//12 38//12
f  41//11 38//11 45//11
f  45//12 38//12 41//12
f  41//16 42//20 34//20
f  34//19 42//19 41//15
f  37//14 43//6 44//6
f  44//5 43//5 37//13
f  38//11 44//11 46//11
f  46//12 44//12 38//12
f  38//9 47//10 45//10
f  45//7 47//7 38//8
f  45//10 48//16 41//16
f  41//15 48//15 45//7
f  42//20 41//16 48//16
f  48//15 41//15 42//19
f  49//3 44//6 43//6
f  43//5 44//5 49//2
f  44//6 49//3 46//3
f  46//2 49//2 44//5
f  46//3 50//4 38//4
f  38//1 50//1 46//2
f  47//10 38//9 50//9
f  50//8 38//8 47//7
f  48//16 45//10 47//10
f  47//7 45//7 48//15
f  50//4 46//3 49//3
f  49//2 46//2 50//1

# Mesh 'mesh2_mesh2-geometry' with 184 faces
g mesh2_mesh2-geometry
usemtl material_0_24
f  51//11 52//11 7//11
f  52//11 51//11 53//11
f  7//12 52//12 51//12
f  53//12 51//12 52//12
f  52//31 54//31 7//31
f  7//32 54//32 52//32
f  7//33 55//33 51//33
f  51//34 55//34 7//34
f  51//35 56//35 53//35
f  53//36 56//36 51//36
f  52//11 53//11 57//11
f  57//12 53//12 52//12
f  54//31 52//31 58//31
f  58//32 52//32 54//32
f  55//33 7//33 54//33
f  54//34 7//34 55//34
f  56//35 51//35 55//35
f  55//36 51//36 56//36
f  59//37 53//37 56//37
f  56//38 53//38 59//38
f  57//11 53//11 60//11
f  60//12 53//12 57//12
f  57//39 58//39 52//39
f  52//40 58//40 57//40
f  58//12 55//12 54//12
f  54//11 55//11 58//11
f  55//12 58//12 56//12
f  56//11 58//11 55//11
f  53//37 59//37 60//37
f  60//38 59//38 53//38
f  56//12 61//12 59//12
f  59//11 61//11 56//11
f  57//11 60//11 62//11
f  62//12 60//12 57//12
f  58//39 57//39 61//39
f  61//40 57//40 58//40
f  56//12 58//12 61//12
f  61//11 58//11 56//11
f  59//41 63//41 60//41
f  60//42 63//42 59//42
f  59//12 61//12 64//12
f  64//11 61//11 59//11
f  62//11 60//11 63//11
f  63//12 60//12 62//12
f  62//43 61//43 57//43
f  57//44 61//44 62//44
f  63//41 59//41 65//41
f  65//42 59//42 63//42
f  61//43 62//43 64//43
f  64//44 62//44 61//44
f  59//12 64//12 65//12
f  65//11 64//11 59//11
f  62//11 63//11 66//11
f  66//12 63//12 62//12
f  65//45 67//45 63//45
f  63//46 67//46 65//46
f  62//47 68//47 64//47
f  64//48 68//48 62//48
f  65//12 64//12 68//12
f  68//11 64//11 65//11
f  66//11 63//11 67//11
f  67//12 63//12 66//12
f  68//47 62//47 66//47
f  66//48 62//48 68//48
f  67//45 65//45 69//45
f  69//46 65//46 67//46
f  65//12 68//12 69//12
f  69//11 68//11 65//11
f  66//11 67//11 70//11
f  70//12 67//12 66//12
f  66//49 71//49 68//49
f  68//50 71//50 66//50
f  69//51 72//51 67//51
f  67//52 72//52 69//52
f  69//12 68//12 71//12
f  71//11 68//11 69//11
f  70//11 67//11 72//11
f  72//12 67//12 70//12
f  71//49 66//49 70//49
f  70//50 66//50 71//50
f  72//51 69//51 73//51
f  73//52 69//52 72//52
f  69//12 71//12 73//12
f  73//11 71//11 69//11
f  70//11 72//11 74//11
f  74//12 72//12 70//12
f  70//53 75//53 71//53
f  71//54 75//54 70//54
f  73//54 76//54 72//54
f  72//53 76//53 73//53
f  73//12 71//12 75//12
f  75//11 71//11 73//11
f  74//11 72//11 76//11
f  76//12 72//12 74//12
f  75//53 70//53 74//53
f  74//54 70//54 75//54
f  76//54 73//54 77//54
f  77//53 73//53 76//53
f  73//12 75//12 77//12
f  77//11 75//11 73//11
f  74//11 76//11 78//11
f  78//12 76//12 74//12
f  74//52 79//52 75//52
f  75//51 79//51 74//51
f  77//50 80//50 76//50
f  76//49 80//49 77//49
f  77//12 75//12 79//12
f  79//11 75//11 77//11
f  78//11 76//11 80//11
f  80//12 76//12 78//12
f  79//52 74//52 78//52
f  78//51 74//51 79//51
f  80//50 77//50 81//50
f  81//49 77//49 80//49
f  77//12 79//12 81//12
f  81//11 79//11 77//11
f  78//11 80//11 82//11
f  82//12 80//12 78//12
f  78//46 83//46 79//46
f  79//45 83//45 78//45
f  81//48 84//48 80//48
f  80//47 84//47 81//47
f  81//12 79//12 83//12
f  83//11 79//11 81//11
f  82//11 80//11 84//11
f  84//12 80//12 82//12
f  83//46 78//46 82//46
f  82//45 78//45 83//45
f  84//48 81//48 85//48
f  85//47 81//47 84//47
f  81//12 83//12 85//12
f  85//11 83//11 81//11
f  82//11 84//11 86//11
f  86//12 84//12 82//12
f  82//42 87//42 83//42
f  83//41 87//41 82//41
f  88//44 84//44 85//44
f  85//43 84//43 88//43
f  85//12 83//12 87//12
f  87//11 83//11 85//11
f  86//11 84//11 89//11
f  89//12 84//12 86//12
f  87//42 82//42 86//42
f  86//41 82//41 87//41
f  84//44 88//44 89//44
f  89//43 88//43 84//43
f  85//12 87//12 88//12
f  88//11 87//11 85//11
f  86//11 89//11 90//11
f  90//12 89//12 86//12
f  90//38 87//38 86//38
f  86//37 87//37 90//37
f  91//40 89//40 88//40
f  88//39 89//39 91//39
f  88//12 87//12 92//12
f  92//11 87//11 88//11
f  90//11 89//11 93//11
f  93//12 89//12 90//12
f  87//38 90//38 92//38
f  92//37 90//37 87//37
f  89//40 91//40 93//40
f  93//39 91//39 89//39
f  88//12 92//12 91//12
f  91//11 92//11 88//11
f  90//11 93//11 94//11
f  94//12 93//12 90//12
f  94//36 92//36 90//36
f  90//35 92//35 94//35
f  95//32 93//32 91//32
f  91//31 93//31 95//31
f  91//12 92//12 96//12
f  96//11 92//11 91//11
f  94//11 93//11 16//11
f  16//12 93//12 94//12
f  92//36 94//36 96//36
f  96//35 94//35 92//35
f  93//32 95//32 16//32
f  16//31 95//31 93//31
f  91//12 96//12 95//12
f  95//11 96//11 91//11
f  16//34 96//34 94//34
f  94//33 96//33 16//33
f  96//34 16//34 95//34
f  95//33 16//33 96//33

# Mesh 'mesh3_mesh3-geometry' with 103 faces
g mesh3_mesh3-geometry
usemtl material_0_0
l  1 4
l  7 4
l  9 4
l  4 2
l  16 7
l  7 54
l  52 7
l  7 51
l  12 9
l  2 5
l  38 16
l  16 95
l  93 16
l  16 94
l  58 54
l  54 55
l  52 58
l  57 52
l  51 55
l  51 53
l  15 12
l  5 10
l  38 46
l  45 38
l  50 38
l  91 95
l  95 96
l  93 91
l  89 93
l  94 96
l  94 90
l  61 58
l  55 56
l  57 61
l  62 57
l  53 56
l  53 60
l  18 15
l  10 14
l  46 44
l  41 45
l  88 91
l  96 92
l  89 88
l  84 89
l  90 92
l  90 86
l  64 61
l  56 59
l  62 64
l  66 62
l  60 59
l  60 63
l  22 18
l  14 20
l  44 37
l  34 41
l  85 88
l  92 87
l  84 85
l  80 84
l  86 87
l  86 82
l  68 64
l  59 65
l  66 68
l  70 66
l  63 65
l  63 67
l  26 22
l  20 23
l  37 33
l  30 34
l  81 85
l  87 83
l  80 81
l  76 80
l  82 83
l  82 78
l  71 68
l  65 69
l  70 71
l  74 70
l  67 69
l  67 72
l  28 26
l  29 26
l  31 23
l  23 27
l  33 29
l  27 30
l  77 81
l  83 79
l  76 77
l  72 76
l  78 79
l  78 74
l  75 71
l  69 73
l  74 75
l  72 73
l  73 77
l  79 75

