# File produced by Open Asset Import Library (http://www.assimp.sf.net)
# (assimp v3.2.202087883)

mtllib model_normalized.mtl

# 100 vertex positions
v -0.020555 0.175586 0.030681
v -0.038589 0.275301 0.024821
v -0.038589 0.175586 0.024821
v -0.020555 0.275301 0.030681
v -0.049734 0.175586 0.009481
v -0.020555 0.091215 0.106617
v -0.002521 0.175586 0.024821
v -0.049734 0.275301 0.009481
v -0.121953 0.091215 0.032946
v -0.083223 0.091215 0.086254
v 0.042112 0.091215 0.086254
v -0.002521 0.275301 0.024821
v -0.049734 0.275301 0.000000
v -0.121953 0.091215 0.000000
v -0.020555 0.006842 0.122724
v 0.051580 0.006842 0.099286
v 0.008624 0.275301 0.009481
v 0.080843 0.091215 0.032946
v -0.049734 0.175586 0.000000
v -0.137273 0.006842 0.037924
v -0.137273 0.006842 0.000000
v -0.092690 0.006842 0.099286
v 0.008624 0.175586 0.009481
v -0.020555 -0.565870 0.122724
v 0.051580 -0.030742 0.099286
v 0.096163 0.006842 0.037924
v 0.008624 0.275301 0.000000
v 0.008624 0.175586 0.000000
v -0.137273 -0.565870 0.037924
v -0.137273 -0.565870 0.000000
v -0.092690 -0.565870 0.099286
v -0.020555 -0.276191 0.122724
v -0.020555 -0.030742 0.122724
v 0.080843 0.091215 0.000000
v 0.051580 -0.565870 0.099286
v 0.096163 -0.030742 0.037924
v 0.096163 0.006842 0.000000
v 0.096163 -0.565870 0.037924
v 0.051580 -0.276191 0.099286
v 0.096163 -0.565870 0.000000
v 0.096163 -0.276191 0.037924
v 0.096163 -0.030742 0.000000
v 0.096163 -0.276191 0.000000
v -0.038589 0.375014 0.024821
v -0.020555 0.375014 0.030681
v -0.002521 0.375014 0.024821
v -0.049734 0.375014 0.009481
v 0.008624 0.375014 0.009481
v -0.049734 0.375014 0.000000
v 0.008624 0.375014 0.000000
v -0.001102 -0.051196 0.116403
v -0.001102 -0.255737 0.116403
v 0.051580 -0.051196 0.099286
v 0.051580 -0.255737 0.099286
v 0.096163 -0.051196 0.037924
v 0.096163 -0.255737 0.037924
v 0.096163 -0.255737 0.000000
v 0.096163 -0.051196 0.000000
v -0.038589 0.175586 -0.024821
v -0.038589 0.275301 -0.024821
v -0.020555 0.175586 -0.030681
v -0.049734 0.175586 -0.009481
v -0.020555 0.275301 -0.030681
v -0.020555 0.091215 -0.106617
v -0.121953 0.091215 -0.032946
v -0.049734 0.275301 -0.009481
v -0.002521 0.175586 -0.024821
v 0.042112 0.091215 -0.086254
v -0.083223 0.091215 -0.086254
v -0.002521 0.275301 -0.024821
v 0.051580 0.006842 -0.099286
v -0.020555 0.006842 -0.122724
v -0.137273 0.006842 -0.037924
v 0.008624 0.275301 -0.009481
v 0.080843 0.091215 -0.032946
v -0.092690 0.006842 -0.099286
v 0.008624 0.175586 -0.009481
v 0.096163 0.006842 -0.037924
v 0.051580 -0.030742 -0.099286
v -0.020555 -0.565870 -0.122724
v -0.137273 -0.565870 -0.037924
v -0.020555 -0.030742 -0.122724
v -0.020555 -0.276191 -0.122724
v -0.092690 -0.565870 -0.099286
v 0.096163 -0.030742 -0.037924
v 0.051580 -0.565870 -0.099286
v 0.096163 -0.565870 -0.037924
v 0.051580 -0.276191 -0.099286
v 0.096163 -0.276191 -0.037924
v -0.038589 0.375014 -0.024821
v -0.020555 0.375014 -0.030681
v -0.049734 0.375014 -0.009481
v -0.002521 0.375014 -0.024821
v 0.008624 0.375014 -0.009481
v -0.001102 -0.051196 -0.116403
v 0.051580 -0.051196 -0.099286
v -0.001102 -0.255737 -0.116403
v 0.096163 -0.051196 -0.037924
v 0.051580 -0.255737 -0.099286
v 0.096163 -0.255737 -0.037924

# 0 UV coordinates

# 90 vertex normals
vn 0 0.00919917 0.0236756
vn -0.0149297 0 0.020549
vn -0.0139162 0.00919917 0.019154
vn 0 0 0.0254
vn 0.0139162 -0.00919917 -0.019154
vn 0.0149297 0 -0.020549
vn -0 -0.00919917 -0.0236756
vn -0 -0 -0.0254
vn -0.0225168 0.00919917 0.00731616
vn 0.0225168 -0.00919917 -0.00731616
vn 0 0.0113567 0.0227197
vn 0 -0.0113567 -0.0227197
vn 0.0139162 0.00919917 0.019154
vn -0.0139162 -0.00919917 -0.019154
vn -0.0241568 0 0.00784903
vn 0.0241568 0 -0.00784903
vn -0.0216077 0.0113567 0.00702076
vn 0.0216077 -0.0113567 -0.00702076
vn -0.0133543 0.0113567 0.0183806
vn 0.0133543 -0.0113567 -0.0183806
vn 0.0133543 0.0113567 0.0183806
vn -0.0133543 -0.0113567 -0.0183806
vn 0.0149297 0 0.020549
vn -0.0149297 -0 -0.020549
vn -0.0254 -0 -0
vn 0.0254 0 0
vn -0.0229397 0.0109055 0
vn 0.0229397 -0.0109055 0
vn 0 0.00239418 0.0252869
vn 0 -0.00239418 -0.0252869
vn 0.0148633 0.00239418 0.0204575
vn -0.0148633 -0.00239418 -0.0204575
vn 0.0241568 0 0.00784903
vn -0.0241568 -0 -0.00784903
vn 0.0216077 0.0113567 0.00702076
vn -0.0216077 -0.0113567 -0.00702076
vn -0.0238253 0.00880425 0
vn 0.0238253 -0.00880425 0
vn -0.0240493 0.00239418 0.00781408
vn 0.0240493 -0.00239418 -0.00781408
vn -0.0252976 0.00227797 0
vn 0.0252976 -0.00227797 0
vn -0.0148633 0.00239418 0.0204575
vn 0.0148633 -0.00239418 -0.0204575
vn 0.0225168 0.00919917 0.00731616
vn -0.0225168 -0.00919917 -0.00731616
vn 0.0240493 0.00239418 0.00781408
vn -0.0240493 -0.00239418 -0.00781408
vn 0.0238253 0.00880425 0
vn -0.0238253 -0.00880425 -0
vn 0.0229397 0.0109055 0
vn -0.0229397 -0.0109055 0
vn 0 -0.0254 0
vn 0 0.0254 0
vn 0.0252976 0.00227797 0
vn -0.0252976 -0.00227797 0
vn 0.00784903 0 0.0241568
vn -0.00784903 -0 -0.0241568
vn -0.0139162 0.00919917 -0.019154
vn 0 0.00919917 -0.0236756
vn 0 -0.00919917 0.0236756
vn 0.0139162 -0.00919917 0.019154
vn -0.0225168 0.00919917 -0.00731616
vn 0.0225168 -0.00919917 0.00731616
vn 0 0.0113567 -0.0227197
vn 0 -0.0113567 0.0227197
vn -0.0216077 0.0113567 -0.00702076
vn 0.0216077 -0.0113567 0.00702076
vn 0.0139162 0.00919917 -0.019154
vn -0.0139162 -0.00919917 0.019154
vn 0.0133543 0.0113567 -0.0183806
vn -0.0133543 -0.0113567 0.0183806
vn -0.0133543 0.0113567 -0.0183806
vn 0.0133543 -0.0113567 0.0183806
vn 0.0148633 0.00239418 -0.0204575
vn -0.0148633 -0.00239418 0.0204575
vn 0 0.00239418 -0.0252869
vn 0 -0.00239418 0.0252869
vn -0.0240493 0.00239418 -0.00781408
vn 0.0240493 -0.00239418 0.00781408
vn 0.0216077 0.0113567 -0.00702076
vn -0.0216077 -0.0113567 0.00702076
vn -0.0148633 0.00239418 -0.0204575
vn 0.0148633 -0.00239418 0.0204575
vn 0.0225168 0.00919917 -0.00731616
vn -0.0225168 -0.00919917 0.00731616
vn 0.0240493 0.00239418 -0.00781408
vn -0.0240493 -0.00239418 0.00781408
vn 0.00784903 0 -0.0241568
vn -0.00784903 0 0.0241568

# Mesh 'mesh1_mesh1-geometry' with 122 faces
g mesh1_mesh1-geometry
usemtl material_0_24
f  1//1 2//2 3//3
f  2//2 1//1 4//4
f  3//5 2//6 1//7
f  4//8 1//7 2//6
f  2//2 5//9 3//3
f  3//5 5//10 2//6
f  3//3 6//11 1//1
f  1//7 6//12 3//5
f  7//13 4//4 1//1
f  1//7 4//8 7//14
f  5//9 2//2 8//15
f  8//16 2//6 5//10
f  9//17 3//3 5//9
f  5//10 3//5 9//18
f  6//11 3//3 10//19
f  10//20 3//5 6//12
f  11//21 1//1 6//11
f  6//12 1//7 11//22
f  4//4 7//13 12//23
f  12//24 7//14 4//8
f  1//1 11//21 7//13
f  7//14 11//22 1//7
f  13//25 5//9 8//15
f  8//16 5//10 13//26
f  3//3 9//17 10//19
f  10//20 9//18 3//5
f  5//9 14//27 9//17
f  9//18 14//28 5//10
f  10//19 15//29 6//11
f  6//12 15//30 10//20
f  6//11 16//31 11//21
f  11//22 16//32 6//12
f  7//13 17//33 12//23
f  12//24 17//34 7//14
f  18//35 7//13 11//21
f  11//22 7//14 18//36
f  5//9 13//25 19//37
f  19//38 13//26 5//10
f  20//39 10//19 9//17
f  9//18 10//20 20//40
f  14//27 5//9 19//37
f  19//38 5//10 14//28
f  21//41 9//17 14//27
f  14//28 9//18 21//42
f  15//29 10//19 22//43
f  22//44 10//20 15//30
f  16//31 6//11 15//29
f  15//30 6//12 16//32
f  16//31 18//35 11//21
f  11//22 18//36 16//32
f  17//33 7//13 23//45
f  23//46 7//14 17//34
f  7//13 18//35 23//45
f  23//46 18//36 7//14
f  10//19 20//39 22//43
f  22//44 20//40 10//20
f  9//17 21//41 20//39
f  20//40 21//42 9//18
f  22//43 24//4 15//29
f  15//30 24//8 22//44
f  15//29 25//23 16//31
f  16//32 25//24 15//30
f  18//35 16//31 26//47
f  26//48 16//32 18//36
f  23//45 27//26 17//33
f  17//34 27//25 23//46
f  18//35 28//49 23//45
f  23//46 28//50 18//36
f  29//15 22//43 20//39
f  20//40 22//44 29//16
f  30//25 20//39 21//41
f  21//42 20//40 30//26
f  24//4 22//43 31//2
f  31//6 22//44 24//8
f  15//29 24//4 32//4
f  32//8 24//8 15//30
f  25//23 15//29 33//4
f  33//8 15//30 25//24
f  25//23 26//47 16//31
f  16//32 26//48 25//24
f  26//47 34//51 18//35
f  18//36 34//52 26//48
f  27//26 23//45 28//49
f  28//50 23//46 27//25
f  28//49 18//35 34//51
f  34//52 18//36 28//50
f  22//43 29//15 31//2
f  31//6 29//16 22//44
f  20//39 30//25 29//15
f  29//16 30//26 20//40
f  31//53 35//53 24//53
f  24//54 35//54 31//54
f  35//23 32//4 24//4
f  24//8 32//8 35//24
f  15//29 32//4 33//4
f  33//8 32//8 15//30
f  26//47 25//23 36//33
f  36//34 25//24 26//48
f  34//51 26//47 37//55
f  37//56 26//48 34//52
f  29//53 38//53 31//53
f  31//54 38//54 29//54
f  30//53 38//53 29//53
f  29//54 38//54 30//54
f  31//53 38//53 35//53
f  35//54 38//54 31//54
f  32//4 35//23 39//23
f  39//24 35//24 32//8
f  36//33 37//55 26//47
f  26//48 37//56 36//34
f  38//53 30//53 40//53
f  40//54 30//54 38//54
f  41//33 35//23 38//33
f  38//34 35//24 41//34
f  35//23 41//33 39//23
f  39//24 41//34 35//24
f  37//55 36//33 42//26
f  42//25 36//34 37//56
f  43//26 38//33 40//26
f  40//25 38//34 43//25
f  38//33 43//26 41//33
f  41//34 43//25 38//34

# Mesh 'mesh1_mesh1-geometry' with 51 faces
g mesh1_mesh1-geometry
usemtl material_1_24
f  4//4 44//2 2//2
f  44//2 4//4 45//4
f  44//2 8//15 2//2
f  12//23 45//4 4//4
f  46//54 44//54 45//54
f  8//15 44//2 47//15
f  47//15 13//25 8//15
f  48//33 12//23 17//33
f  45//4 12//23 46//23
f  46//54 47//54 44//54
f  13//25 47//15 49//25
f  12//23 48//33 46//23
f  17//33 50//26 48//33
f  48//54 47//54 46//54
f  48//54 49//54 47//54
f  50//26 17//33 27//26
f  49//54 48//54 50//54
f  33//57 51//57 25//23
f  25//24 51//58 33//58
f  32//57 52//57 33//57
f  33//58 52//58 32//58
f  51//57 33//57 52//57
f  52//58 33//58 51//58
f  25//23 51//57 53//23
f  53//24 51//58 25//24
f  53//23 36//33 25//23
f  25//24 36//34 53//24
f  52//57 32//57 39//23
f  39//24 32//58 52//58
f  52//58 51//58 54//24
f  53//24 54//24 51//58
f  36//33 53//23 55//33
f  55//34 53//24 36//34
f  56//33 39//23 41//33
f  41//34 39//24 56//34
f  52//57 39//23 54//23
f  54//24 39//24 52//58
f  53//24 55//34 54//24
f  55//33 42//26 36//33
f  36//34 42//25 55//34
f  57//26 41//33 43//26
f  43//25 41//34 57//25
f  39//23 56//33 54//23
f  54//24 56//34 39//24
f  41//33 57//26 56//33
f  56//34 57//25 41//34
f  56//34 54//24 55//34
f  42//26 55//33 58//26
f  58//25 55//34 42//25
f  57//25 56//34 58//25
f  55//34 58//25 56//34

# Mesh 'mesh1_mesh1-geometry' with 23 faces
g mesh1_mesh1-geometry
usemtl material_2_24
f  2//6 44//6 4//8
f  45//8 4//8 44//6
f  2//6 8//16 44//6
f  4//8 45//8 12//24
f  45//53 44//53 46//53
f  47//16 44//6 8//16
f  8//16 13//26 47//16
f  17//34 12//24 48//34
f  46//24 12//24 45//8
f  44//53 47//53 46//53
f  49//26 47//16 13//26
f  46//24 48//34 12//24
f  48//34 50//25 17//34
f  46//53 47//53 48//53
f  47//53 49//53 48//53
f  27//25 17//34 50//25
f  50//53 48//53 49//53
f  54//23 51//57 52//57
f  51//57 54//23 53//23
f  54//23 55//33 53//23
f  55//33 54//23 56//33
f  58//26 56//33 57//26
f  56//33 58//26 55//33

# Mesh 'mesh2_mesh2-geometry' with 122 faces
g mesh2_mesh2-geometry
usemtl material_0_24
f  59//59 60//24 61//60
f  61//61 60//23 59//62
f  59//59 62//63 60//24
f  60//23 62//64 59//62
f  63//8 61//60 60//24
f  60//23 61//61 63//4
f  61//60 64//65 59//59
f  59//62 64//66 61//61
f  62//63 59//59 65//67
f  65//68 59//62 62//64
f  66//34 60//24 62//63
f  62//64 60//23 66//33
f  61//60 63//8 67//69
f  67//70 63//4 61//61
f  64//65 61//60 68//71
f  68//72 61//61 64//66
f  69//73 59//59 64//65
f  64//66 59//62 69//74
f  69//73 65//67 59//59
f  59//62 65//68 69//74
f  65//67 14//27 62//63
f  62//64 14//28 65//68
f  66//34 62//63 13//25
f  13//26 62//64 66//33
f  70//6 67//69 63//8
f  63//4 67//70 70//2
f  67//69 68//71 61//60
f  61//61 68//72 67//70
f  68//71 71//75 64//65
f  64//66 71//76 68//72
f  64//65 72//77 69//73
f  69//74 72//78 64//66
f  65//67 69//73 73//79
f  73//80 69//74 65//68
f  14//27 65//67 21//41
f  21//42 65//68 14//28
f  19//37 62//63 14//27
f  14//28 62//64 19//38
f  19//37 13//25 62//63
f  62//64 13//26 19//38
f  70//6 74//16 67//69
f  67//70 74//15 70//2
f  68//71 67//69 75//81
f  75//82 67//70 68//72
f  68//71 75//81 71//75
f  71//76 75//82 68//72
f  72//77 64//65 71//75
f  71//76 64//66 72//78
f  76//83 69//73 72//77
f  72//78 69//74 76//84
f  76//83 73//79 69//73
f  69//74 73//80 76//84
f  73//79 21//41 65//67
f  65//68 21//42 73//80
f  77//85 67//69 74//16
f  74//15 67//70 77//86
f  77//85 75//81 67//69
f  67//70 75//82 77//86
f  78//87 71//75 75//81
f  75//82 71//76 78//88
f  71//75 79//6 72//77
f  72//78 79//2 71//76
f  72//77 80//8 76//83
f  76//84 80//4 72//78
f  73//79 76//83 81//34
f  81//33 76//84 73//80
f  21//41 73//79 30//25
f  30//26 73//80 21//42
f  74//16 27//26 77//85
f  77//86 27//25 74//15
f  77//85 28//49 75//81
f  75//82 28//50 77//86
f  71//75 78//87 79//6
f  79//2 78//88 71//76
f  75//81 34//51 78//87
f  78//88 34//52 75//82
f  82//8 72//77 79//6
f  79//2 72//78 82//4
f  83//8 80//8 72//77
f  72//78 80//4 83//4
f  84//24 76//83 80//8
f  80//4 76//84 84//23
f  84//24 81//34 76//83
f  76//84 81//33 84//23
f  81//34 30//25 73//79
f  73//80 30//26 81//33
f  28//49 77//85 27//26
f  27//25 77//86 28//50
f  34//51 75//81 28//49
f  28//50 75//82 34//52
f  85//16 79//6 78//87
f  78//88 79//2 85//15
f  37//55 78//87 34//51
f  34//52 78//88 37//56
f  82//8 83//8 72//77
f  72//78 83//4 82//4
f  80//8 83//8 86//6
f  86//2 83//4 80//4
f  80//53 86//53 84//53
f  84//54 86//54 80//54
f  84//53 87//53 81//53
f  81//54 87//54 84//54
f  81//53 87//53 30//53
f  30//54 87//54 81//54
f  78//87 37//55 85//16
f  85//15 37//56 78//88
f  88//6 86//6 83//8
f  83//4 86//2 88//2
f  86//53 87//53 84//53
f  84//54 87//54 86//54
f  40//53 30//53 87//53
f  87//54 30//54 40//54
f  42//26 85//16 37//55
f  37//56 85//15 42//25
f  88//6 89//16 86//6
f  86//2 89//15 88//2
f  87//16 86//6 89//16
f  89//15 86//2 87//15
f  40//26 87//16 43//26
f  43//25 87//15 40//25
f  89//16 43//26 87//16
f  87//15 43//25 89//15

# Mesh 'mesh2_mesh2-geometry' with 51 faces
g mesh2_mesh2-geometry
usemtl material_1_24
f  60//24 90//24 63//8
f  60//24 66//34 90//24
f  91//8 63//8 90//24
f  92//34 90//24 66//34
f  66//34 13//25 92//34
f  63//8 91//8 70//6
f  91//54 90//54 93//54
f  90//54 92//54 93//54
f  49//25 92//34 13//25
f  74//16 70//6 94//16
f  93//6 70//6 91//8
f  93//54 92//54 94//54
f  92//54 49//54 94//54
f  93//6 94//16 70//6
f  94//16 50//26 74//16
f  50//54 94//54 49//54
f  27//26 74//16 50//26
f  79//6 95//89 82//89
f  82//90 95//90 79//2
f  79//6 85//16 96//6
f  96//2 85//15 79//2
f  82//89 97//89 83//89
f  83//90 97//90 82//90
f  96//6 95//89 79//6
f  79//2 95//90 96//2
f  97//89 82//89 95//89
f  95//90 82//90 97//90
f  98//16 96//6 85//16
f  85//15 96//2 98//15
f  88//6 83//89 97//89
f  97//90 83//90 88//2
f  95//90 99//2 96//2
f  99//2 95//90 97//90
f  99//2 98//15 96//2
f  85//16 42//26 98//16
f  98//15 42//25 85//15
f  99//6 88//6 97//89
f  97//90 88//2 99//2
f  89//16 88//6 100//16
f  100//15 88//2 89//15
f  98//15 99//2 100//15
f  58//26 98//16 42//26
f  42//25 98//15 58//25
f  99//6 100//16 88//6
f  88//2 100//15 99//2
f  100//16 57//26 89//16
f  89//15 57//25 100//15
f  43//26 89//16 57//26
f  57//25 89//15 43//25
f  100//15 58//25 98//15
f  58//25 100//15 57//25

# Mesh 'mesh2_mesh2-geometry' with 17 faces
g mesh2_mesh2-geometry
usemtl material_3_24
f  63//4 90//23 60//23
f  90//23 66//33 60//23
f  90//23 63//4 91//4
f  66//33 90//23 92//33
f  92//33 13//26 66//33
f  70//2 91//4 63//4
f  93//53 90//53 91//53
f  93//53 92//53 90//53
f  13//26 92//33 49//26
f  94//15 70//2 74//15
f  91//4 70//2 93//2
f  94//53 92//53 93//53
f  94//53 49//53 92//53
f  70//2 94//15 93//2
f  74//15 50//25 94//15
f  49//53 94//53 50//53
f  50//25 74//15 27//25

# Mesh 'mesh2_mesh2-geometry' with 6 faces
g mesh2_mesh2-geometry
usemtl material_2_24
f  96//6 99//6 95//89
f  97//89 95//89 99//6
f  96//6 98//16 99//6
f  100//16 99//6 98//16
f  98//16 58//26 100//16
f  57//26 100//16 58//26

