# File produced by Open Asset Import Library (http://www.assimp.sf.net)
# (assimp v3.2.202087883)

mtllib model_normalized.mtl

# 144 vertex positions
v -0.231906 -0.448457 -0.041048
v -0.221361 -0.448457 0.080404
v -0.234629 -0.448457 0.020372
v -0.213380 -0.448457 -0.099671
v -0.234629 -0.050250 0.020372
v -0.231906 -0.050250 -0.041048
v -0.213380 -0.050250 -0.099671
v -0.193008 -0.448457 0.134957
v -0.221361 -0.050250 0.080404
v -0.180313 -0.050250 -0.151502
v -0.180313 -0.448457 -0.151502
v -0.193008 -0.050250 0.134957
v -0.151502 -0.448457 0.180313
v -0.134957 -0.448457 -0.193008
v -0.151502 -0.050250 0.180313
v -0.134957 -0.050250 -0.193008
v -0.099671 -0.448457 0.213380
v -0.080404 -0.448457 -0.221361
v -0.099671 -0.050250 0.213380
v -0.080404 -0.050250 -0.221361
v -0.093289 -0.050250 0.008100
v -0.041048 -0.448457 0.231906
v -0.041048 -0.050250 0.231906
v -0.092207 -0.050250 -0.016321
v -0.020372 -0.448457 -0.234629
v -0.088014 -0.050250 0.031969
v -0.084841 -0.050250 -0.039630
v -0.020372 -0.050250 -0.234629
v -0.093289 0.299604 0.008100
v -0.092207 0.299604 -0.016321
v 0.020372 -0.448457 0.234629
v 0.020372 -0.050250 0.234629
v -0.076740 -0.050250 0.053659
v -0.084841 0.299604 -0.039630
v -0.071693 -0.050250 -0.060238
v 0.041048 -0.448457 -0.231906
v -0.088014 0.299604 0.031969
v -0.039630 -0.050250 0.084841
v -0.060238 -0.050250 0.071693
v -0.071693 0.299604 -0.060238
v -0.053659 -0.050250 -0.076740
v 0.041048 -0.050250 -0.231906
v 0.080404 -0.448457 0.221361
v 0.080404 -0.050250 0.221361
v -0.016321 -0.050250 0.092207
v -0.076740 0.299604 0.053659
v -0.031969 -0.050250 -0.088014
v -0.008100 -0.050250 -0.093289
v 0.099671 -0.448457 -0.213380
v 0.031969 -0.050250 0.088014
v -0.039630 0.299604 0.084841
v 0.008100 -0.050250 0.093289
v -0.016321 0.299604 0.092207
v -0.060238 0.299604 0.071693
v -0.053659 0.299604 -0.076740
v 0.016321 -0.050250 -0.092207
v 0.099671 -0.050250 -0.213380
v 0.134957 -0.448457 0.193008
v 0.134957 -0.050250 0.193008
v 0.053659 -0.050250 0.076740
v 0.008100 0.299604 0.093289
v -0.031969 0.299604 -0.088014
v -0.008100 0.299604 -0.093289
v 0.039630 -0.050250 -0.084841
v 0.060238 -0.050250 -0.071693
v 0.151502 -0.448457 -0.180313
v 0.084841 -0.050250 0.039630
v 0.031969 0.299604 0.088014
v 0.071693 -0.050250 0.060238
v 0.053659 0.299604 0.076740
v -0.005068 0.299604 0.000440
v 0.016321 0.299604 -0.092207
v 0.076740 -0.050250 -0.053659
v 0.151502 -0.050250 -0.180313
v 0.180313 -0.448457 0.151502
v 0.180313 -0.050250 0.151502
v 0.092207 -0.050250 0.016321
v 0.071693 0.299604 0.060238
v -0.004781 0.299604 0.001737
v -0.005009 0.299604 -0.000887
v 0.039630 0.299604 -0.084841
v 0.076740 0.299604 -0.053659
v 0.088014 -0.050250 -0.031969
v 0.193008 -0.050250 -0.134957
v 0.193008 -0.448457 -0.134957
v 0.093289 -0.050250 -0.008100
v 0.084841 0.299604 0.039630
v 0.060238 0.299604 -0.071693
v 0.005068 0.299604 -0.000440
v -0.004169 0.299604 0.002915
v -0.005068 -0.050250 0.000440
v -0.004609 0.299604 -0.002153
v 0.088014 0.299604 -0.031969
v 0.213380 -0.448457 0.099671
v 0.092207 0.299604 0.016321
v 0.004781 0.299604 -0.001737
v 0.005009 0.299604 0.000887
v -0.005009 -0.050250 -0.000887
v -0.003272 0.299604 0.003895
v -0.004781 -0.050250 0.001737
v -0.004609 -0.050250 -0.002153
v -0.003895 0.299604 -0.003272
v 0.093289 0.299604 -0.008100
v 0.221361 -0.050250 -0.080404
v 0.213380 -0.050250 0.099671
v 0.221361 -0.448457 -0.080404
v 0.004169 0.299604 -0.002915
v 0.005068 -0.050250 -0.000440
v 0.004609 0.299604 0.002153
v 0.005009 -0.050250 0.000887
v -0.002153 0.299604 0.004609
v -0.004169 -0.050250 0.002915
v -0.003895 -0.050250 -0.003272
v -0.002915 0.299604 -0.004169
v 0.231906 -0.448457 0.041048
v 0.003272 0.299604 -0.003895
v 0.004781 -0.050250 -0.001737
v 0.003895 0.299604 0.003272
v 0.004609 -0.050250 0.002153
v -0.000887 0.299604 0.005009
v -0.002153 -0.050250 0.004609
v -0.003272 -0.050250 0.003895
v -0.001737 0.299604 -0.004781
v 0.234629 -0.050250 -0.020372
v 0.231906 -0.050250 0.041048
v 0.234629 -0.448457 -0.020372
v 0.002153 0.299604 -0.004609
v 0.004169 -0.050250 -0.002915
v 0.002915 0.299604 0.004169
v 0.003895 -0.050250 0.003272
v 0.000440 0.299604 0.005068
v -0.000887 -0.050250 0.005009
v -0.002915 -0.050250 -0.004169
v -0.000440 0.299604 -0.005068
v 0.000887 0.299604 -0.005009
v 0.002153 -0.050250 -0.004609
v 0.003272 -0.050250 -0.003895
v 0.001737 0.299604 0.004781
v 0.000440 -0.050250 0.005068
v -0.001737 -0.050250 -0.004781
v 0.000887 -0.050250 -0.005009
v 0.002915 -0.050250 0.004169
v 0.001737 -0.050250 0.004781
v -0.000440 -0.050250 -0.005068

# 0 UV coordinates

# 26 vertex normals
vn 0 -0.0254 0
vn 0 0.0254 0
vn 0.0253048 0 -0.00219715
vn 0.0238739 0 -0.00867166
vn 0.0250112 0 0.00442707
vn 0.0230132 0 0.0107496
vn 0.0194468 0 0.0163396
vn 0.020816 0 -0.0145552
vn 0.0145552 0 0.020816
vn 0.0163396 0 -0.0194468
vn 0.00867166 0 0.0238739
vn 0.0107496 0 -0.0230132
vn 0.00442707 0 -0.0250112
vn 0.00219715 0 0.0253048
vn -0.00219715 0 -0.0253048
vn -0.00442707 -0 0.0250112
vn -0.00867166 0 -0.0238739
vn -0.0107496 -0 0.0230132
vn -0.0145552 0 -0.020816
vn -0.0163396 -0 0.0194468
vn -0.0194468 0 -0.0163396
vn -0.020816 -0 0.0145552
vn -0.0230132 0 -0.0107496
vn -0.0250112 0 -0.00442707
vn -0.0253048 -0 0.00219715
vn -0.0238739 -0 0.00867166

# Mesh 'mesh1_mesh1-geometry' with 376 faces
g mesh1_mesh1-geometry
usemtl material_0_24
f  1//1 2//1 3//1
f  2//1 1//1 4//1
f  3//2 2//2 1//2
f  4//2 1//2 2//2
f  3//3 5//3 2//4
f  1//5 6//5 3//3
f  4//6 7//6 1//5
f  2//1 4//1 8//1
f  8//2 4//2 2//2
f  9//4 2//4 5//3
f  5//3 3//3 6//5
f  6//5 1//5 7//6
f  7//6 4//6 10//7
f  8//1 4//1 11//1
f  11//2 4//2 8//2
f  2//4 9//4 8//8
f  5//1 6//1 9//1
f  7//1 9//1 6//1
f  11//7 10//7 4//6
f  10//1 12//1 7//1
f  8//1 11//1 13//1
f  13//2 11//2 8//2
f  12//8 8//8 9//4
f  12//1 9//1 7//1
f  11//7 14//9 10//7
f  15//1 12//1 10//1
f  13//1 11//1 14//1
f  14//2 11//2 13//2
f  8//8 12//8 13//10
f  16//9 10//7 14//9
f  15//10 13//10 12//8
f  16//1 15//1 10//1
f  13//1 14//1 17//1
f  17//2 14//2 13//2
f  14//9 18//11 16//9
f  15//10 19//12 13//10
f  19//1 15//1 16//1
f  17//1 14//1 18//1
f  18//2 14//2 17//2
f  17//12 13//10 19//12
f  20//11 16//9 18//11
f  21//1 19//1 16//1
f  17//1 18//1 22//1
f  22//2 18//2 17//2
f  19//12 23//13 17//12
f  20//1 24//1 16//1
f  18//11 25//14 20//11
f  21//1 26//1 19//1
f  24//1 21//1 16//1
f  22//1 18//1 25//1
f  25//2 18//2 22//2
f  22//13 17//12 23//13
f  23//1 19//1 26//1
f  27//1 24//1 20//1
f  28//14 20//11 25//14
f  21//3 29//3 26//4
f  24//5 30//5 21//3
f  22//1 25//1 31//1
f  31//2 25//2 22//2
f  23//13 32//15 22//13
f  33//1 23//1 26//1
f  27//6 34//6 24//5
f  35//1 27//1 20//1
f  28//1 35//1 20//1
f  25//14 36//16 28//14
f  37//4 26//4 29//3
f  29//3 21//3 30//5
f  30//5 24//5 34//6
f  31//1 25//1 36//1
f  36//2 25//2 31//2
f  31//15 22//13 32//15
f  32//1 23//1 38//1
f  39//1 23//1 33//1
f  26//4 37//4 33//8
f  34//6 27//6 40//7
f  35//7 40//7 27//6
f  41//1 35//1 28//1
f  42//16 28//14 36//16
f  29//1 30//1 37//1
f  34//1 37//1 30//1
f  31//1 36//1 43//1
f  43//2 36//2 31//2
f  32//15 44//17 31//15
f  38//1 23//1 39//1
f  45//1 32//1 38//1
f  33//8 46//8 39//10
f  46//8 33//8 37//4
f  40//1 46//1 34//1
f  35//7 41//9 40//7
f  47//1 41//1 28//1
f  42//1 48//1 28//1
f  36//16 49//18 42//16
f  46//1 37//1 34//1
f  43//1 36//1 49//1
f  49//2 36//2 43//2
f  43//17 31//15 44//17
f  44//1 32//1 50//1
f  38//12 39//10 51//12
f  52//1 32//1 45//1
f  45//13 38//12 53//13
f  54//10 39//10 46//8
f  54//1 46//1 40//1
f  55//9 40//7 41//9
f  41//9 47//11 55//9
f  48//1 47//1 28//1
f  56//1 48//1 42//1
f  57//18 42//16 49//18
f  43//1 49//1 58//1
f  58//2 49//2 43//2
f  44//17 59//19 43//17
f  50//1 32//1 52//1
f  60//1 44//1 50//1
f  54//10 51//12 39//10
f  51//12 53//13 38//12
f  52//15 45//13 61//15
f  53//13 61//15 45//13
f  55//1 54//1 40//1
f  62//11 55//9 47//11
f  47//11 48//14 62//11
f  48//14 56//16 63//14
f  64//1 56//1 42//1
f  57//1 65//1 42//1
f  49//18 66//20 57//18
f  58//1 49//1 66//1
f  66//2 49//2 58//2
f  58//19 43//17 59//19
f  59//1 44//1 67//1
f  50//17 52//15 68//17
f  69//1 44//1 60//1
f  60//19 50//17 70//19
f  51//1 54//1 55//1
f  53//1 51//1 62//1
f  61//15 68//17 52//15
f  61//1 53//1 71//1
f  62//1 51//1 55//1
f  63//14 62//11 48//14
f  72//16 63//14 56//16
f  56//16 64//18 72//16
f  65//1 64//1 42//1
f  73//1 65//1 57//1
f  74//20 57//18 66//20
f  58//1 66//1 75//1
f  75//2 66//2 58//2
f  59//19 76//21 58//19
f  67//1 44//1 69//1
f  77//1 59//1 67//1
f  68//17 70//19 50//17
f  69//21 60//19 78//21
f  70//19 78//21 60//19
f  63//1 53//1 62//1
f  68//1 61//1 72//1
f  71//1 53//1 63//1
f  79//1 61//1 71//1
f  72//1 80//1 63//1
f  81//18 72//16 64//18
f  64//18 65//20 81//18
f  73//22 82//22 65//20
f  83//1 73//1 57//1
f  74//1 59//1 57//1
f  74//20 66//20 84//22
f  75//1 66//1 85//1
f  85//2 66//2 75//2
f  75//21 58//19 76//21
f  76//1 59//1 74//1
f  69//21 78//21 67//23
f  86//1 59//1 77//1
f  67//23 87//23 77//24
f  70//1 68//1 81//1
f  78//1 70//1 88//1
f  61//1 89//1 72//1
f  81//1 68//1 72//1
f  71//1 63//1 80//1
f  90//1 61//1 79//1
f  79//4 91//3 71//3
f  71//25 91//25 79//26
f  92//1 80//1 72//1
f  88//20 81//18 65//20
f  88//20 65//20 82//22
f  82//22 73//22 93//26
f  83//26 93//26 73//22
f  86//1 83//1 57//1
f  57//1 59//1 86//1
f  85//22 84//22 66//20
f  84//1 76//1 74//1
f  75//1 85//1 94//1
f  94//2 85//2 75//2
f  75//21 76//21 94//23
f  87//23 67//23 78//21
f  77//24 95//24 86//25
f  95//24 77//24 87//23
f  88//1 70//1 81//1
f  82//1 78//1 88//1
f  89//1 96//1 72//1
f  89//1 61//1 97//1
f  71//3 98//5 80//5
f  80//24 98//24 71//25
f  99//1 61//1 90//1
f  90//8 100//4 79//4
f  79//26 100//26 90//22
f  91//3 79//4 100//4
f  100//26 79//26 91//25
f  98//5 71//3 91//3
f  91//25 71//25 98//24
f  80//5 101//6 92//6
f  92//23 101//23 80//24
f  102//1 92//1 72//1
f  93//1 87//1 82//1
f  93//26 83//26 103//25
f  86//25 103//25 83//26
f  84//22 85//22 104//26
f  105//1 76//1 84//1
f  94//1 85//1 106//1
f  106//2 85//2 94//2
f  105//23 94//23 76//21
f  87//1 78//1 82//1
f  103//25 86//25 95//24
f  95//1 87//1 93//1
f  96//1 107//1 72//1
f  96//26 108//25 89//25
f  89//3 108//3 96//4
f  97//1 61//1 109//1
f  89//25 110//24 97//24
f  97//5 110//5 89//3
f  101//6 80//5 98//5
f  98//24 80//24 101//23
f  111//1 61//1 99//1
f  99//10 112//8 90//8
f  90//22 112//22 99//20
f  100//4 90//8 112//8
f  112//22 90//22 100//26
f  100//2 98//2 91//2
f  91//1 98//1 100//1
f  113//7 92//6 101//6
f  101//23 92//23 113//21
f  92//6 113//7 102//7
f  102//21 113//21 92//23
f  114//1 102//1 72//1
f  103//1 95//1 93//1
f  106//26 104//26 85//22
f  104//1 105//1 84//1
f  94//1 106//1 115//1
f  115//2 106//2 94//2
f  94//23 105//23 115//24
f  107//1 116//1 72//1
f  107//22 117//26 96//26
f  96//4 117//4 107//8
f  108//25 96//26 117//26
f  117//4 96//4 108//3
f  110//24 89//25 108//25
f  108//3 89//3 110//5
f  109//1 61//1 118//1
f  97//24 119//23 109//23
f  109//6 119//6 97//5
f  119//23 97//24 110//24
f  110//5 97//5 119//6
f  98//2 100//2 101//2
f  101//1 100//1 98//1
f  120//1 61//1 111//1
f  121//12 99//10 111//12
f  111//18 99//20 121//18
f  112//8 99//10 122//10
f  122//20 99//20 112//22
f  101//2 100//2 112//2
f  112//1 100//1 101//1
f  101//2 112//2 113//2
f  113//1 112//1 101//1
f  113//7 114//9 102//7
f  102//21 114//19 113//21
f  123//1 114//1 72//1
f  104//26 106//26 124//25
f  125//1 105//1 104//1
f  115//1 106//1 126//1
f  126//2 106//2 115//2
f  125//24 115//24 105//23
f  116//1 127//1 72//1
f  116//20 128//22 107//22
f  107//8 128//8 116//10
f  117//26 107//22 128//22
f  128//8 107//8 117//4
f  117//2 110//2 108//2
f  108//1 110//1 117//1
f  118//1 61//1 129//1
f  109//23 130//21 118//21
f  118//7 130//7 109//6
f  130//21 109//23 119//23
f  119//6 109//6 130//7
f  117//2 119//2 110//2
f  110//1 119//1 117//1
f  131//1 61//1 120//1
f  132//13 111//12 120//13
f  120//16 111//18 132//16
f  99//10 121//12 122//10
f  122//20 121//18 99//20
f  111//12 132//13 121//12
f  121//18 132//16 111//18
f  113//2 112//2 122//2
f  122//1 112//1 113//1
f  114//9 113//7 133//9
f  133//19 113//21 114//19
f  133//9 123//11 114//9
f  114//19 123//17 133//19
f  134//1 123//1 72//1
f  126//25 124//25 106//26
f  124//1 125//1 104//1
f  115//24 125//24 126//25
f  127//1 135//1 72//1
f  136//18 116//20 127//18
f  127//12 116//10 136//12
f  128//22 116//20 137//20
f  137//10 116//10 128//8
f  128//2 119//2 117//2
f  117//1 119//1 128//1
f  129//1 61//1 138//1
f  130//21 129//19 118//21
f  118//7 129//9 130//7
f  128//2 130//2 119//2
f  119//1 130//1 128//1
f  138//1 61//1 131//1
f  139//15 120//13 131//15
f  131//14 120//16 139//14
f  120//13 139//15 132//13
f  132//16 139//14 120//16
f  133//2 122//2 121//2
f  121//1 122//1 133//1
f  140//2 121//2 132//2
f  132//1 121//1 140//1
f  113//2 122//2 133//2
f  133//1 122//1 113//1
f  123//11 133//9 140//11
f  140//17 133//19 123//17
f  140//11 134//14 123//11
f  123//17 134//15 140//17
f  135//1 134//1 72//1
f  124//25 126//25 125//24
f  141//16 127//18 135//16
f  135//13 127//12 141//13
f  116//20 136//18 137//20
f  137//10 136//12 116//10
f  127//18 141//16 136//18
f  136//12 141//13 127//12
f  137//2 130//2 128//2
f  128//1 130//1 137//1
f  142//19 138//17 129//19
f  129//9 138//11 142//9
f  129//19 130//21 142//19
f  142//9 130//7 129//9
f  143//17 131//15 138//17
f  138//11 131//14 143//11
f  131//15 143//17 139//15
f  139//14 143//11 131//14
f  144//2 132//2 139//2
f  139//1 132//1 144//1
f  133//2 121//2 140//2
f  140//1 121//1 133//1
f  140//2 132//2 144//2
f  144//1 132//1 140//1
f  134//14 140//11 144//14
f  144//15 140//17 134//15
f  144//14 135//16 134//14
f  134//15 135//13 144//15
f  135//16 144//14 141//16
f  141//13 144//15 135//13
f  136//2 142//2 137//2
f  137//1 142//1 136//1
f  141//2 143//2 136//2
f  136//1 143//1 141//1
f  137//2 142//2 130//2
f  130//1 142//1 137//1
f  138//17 142//19 143//17
f  143//11 142//9 138//11
f  141//2 139//2 143//2
f  143//1 139//1 141//1
f  144//2 139//2 141//2
f  141//1 139//1 144//1
f  136//2 143//2 142//2
f  142//1 143//1 136//1

# Mesh 'mesh1_mesh1-geometry' with 144 faces
g mesh1_mesh1-geometry
usemtl material_1_24
f  2//26 5//25 3//25
f  3//25 6//24 1//24
f  1//24 7//23 4//23
f  5//25 2//26 9//26
f  6//24 3//25 5//25
f  7//23 1//24 6//24
f  10//21 4//23 7//23
f  8//22 9//26 2//26
f  9//2 6//2 5//2
f  6//2 9//2 7//2
f  4//23 10//21 11//21
f  7//2 12//2 10//2
f  9//26 8//22 12//22
f  7//2 9//2 12//2
f  10//21 14//19 11//21
f  10//2 12//2 15//2
f  13//20 12//22 8//22
f  14//19 10//21 16//19
f  12//22 13//20 15//20
f  10//2 15//2 16//2
f  16//19 18//17 14//19
f  13//20 19//18 15//20
f  16//2 15//2 19//2
f  19//18 13//20 17//18
f  18//17 16//19 20//17
f  16//2 19//2 21//2
f  17//18 23//16 19//18
f  16//2 24//2 20//2
f  20//17 25//15 18//17
f  19//2 26//2 21//2
f  16//2 21//2 24//2
f  23//16 17//18 22//16
f  26//2 19//2 23//2
f  20//2 24//2 27//2
f  25//15 20//17 28//15
f  26//26 29//25 21//25
f  21//25 30//24 24//24
f  22//16 32//14 23//16
f  26//2 23//2 33//2
f  24//24 34//23 27//23
f  20//2 27//2 35//2
f  20//2 35//2 28//2
f  28//15 36//13 25//15
f  29//25 26//26 37//26
f  30//24 21//25 29//25
f  34//23 24//24 30//24
f  32//14 22//16 31//14
f  38//2 23//2 32//2
f  33//2 23//2 39//2
f  33//22 37//26 26//26
f  40//21 27//23 34//23
f  27//23 40//21 35//21
f  28//2 35//2 41//2
f  36//13 28//15 42//13
f  31//14 44//11 32//14
f  39//2 23//2 38//2
f  38//2 32//2 45//2
f  39//20 46//22 33//22
f  37//26 33//22 46//22
f  40//21 41//19 35//21
f  28//2 41//2 47//2
f  28//2 48//2 42//2
f  42//13 49//12 36//13
f  44//11 31//14 43//11
f  50//2 32//2 44//2
f  51//18 39//20 38//18
f  45//2 32//2 52//2
f  53//16 38//18 45//16
f  46//22 39//20 54//20
f  41//19 40//21 55//19
f  55//19 47//17 41//19
f  28//2 47//2 48//2
f  42//2 48//2 56//2
f  49//12 42//13 57//12
f  43//11 59//9 44//11
f  52//2 32//2 50//2
f  50//2 44//2 60//2
f  39//20 51//18 54//20
f  38//18 53//16 51//18
f  61//14 45//16 52//14
f  45//16 61//14 53//16
f  47//17 55//19 62//17
f  62//17 48//15 47//17
f  63//15 56//13 48//15
f  42//2 56//2 64//2
f  42//2 65//2 57//2
f  57//12 66//10 49//12
f  59//9 43//11 58//9
f  67//2 44//2 59//2
f  68//11 52//14 50//11
f  60//2 44//2 69//2
f  70//9 50//11 60//9
f  52//14 68//11 61//14
f  48//15 62//17 63//15
f  56//13 63//15 72//13
f  72//13 64//12 56//13
f  42//2 64//2 65//2
f  57//2 65//2 73//2
f  66//10 57//12 74//10
f  58//9 76//7 59//9
f  69//2 44//2 67//2
f  67//2 59//2 77//2
f  50//11 70//9 68//11
f  78//7 60//9 69//7
f  60//9 78//7 70//9
f  64//12 72//13 81//12
f  81//12 65//10 64//12
f  65//10 82//8 73//8
f  57//2 73//2 83//2
f  57//2 59//2 74//2
f  84//8 66//10 74//10
f  76//7 58//9 75//7
f  74//2 59//2 76//2
f  67//6 78//7 69//7
f  77//2 59//2 86//2
f  77//5 87//6 67//6
f  65//10 81//12 88//10
f  82//8 65//10 88//10
f  93//4 73//8 82//8
f  73//8 93//4 83//4
f  57//2 83//2 86//2
f  86//2 59//2 57//2
f  66//10 84//8 85//8
f  74//2 76//2 84//2
f  94//6 76//7 75//7
f  78//7 67//6 87//6
f  86//3 95//5 77//5
f  87//6 77//5 95//5
f  103//3 83//4 93//4
f  83//4 103//3 86//3
f  104//4 85//8 84//8
f  84//2 76//2 105//2
f  76//7 94//6 105//6
f  95//5 86//3 103//3
f  85//8 104//4 106//4
f  84//2 105//2 104//2
f  115//5 105//6 94//6
f  124//3 106//4 104//4
f  104//2 105//2 125//2
f  105//6 115//5 125//5
f  106//4 124//3 126//3
f  104//2 125//2 124//2
f  126//3 125//5 115//5
f  125//5 126//3 124//3

# Mesh 'mesh1_mesh1-geometry' with 48 faces
g mesh1_mesh1-geometry
usemtl material_2_24
f  37//2 30//2 29//2
f  30//2 37//2 34//2
f  34//2 46//2 40//2
f  34//2 37//2 46//2
f  40//2 46//2 54//2
f  40//2 54//2 55//2
f  55//2 54//2 51//2
f  62//2 51//2 53//2
f  71//2 53//2 61//2
f  55//2 51//2 62//2
f  62//2 53//2 63//2
f  72//2 61//2 68//2
f  63//2 53//2 71//2
f  71//2 61//2 79//2
f  63//2 80//2 72//2
f  81//2 68//2 70//2
f  88//2 70//2 78//2
f  72//2 89//2 61//2
f  72//2 68//2 81//2
f  80//2 63//2 71//2
f  79//2 61//2 90//2
f  72//2 80//2 92//2
f  81//2 70//2 88//2
f  88//2 78//2 82//2
f  72//2 96//2 89//2
f  97//2 61//2 89//2
f  90//2 61//2 99//2
f  72//2 92//2 102//2
f  82//2 87//2 93//2
f  82//2 78//2 87//2
f  93//2 87//2 95//2
f  72//2 107//2 96//2
f  109//2 61//2 97//2
f  99//2 61//2 111//2
f  72//2 102//2 114//2
f  93//2 95//2 103//2
f  72//2 116//2 107//2
f  118//2 61//2 109//2
f  111//2 61//2 120//2
f  72//2 114//2 123//2
f  72//2 127//2 116//2
f  129//2 61//2 118//2
f  120//2 61//2 131//2
f  72//2 123//2 134//2
f  72//2 135//2 127//2
f  138//2 61//2 129//2
f  131//2 61//2 138//2
f  72//2 134//2 135//2

# Mesh 'mesh2_mesh2-geometry' with 24 faces
g mesh2_mesh2-geometry
usemtl material_0_0
l  18 14
l  25 18
l  14 11
l  36 25
l  11 4
l  49 36
l  4 1
l  66 49
l  1 3
l  85 66
l  3 2
l  106 85
l  2 8
l  126 106
l  8 13
l  115 126
l  13 17
l  94 115
l  17 22
l  75 94
l  22 31
l  58 75
l  31 43
l  43 58

# Mesh 'mesh3_mesh3-geometry' with 24 faces
g mesh3_mesh3-geometry
usemtl material_0_0
l  143 142
l  139 143
l  142 130
l  132 139
l  130 119
l  121 132
l  119 110
l  122 121
l  110 108
l  112 122
l  108 117
l  100 112
l  117 128
l  91 100
l  128 137
l  98 91
l  137 136
l  101 98
l  136 141
l  113 101
l  141 144
l  133 113
l  144 140
l  140 133

